<?xml version="1.0" encoding="UTF-8"?> <svg xmlns="http://www.w3.org/2000/svg" width="89.385" height="34.031" viewBox="0 0 89.385 34.031"><g id="Groupe_1195" data-name="Groupe 1195" transform="translate(18750 19964)"><g id="Groupe_1193" data-name="Groupe 1193" transform="translate(-536 -2689)"><path id="Tracé_275" data-name="Tracé 275" d="M.006,8.332a8.332,8.332,0,1,1,8.332,8.332A8.332,8.332,0,0,1,.006,8.332" transform="translate(-18214.004 -17275)"></path><rect id="Rectangle_266" data-name="Rectangle 266" width="16.64" height="7.612" transform="translate(-18214 -17257.258)"></rect><rect id="Rectangle_267" data-name="Rectangle 267" width="16.64" height="7.612" transform="translate(-18214 -17248.58)"></rect></g><g id="ASFC_RGB_TEXT_ES" transform="translate(-18757.461 -19994.939)"><path id="Tracé_1" data-name="Tracé 1" d="M35.087,30.94H36.74l3.354,8.94H38.382l-.7-1.982H34.056l-.691,1.982H31.76Zm-.579,5.645h2.7l-1.355-3.832-1.345,3.832Z" transform="translate(-0.141)"></path><path id="Tracé_2" data-name="Tracé 2" d="M50.227,30.94v3.194A2.194,2.194,0,0,1,52.2,33.1c1.579,0,2.886,1.345,2.886,3.465s-1.307,3.476-2.886,3.476A2.194,2.194,0,0,1,50.227,39v.877H48.76V30.94Zm1.653,7.9c.989,0,1.674-.861,1.674-2.28s-.691-2.27-1.674-2.27-1.711.739-1.711,2.27S50.923,38.843,51.88,38.843Z" transform="translate(-8.105 0)"></path><path id="Tracé_3" data-name="Tracé 3" d="M68.367,38.476a3.274,3.274,0,1,1-6.537,0,3.275,3.275,0,1,1,6.537,0ZM65.1,40.746c.935,0,1.749-.739,1.749-2.27S66.034,36.2,65.1,36.2s-1.749.755-1.749,2.28.813,2.27,1.749,2.27Z" transform="translate(-14.228 -1.902)"></path><path id="Tracé_4" data-name="Tracé 4" d="M80.173,35.147H81.64v5.969a3.057,3.057,0,0,1-.8,2.344,3.34,3.34,0,0,1-2.355.712c-1.456,0-2.6-.579-2.833-2.036h1.456c.138.627.531.877,1.419.877a1.61,1.61,0,0,0,1.318-.484,1.7,1.7,0,0,0,.335-1.121v-.776a2.194,2.194,0,0,1-1.972,1.036c-1.579,0-2.886-1.27-2.886-3.343S76.627,35,78.206,35a2.193,2.193,0,0,1,1.972,1.036v-.888Zm-1.653,1.02c-.989,0-1.674.824-1.674,2.158S77.536,40.5,78.52,40.5s1.711-.691,1.711-2.179S79.466,36.167,78.52,36.167Z" transform="translate(-20.548 -1.9)"></path><path id="Tracé_5" data-name="Tracé 5" d="M89.32,39.921c0-1.664,2.046-2.057,4.465-2.317v-.122C93.785,36.35,93.141,36,92.4,36a1.2,1.2,0,0,0-1.329,1.2h-1.44a2.573,2.573,0,0,1,2.822-2.28,2.5,2.5,0,0,1,2.8,2.849c0,.319-.027,1.111-.027,1.711a10.982,10.982,0,0,0,.2,2.27H94.082a7.858,7.858,0,0,1-.122-.9,2.348,2.348,0,0,1-2.184,1.058c-1.44,0-2.456-.776-2.456-1.982Zm4.5-1.3c-2.094.2-2.945.5-2.945,1.26,0,.579.478.925,1.222.925a1.524,1.524,0,0,0,1.727-1.674v-.5Z" transform="translate(-27.107 -1.865)"></path><path id="Tracé_6" data-name="Tracé 6" d="M107.028,30.94h1.467v8.94h-1.467V39a2.194,2.194,0,0,1-1.972,1.036c-1.579,0-2.886-1.345-2.886-3.476s1.307-3.465,2.886-3.465a2.194,2.194,0,0,1,1.972,1.036Zm-1.653,3.354c-.989,0-1.674.888-1.674,2.27s.691,2.28,1.674,2.28,1.711-.755,1.711-2.28S106.321,34.294,105.375,34.294Z" transform="translate(-33.128 0)"></path><path id="Tracé_7" data-name="Tracé 7" d="M122.637,38.476a3.274,3.274,0,1,1-6.537,0,3.275,3.275,0,1,1,6.537,0Zm-3.269,2.27c.935,0,1.749-.739,1.749-2.27s-.813-2.28-1.749-2.28-1.749.755-1.749,2.28S118.433,40.746,119.369,40.746Z" transform="translate(-39.654 -1.902)"></path><path id="Tracé_8" data-name="Tracé 8" d="M133.873,36.966c-.159-.606-.718-.84-1.456-.84-.643,0-1.233.282-1.233.728s.308.68.888.787l.935.186c1.345.26,2.365.68,2.365,1.972,0,1.382-1.307,2.147-2.812,2.147a2.645,2.645,0,0,1-2.87-2.179h1.43a1.317,1.317,0,0,0,1.494,1.074c.776,0,1.329-.319,1.329-.861s-.494-.776-1.148-.914l-1-.2c-1.121-.234-2-.718-2-1.935s1.27-1.924,2.7-1.924a2.574,2.574,0,0,1,2.748,1.961h-1.382Z" transform="translate(-46.021 -1.907)"></path><g id="Groupe_3" data-name="Groupe 3" transform="translate(31.46 43.228)"><g id="Groupe_1" data-name="Groupe 1"><path id="Tracé_9" data-name="Tracé 9" d="M35.887,60.091a1.7,1.7,0,0,0-1.823-1.26c-.728,0-1.69.282-1.69,1.084,0,.654.5,1,1.244,1.132l.935.17c1.084.2,2.291.569,2.291,1.823,0,1.318-1.2,2.02-2.636,2.02a2.471,2.471,0,0,1-2.748-2.2h.8a1.814,1.814,0,0,0,2.009,1.515c.8,0,1.8-.335,1.8-1.222,0-.776-.739-1.047-1.637-1.222l-1.036-.2c-.951-.2-1.8-.728-1.8-1.775s1.047-1.823,2.541-1.823a2.375,2.375,0,0,1,2.551,1.935h-.8Z" transform="translate(-31.46 -55.971)"></path><path id="Tracé_10" data-name="Tracé 10" d="M44.935,54.06v1.222H44.17V54.06Zm0,2.307V63H44.17V56.367Z" transform="translate(-37.415 -54.06)"></path><path id="Tracé_11" data-name="Tracé 11" d="M49.615,59.418a2.3,2.3,0,0,1,2.206-1.233c1.568,0,2.232.935,2.232,2.562v4.178h-.765v-3.97c0-1.244-.335-2.083-1.664-2.083a2.127,2.127,0,0,0-2.009,2.365v3.689H48.85V58.291h.765v1.121Z" transform="translate(-39.607 -55.989)"></path></g><g id="Groupe_2" data-name="Groupe 2" transform="translate(18.858 0.064)"><path id="Tracé_12" data-name="Tracé 12" d="M67.854,55.658c0-1.084.282-1.478,1.541-1.478h.542v.7h-.383c-.84,0-.935.074-.935.888v.712h1.318v.664H68.62v5.969h-.765V57.146H66.94v-.664h.914Z" transform="translate(-66.94 -54.18)"></path><path id="Tracé_13" data-name="Tracé 13" d="M77.367,59.239a1.092,1.092,0,0,0-.186-.011h-.159c-1.366,0-1.812.989-1.812,2.392V65.1H74.46V58.463h.728v1.207a2.141,2.141,0,0,1,1.961-1.26h.1a.478.478,0,0,1,.122.011v.813Z" transform="translate(-70.463 -56.161)"></path><path id="Tracé_14" data-name="Tracé 14" d="M83.478,58.3c1.589,0,3.008,1.036,3.008,3.449S85.067,65.2,83.478,65.2s-3-1.036-3-3.449,1.419-3.449,3-3.449Zm0,6.2c1.27,0,2.2-.84,2.2-2.748s-.925-2.748-2.2-2.748-2.179.84-2.179,2.748S82.2,64.5,83.478,64.5Z" transform="translate(-73.283 -56.11)"></path><path id="Tracé_15" data-name="Tracé 15" d="M94.815,59.528a2.3,2.3,0,0,1,2.206-1.233c1.568,0,2.232.935,2.232,2.562v4.178h-.765v-3.97c0-1.244-.335-2.083-1.664-2.083a2.127,2.127,0,0,0-2.009,2.365v3.689H94.05V58.4h.765v1.121Z" transform="translate(-79.641 -56.105)"></path><path id="Tracé_16" data-name="Tracé 16" d="M106.325,55.7h.776v1.494h1.307v.664H107.1V62.1c0,.85.027,1.036.914,1.036h.393v.691h-.627c-1.185,0-1.456-.26-1.456-1.579v-4.39H105.23v-.664h1.095Z" transform="translate(-84.879 -54.892)"></path><path id="Tracé_17" data-name="Tracé 17" d="M112.49,61.749a3.122,3.122,0,0,1,3.1-3.449c1.775,0,3.056,1.579,2.96,3.651h-5.278a2.355,2.355,0,0,0,2.392,2.551,1.925,1.925,0,0,0,2.02-1.44h.8a2.734,2.734,0,0,1-2.87,2.147c-1.935,0-3.131-1.393-3.131-3.449Zm.813-.5h4.411a2.179,2.179,0,0,0-2.131-2.259A2.232,2.232,0,0,0,113.3,61.245Z" transform="translate(-88.28 -56.11)"></path><path id="Tracé_18" data-name="Tracé 18" d="M129.087,59.239a1.092,1.092,0,0,0-.186-.011h-.159c-1.366,0-1.812.989-1.812,2.392V65.1h-.749V58.463h.728v1.207a2.141,2.141,0,0,1,1.961-1.26h.1a.478.478,0,0,1,.122.011v.813Z" transform="translate(-94.694 -56.161)"></path><path id="Tracé_19" data-name="Tracé 19" d="M136.883,64a2.738,2.738,0,0,1-2.487,1.169,1.958,1.958,0,0,1-2.2-1.812c0-1.515,1.478-2.046,4.672-2.381v-.234a1.617,1.617,0,0,0-1.85-1.839,1.645,1.645,0,0,0-1.86,1.494h-.8a2.523,2.523,0,0,1,2.711-2.169c1.488,0,2.562.643,2.562,2.615,0,.925-.011,1.515-.011,2.046,0,.749.037,1.393.074,2.121h-.776L136.883,64Zm-2.317.494a2.2,2.2,0,0,0,2.344-2.514v-.319c-2.689.3-3.859.664-3.859,1.69,0,.7.627,1.148,1.515,1.148Z" transform="translate(-97.514 -56.077)"></path><path id="Tracé_20" data-name="Tracé 20" d="M148.777,60.2a1.7,1.7,0,0,0-1.823-1.26c-.728,0-1.69.282-1.69,1.084,0,.654.5,1,1.244,1.132l.935.17c1.084.2,2.291.569,2.291,1.823,0,1.318-1.2,2.02-2.636,2.02a2.471,2.471,0,0,1-2.748-2.2h.8a1.814,1.814,0,0,0,2.009,1.515c.8,0,1.8-.335,1.8-1.222,0-.776-.739-1.047-1.637-1.222l-1.036-.2c-.951-.2-1.8-.728-1.8-1.775s1.047-1.823,2.541-1.823a2.375,2.375,0,0,1,2.551,1.935h-.8Z" transform="translate(-103.207 -56.087)"></path></g></g><g id="Groupe_4" data-name="Groupe 4" transform="translate(31.625 59.278)"><path id="Tracé_21" data-name="Tracé 21" d="M36.538,88.08a2.232,2.232,0,0,1-2.328,1.866c-1.573,0-2.44-1.191-2.44-2.849s.888-2.838,2.461-2.838a2.213,2.213,0,0,1,2.28,1.866h-.532a1.731,1.731,0,0,0-1.765-1.377c-1.084,0-1.908.84-1.908,2.355s.781,2.365,1.908,2.365A1.722,1.722,0,0,0,36,88.09h.531Z" transform="translate(-31.77 -84.256)"></path><path id="Tracé_22" data-name="Tracé 22" d="M44.381,90.47a1.682,1.682,0,0,1-1.531.718,1.2,1.2,0,0,1-1.35-1.111c0-.93.909-1.26,2.87-1.462v-.144a.992.992,0,0,0-1.137-1.127,1.01,1.01,0,0,0-1.143.914H41.6a1.551,1.551,0,0,1,1.669-1.334,1.4,1.4,0,0,1,1.573,1.605c0,.569-.005.93-.005,1.26,0,.462.021.856.043,1.3H44.4l-.021-.622Zm-1.424.3a1.352,1.352,0,0,0,1.44-1.547v-.2c-1.653.181-2.37.409-2.37,1.036C42.026,90.5,42.414,90.773,42.956,90.773Z" transform="translate(-36.329 -85.504)"></path><path id="Tracé_23" data-name="Tracé 23" d="M49.972,87.726a1.4,1.4,0,0,1,1.355-.76c.962,0,1.371.574,1.371,1.573v2.567h-.468v-2.44c0-.765-.2-1.281-1.02-1.281a1.305,1.305,0,0,0-1.233,1.456v2.264H49.51V87.03h.468v.691Z" transform="translate(-40.081 -85.524)"></path><path id="Tracé_24" data-name="Tracé 24" d="M59.561,90.47a1.682,1.682,0,0,1-1.531.718,1.2,1.2,0,0,1-1.35-1.111c0-.93.909-1.26,2.87-1.462v-.144a.992.992,0,0,0-1.137-1.127,1.01,1.01,0,0,0-1.143.914h-.494a1.549,1.549,0,0,1,1.664-1.334,1.4,1.4,0,0,1,1.573,1.605c0,.569-.005.93-.005,1.26,0,.462.021.856.048,1.3h-.478l-.021-.622Zm-1.424.3a1.354,1.354,0,0,0,1.44-1.547v-.2c-1.653.181-2.37.409-2.37,1.036,0,.431.388.707.93.707Z" transform="translate(-43.44 -85.504)"></path><path id="Tracé_25" data-name="Tracé 25" d="M65.766,85.78a1.541,1.541,0,0,1,1.377.771V84.43h.468v5.49h-.468v-.664a1.551,1.551,0,0,1-1.377.765c-.941,0-1.706-.765-1.706-2.121s.765-2.121,1.706-2.121Zm.1.425c-.755,0-1.3.611-1.3,1.7s.537,1.7,1.3,1.7c.611,0,1.313-.484,1.313-1.7s-.7-1.7-1.313-1.7Z" transform="translate(-46.898 -84.338)"></path><path id="Tracé_26" data-name="Tracé 26" d="M75.021,89.309a1.682,1.682,0,0,1-1.531.718,1.2,1.2,0,0,1-1.35-1.111c0-.93.909-1.26,2.87-1.462V87.31a.992.992,0,0,0-1.137-1.127,1.01,1.01,0,0,0-1.143.914h-.494A1.551,1.551,0,0,1,73.9,85.763a1.4,1.4,0,0,1,1.573,1.605c0,.569-.005.93-.005,1.26,0,.462.021.856.043,1.3h-.478l-.021-.622Zm-1.424.3a1.352,1.352,0,0,0,1.44-1.547v-.2c-1.653.181-2.37.409-2.37,1.036,0,.431.388.707.93.707Zm.446-4.295h-.415l.68-.877h.718Z" transform="translate(-50.683 -84.342)"></path></g></g></g></svg> 