<?xml version="1.0" encoding="UTF-8"?> <svg xmlns="http://www.w3.org/2000/svg" width="123.02" height="64.02" viewBox="0 0 123.02 64.02"><g id="ASFC_RGB_TEXT_ES" transform="translate(-31.46 -30.94)"><path id="Tracé_1" data-name="Tracé 1" d="M38.02,30.94h3.11l6.31,16.82H44.22L42.9,44.03H36.08l-1.3,3.73H31.76l6.26-16.82ZM36.93,41.56h5.08l-2.55-7.21-2.53,7.21Z"></path><path id="Tracé_2" data-name="Tracé 2" d="M51.52,30.94v6.01A4.127,4.127,0,0,1,55.23,35c2.97,0,5.43,2.53,5.43,6.52s-2.46,6.54-5.43,6.54a4.127,4.127,0,0,1-3.71-1.95v1.65H48.76V30.94Zm3.11,14.87c1.86,0,3.15-1.62,3.15-4.29s-1.3-4.27-3.15-4.27-3.22,1.39-3.22,4.27S52.83,45.81,54.63,45.81Z"></path><path id="Tracé_3" data-name="Tracé 3" d="M74.13,41.54c0,4.52-3.11,6.52-6.15,6.52s-6.15-1.99-6.15-6.52S64.94,35,67.98,35,74.13,37.04,74.13,41.54Zm-6.15,4.27c1.76,0,3.29-1.39,3.29-4.27s-1.53-4.29-3.29-4.29-3.29,1.42-3.29,4.29S66.22,45.81,67.98,45.81Z"></path><path id="Tracé_4" data-name="Tracé 4" d="M84.45,35.28h2.76V46.51a5.752,5.752,0,0,1-1.51,4.41,6.285,6.285,0,0,1-4.43,1.34c-2.74,0-4.89-1.09-5.33-3.83h2.74c.26,1.18,1,1.65,2.67,1.65a3.029,3.029,0,0,0,2.48-.91,3.194,3.194,0,0,0,.63-2.11V45.6a4.127,4.127,0,0,1-3.71,1.95c-2.97,0-5.43-2.39-5.43-6.29S77.78,35,80.75,35a4.127,4.127,0,0,1,3.71,1.95V35.28ZM81.34,37.2c-1.86,0-3.15,1.55-3.15,4.06s1.3,4.1,3.15,4.1,3.22-1.3,3.22-4.1S83.12,37.2,81.34,37.2Z"></path><path id="Tracé_5" data-name="Tracé 5" d="M89.32,44.33c0-3.13,3.85-3.87,8.4-4.36v-.23c0-2.13-1.21-2.78-2.6-2.78a2.251,2.251,0,0,0-2.5,2.25H89.91c.19-2.53,2.3-4.29,5.31-4.29s5.33,1.37,5.27,5.36c0,.6-.05,2.09-.05,3.22a20.662,20.662,0,0,0,.37,4.27H98.28a14.783,14.783,0,0,1-.23-1.69,4.417,4.417,0,0,1-4.11,1.99c-2.71,0-4.62-1.46-4.62-3.73Zm8.47-2.44c-3.94.37-5.54.95-5.54,2.37,0,1.09.9,1.74,2.3,1.74,2.04,0,3.25-1.02,3.25-3.15V41.9Z"></path><path id="Tracé_6" data-name="Tracé 6" d="M111.31,30.94h2.76V47.76h-2.76V46.11a4.127,4.127,0,0,1-3.71,1.95c-2.97,0-5.43-2.53-5.43-6.54S104.63,35,107.6,35a4.127,4.127,0,0,1,3.71,1.95Zm-3.11,6.31c-1.86,0-3.15,1.67-3.15,4.27s1.3,4.29,3.15,4.29,3.22-1.42,3.22-4.29S109.98,37.25,108.2,37.25Z"></path><path id="Tracé_7" data-name="Tracé 7" d="M128.4,41.54c0,4.52-3.11,6.52-6.15,6.52s-6.15-1.99-6.15-6.52S119.21,35,122.25,35,128.4,37.04,128.4,41.54Zm-6.15,4.27c1.76,0,3.29-1.39,3.29-4.27s-1.53-4.29-3.29-4.29-3.29,1.42-3.29,4.29S120.49,45.81,122.25,45.81Z"></path><path id="Tracé_8" data-name="Tracé 8" d="M137.56,38.69c-.3-1.14-1.35-1.58-2.74-1.58-1.21,0-2.32.53-2.32,1.37s.58,1.28,1.67,1.48l1.76.35c2.53.49,4.45,1.28,4.45,3.71,0,2.6-2.46,4.04-5.29,4.04-3.06,0-5.1-1.76-5.4-4.1h2.69c.26,1.3,1.16,2.02,2.81,2.02,1.46,0,2.5-.6,2.5-1.62s-.93-1.46-2.16-1.72l-1.88-.37c-2.11-.44-3.76-1.35-3.76-3.64s2.39-3.62,5.08-3.62c2.44,0,4.66,1.18,5.17,3.69h-2.6Z"></path><g id="Groupe_3" data-name="Groupe 3"><g id="Groupe_1" data-name="Groupe 1"><path id="Tracé_9" data-name="Tracé 9" d="M39.79,61.81a3.2,3.2,0,0,0-3.43-2.37c-1.37,0-3.18.53-3.18,2.04,0,1.23.95,1.88,2.34,2.13l1.76.32c2.04.37,4.31,1.07,4.31,3.43,0,2.48-2.25,3.8-4.96,3.8s-4.8-1.28-5.17-4.13h1.51c.26,1.95,1.88,2.85,3.78,2.85,1.51,0,3.39-.63,3.39-2.3,0-1.46-1.39-1.97-3.08-2.3l-1.95-.37c-1.79-.37-3.39-1.37-3.39-3.34s1.97-3.43,4.78-3.43,4.5,1.67,4.8,3.64H39.79Z"></path><path id="Tracé_10" data-name="Tracé 10" d="M45.61,54.06v2.3H44.17v-2.3Zm0,4.34V70.88H44.17V58.4h1.44Z"></path><path id="Tracé_11" data-name="Tracé 11" d="M50.29,60.51a4.32,4.32,0,0,1,4.15-2.32c2.95,0,4.2,1.76,4.2,4.82v7.86H57.2V63.4c0-2.34-.63-3.92-3.13-3.92-2.16,0-3.78,1.81-3.78,4.45v6.94H48.85V58.39h1.44V60.5Z"></path></g><g id="Groupe_2" data-name="Groupe 2"><path id="Tracé_12" data-name="Tracé 12" d="M68.66,56.96c0-2.04.53-2.78,2.9-2.78h1.02V55.5h-.72c-1.58,0-1.76.14-1.76,1.67v1.34h2.48v1.25H70.1V70.99H68.66V59.76H66.94V58.51h1.72V56.96Z"></path><path id="Tracé_13" data-name="Tracé 13" d="M79.93,59.97a2.055,2.055,0,0,0-.35-.02h-.3c-2.57,0-3.41,1.86-3.41,4.5v6.54H74.46V58.51h1.37v2.27a4.028,4.028,0,0,1,3.69-2.37h.19a.9.9,0,0,1,.23.02v1.53Z"></path><path id="Tracé_14" data-name="Tracé 14" d="M86.12,58.3c2.99,0,5.66,1.95,5.66,6.49s-2.67,6.49-5.66,6.49-5.64-1.95-5.64-6.49,2.67-6.49,5.64-6.49Zm0,11.67c2.39,0,4.13-1.58,4.13-5.17s-1.74-5.17-4.13-5.17-4.1,1.58-4.1,5.17S83.71,69.97,86.12,69.97Z"></path><path id="Tracé_15" data-name="Tracé 15" d="M95.49,60.62a4.32,4.32,0,0,1,4.15-2.32c2.95,0,4.2,1.76,4.2,4.82v7.86H102.4V63.51c0-2.34-.63-3.92-3.13-3.92-2.16,0-3.78,1.81-3.78,4.45v6.94H94.05V58.5h1.44v2.11Z"></path><path id="Tracé_16" data-name="Tracé 16" d="M107.29,55.7h1.46v2.81h2.46v1.25h-2.46v7.98c0,1.6.05,1.95,1.72,1.95h.74v1.3h-1.18c-2.23,0-2.74-.49-2.74-2.97V59.76h-2.06V58.51h2.06Z"></path><path id="Tracé_17" data-name="Tracé 17" d="M112.49,64.79c0-4.01,2.5-6.49,5.84-6.49s5.75,2.97,5.57,6.87h-9.93c.07,3.04,1.95,4.8,4.5,4.8a3.622,3.622,0,0,0,3.8-2.71h1.51a5.144,5.144,0,0,1-5.4,4.04c-3.64,0-5.89-2.62-5.89-6.49Zm1.53-.95h8.3a4.1,4.1,0,0,0-4.01-4.25C115.99,59.59,114.32,61.05,114.02,63.84Z"></path><path id="Tracé_18" data-name="Tracé 18" d="M131.65,59.97a2.055,2.055,0,0,0-.35-.02H131c-2.57,0-3.41,1.86-3.41,4.5v6.54h-1.41V58.51h1.37v2.27a4.028,4.028,0,0,1,3.69-2.37h.19a.9.9,0,0,1,.23.02v1.53Z"></path><path id="Tracé_19" data-name="Tracé 19" d="M141.01,69.09a5.151,5.151,0,0,1-4.68,2.2c-2.31,0-4.13-1.34-4.13-3.41,0-2.85,2.78-3.85,8.79-4.48v-.44c0-2.85-1.69-3.46-3.48-3.46-2.13,0-3.39,1.16-3.5,2.81H132.5c.35-2.48,2.3-4.08,5.1-4.08s4.82,1.21,4.82,4.92c0,1.74-.02,2.85-.02,3.85,0,1.41.07,2.62.14,3.99h-1.46l-.07-1.9Zm-4.36.93c2.32,0,4.41-1.21,4.41-4.73v-.6c-5.06.56-7.26,1.25-7.26,3.18,0,1.32,1.18,2.16,2.85,2.16Z"></path><path id="Tracé_20" data-name="Tracé 20" d="M152.68,61.92a3.2,3.2,0,0,0-3.43-2.37c-1.37,0-3.18.53-3.18,2.04,0,1.23.95,1.88,2.34,2.13l1.76.32c2.04.37,4.31,1.07,4.31,3.43,0,2.48-2.25,3.8-4.96,3.8s-4.8-1.28-5.17-4.13h1.51c.26,1.95,1.88,2.85,3.78,2.85,1.51,0,3.39-.63,3.39-2.3,0-1.46-1.39-1.97-3.08-2.3L148,65.02c-1.79-.37-3.39-1.37-3.39-3.34s1.97-3.43,4.78-3.43,4.5,1.67,4.8,3.64h-1.51Z"></path></g></g><g id="Groupe_4" data-name="Groupe 4"><path id="Tracé_21" data-name="Tracé 21" d="M40.74,91.45a4.2,4.2,0,0,1-4.38,3.51c-2.96,0-4.59-2.24-4.59-5.36s1.67-5.34,4.63-5.34a4.164,4.164,0,0,1,4.29,3.51h-1a3.257,3.257,0,0,0-3.32-2.59c-2.04,0-3.59,1.58-3.59,4.43s1.47,4.45,3.59,4.45a3.24,3.24,0,0,0,3.36-2.59h1Z"></path><path id="Tracé_22" data-name="Tracé 22" d="M46.92,93.6a3.165,3.165,0,0,1-2.88,1.35,2.263,2.263,0,0,1-2.54-2.09c0-1.75,1.71-2.37,5.4-2.75v-.27a1.866,1.866,0,0,0-2.14-2.12,1.9,1.9,0,0,0-2.15,1.72h-.93a2.918,2.918,0,0,1,3.14-2.51c1.73,0,2.96.74,2.96,3.02,0,1.07-.01,1.75-.01,2.37,0,.87.04,1.61.08,2.45h-.9l-.04-1.17Zm-2.68.57c1.43,0,2.71-.74,2.71-2.91v-.37c-3.11.34-4.46.77-4.46,1.95,0,.81.73,1.33,1.75,1.33Z"></path><path id="Tracé_23" data-name="Tracé 23" d="M50.38,88.4a2.639,2.639,0,0,1,2.55-1.43c1.81,0,2.58,1.08,2.58,2.96v4.83h-.88V90.17c0-1.44-.38-2.41-1.92-2.41a2.456,2.456,0,0,0-2.32,2.74v4.26h-.88V87.09h.88v1.3Z"></path><path id="Tracé_24" data-name="Tracé 24" d="M62.1,93.6a3.165,3.165,0,0,1-2.88,1.35,2.263,2.263,0,0,1-2.54-2.09c0-1.75,1.71-2.37,5.4-2.75v-.27a1.866,1.866,0,0,0-2.14-2.12,1.9,1.9,0,0,0-2.15,1.72h-.93a2.915,2.915,0,0,1,3.13-2.51c1.72,0,2.96.74,2.96,3.02,0,1.07-.01,1.75-.01,2.37,0,.87.04,1.61.09,2.45h-.9l-.04-1.17Zm-2.68.57c1.42,0,2.71-.74,2.71-2.91v-.37c-3.11.34-4.46.77-4.46,1.95,0,.81.73,1.33,1.75,1.33Z"></path><path id="Tracé_25" data-name="Tracé 25" d="M67.27,86.97a2.9,2.9,0,0,1,2.59,1.45V84.43h.88V94.76h-.88V93.51a2.919,2.919,0,0,1-2.59,1.44c-1.77,0-3.21-1.44-3.21-3.99s1.44-3.99,3.21-3.99Zm.19.8c-1.42,0-2.44,1.15-2.44,3.19s1.01,3.19,2.44,3.19c1.15,0,2.47-.91,2.47-3.19S68.62,87.77,67.46,87.77Z"></path><path id="Tracé_26" data-name="Tracé 26" d="M77.56,93.6a3.165,3.165,0,0,1-2.88,1.35,2.263,2.263,0,0,1-2.54-2.09c0-1.75,1.71-2.37,5.4-2.75v-.27a1.866,1.866,0,0,0-2.14-2.12,1.9,1.9,0,0,0-2.15,1.72h-.93a2.918,2.918,0,0,1,3.14-2.51c1.73,0,2.96.74,2.96,3.02,0,1.07-.01,1.75-.01,2.37,0,.87.04,1.61.08,2.45h-.9l-.04-1.17Zm-2.68.57c1.43,0,2.71-.74,2.71-2.91v-.37c-3.11.34-4.46.77-4.46,1.95,0,.81.73,1.33,1.75,1.33Zm.84-8.08h-.78l1.28-1.65h1.35Z"></path></g></g></svg> 