<?xml version="1.0" encoding="utf-8"?>
<svg xmlns="http://www.w3.org/2000/svg" width="654.462" height="536.656" viewBox="0 0 654.462 536.656">
  <g id="Group_270" data-name="Group 270" transform="translate(-382.833 -155.059)">
    <g id="Group_215" data-name="Group 215" transform="translate(3078.842 5353.476)">
      <path id="Path_464" data-name="Path 464" d="M-1690.4-4998.927l-7.11,1.221s-.043,8.909-.119,11.849c-.115,4.441-.724,12.2-.724,12.2s3.49-.132,4.428.337,9.611,12.284,9.611,12.284h6.165a29.619,29.619,0,0,0-.008-8.088c-.8-4.084-3.215-7.3-1.22-7.891s8.5.608,8.5.608-1.028-18.283-.717-21.59c.553-5.88,2.167-16,2.147-15.188,0,0-1.755,2.561-3.588,3.1a38.515,38.515,0,0,1-3.944.829s.276,4.378,0,4.745c-2.059,2.74-4.8,5.838-6.571,6.284C-1685.717-4997.685-1690.4-4998.927-1690.4-4998.927Z" transform="translate(-373.842 -69.329)" fill="#e9e1df"/>
      <path id="Path_465" data-name="Path 465" d="M-1717.264-5094.352a4.418,4.418,0,0,1-5.114,2.964c-3.989-.7-9.358-1.057-9.358-1.057l-4.224,7.174s-7.6-1.184-7.024,1.433a24.983,24.983,0,0,0,2.8,6.152l.469,1.8s-2.285,5.667-.469,7.076c2.069,1.6,10.555-2.477,13.627-3.424a3.6,3.6,0,0,1,3.15.208,4.051,4.051,0,0,1,1.371,2.12c1.888,5.383-.312,6.694-.312,6.694a6.223,6.223,0,0,0-2.132,4.6c-.174,2.081,5.742.655,6.479,2.183s2.588,5.154,1.8,5.852c-1,.883-5.614,1.428-9.286,3.387-.73.389-2.079-1.225-2.079-1.225s-9.833-6.383-9.833-5.677-.67,8.582-.67,8.582l1.769,1.021a4.855,4.855,0,0,1,.938,4.136c-.2.981-2.707,2.944-2.707,2.944v7.057c1.7.83,6.227,2.66,7.256,1.847a33.484,33.484,0,0,1,4.811-2.354s2.823,2.972,4.8,2.675c2.1-.316,2.711-4.817,2.708-7.334,0-1.482.621-2.871,2.1-2.93,6.279-.256,2.64-3,2.128-3.158-1.1-.345-3.623-1.174-3.623-1.174l-.087-.7c-.588-1.511-.881-3.143,1.729-3.57l5.868.271a6.646,6.646,0,0,0,5.75,3.852c4.312.293,3.459-4.665,3.459-4.665s-.5-6.4,2.916-6.761c.7-.074,4.007.329,4.007.329s3.023-.7,5.194-8c.335-1.126-.411-2.373.792-7.514.682-2.916-1.209-5.646-1.478-7.759s-.023-5.2-1.594-5.875-3.972-.724-5.8-.822c-1.2-.064-2.685-.232-3.477-1.515l-2.846-4.1s-4.048,2.356-6.5,1.193c-2.909-1.378-3-6.122-3-6.122C-1714.928-5091.92-1717.264-5094.352-1717.264-5094.352Z" transform="translate(-357.099 -38.848)" fill="#e9e1df"/>
      <path id="Path_466" data-name="Path 466" d="M-2683.143-4938.369a27.9,27.9,0,0,0-1.761,4.577l1.761,2.464v4.575l2.113,5.985-3.873,3.52,1.936,6.337-1.936,15.84,137.641,173.9,330.2,59.139,28.162-28.866s4.929-13.729,3.169-19.714-2.464-15.84-2.464-17.247v-9.154l4.575-9.5s-1.056,1.056,0-3.873,12.321-21.825,14.433-31.682,5.28-23.233,5.28-23.233a58.809,58.809,0,0,1,4.928-6.688c1.76-1.76,4.928-1.76,5.633-7.393s-2.112-14.432,3.872-19.713,8.8-5.632,7.744-12.32,5.012-14.081.219-16.193-14.3-4.928-13.595-8.1a13.122,13.122,0,0,1,3.168-5.632l12.3-2.111s1.082-4.577,4.25-5.281,10.56-.352,10.56-.352l4.225,2.815,4.928-3.519s5.28,4.576,8.1,3.519,16.193-7.392,18.305-8.1a29.7,29.7,0,0,1,6.688-.7v-4.224l-4.576-7.041s-3.872-14.081-5.28-14.081-7.393,1.76-7.393,1.76,0,2.816-2.465,2.464a25.438,25.438,0,0,1-6.336-2.464s-3.168,2.816-4.577,1.056-3.521-4.928-1.407-7.744,5.984-9.505,6.336-13.026-3.168-9.856-3.168-9.856a5.009,5.009,0,0,1-2.112-4.929c.352-3.52.352-8.448-1.056-10.913s-2.113-3.168-.352-4.927,1.76-5.282,2.816-7.746a17.015,17.015,0,0,1,3.168-4.576s-2.816-6.337-2.113-10.208.352-4.928-.7-9.857-4.225-11.265-1.761-13.377,11.264-14.786,14.433-14.786,13.638-.82,14.694.939,2.438,13.846,2.438,13.846-3.051-1.408-4.107-2.111-4.582.468-4.576,1.055c.019,1.944,2.957,5.342,4.646,7.3a14.686,14.686,0,0,1,2.225,3.461c1.566,3.41,4.754,10.1,5.8,10.358l1.408.352s8.331.47,8.1-.352a4.2,4.2,0,0,1,2.464-4.577,12.537,12.537,0,0,0,3.521-2.112v-4.929s.352-2.112,3.52-2.463,5.985-.587,7.627-3.4c2.023-3.467,1.174-2.23,3.638-3.638s6.549-3.495,4.929-6.923c-2.464-5.213.683-8.1.683-8.1l4.3-.167s-.731-4.169-1.275-3.941a1.5,1.5,0,0,1-1.563-.205,1.845,1.845,0,0,1,.352-3.1c.479-.272.736-1.2.317-4.442-.644-4.98-.491-5.936-1.452-19.836-.681-9.852,3.916-20.882,1.452-22.644s-4.577.706-2.816-3.519.352-11.265.7-15.137,1.76-5.632,0-9.856,0-7.041-2.464-8.449-7.392.352-8.8-1.761-3.168-4.575-3.168-4.575-3.218,1.826-5.977,1.359c-2.71-.459-3.528-6.289-3.528-6.289s-2.112,2.817-4.224,0-4.225-7.744-2.816-10.208,5.633-5.632,4.576-7.745-4.576-4.577-3.872-8.1,3.168-8.1,3.168-9.152v-9.857c0-2.816,1.761-5.984,2.113-8.1s-4.225-11.967-5.281-11.616-8.8,3.168-8.8,3.168l-3.168,17.952v4.227l-2.816,2.11-2.816,7.746s-7.745,10.912-6.337,11.616.7,3.167.7,3.167-.228,2.525-1.657,2.266c-1.29-.235-2.1-3.777-2.1-3.791.392-1.738-2.753,3.3-3.776,4.759a18.559,18.559,0,0,1-5.845,5.566c-5.632,3.168-17.954,8.1-19.713,10.914s-9.5,8.8-9.856,12.319.7,5.28.7,5.28l-10.561,2.112-5.633-2.463-2.581,9.153-19.6,20.77s-2.816,8.448-4.928,8.8-7.745,5.632-7.745,5.632c-1.056,2.112-21.473,29.921-22.881,31.329s-3.521,5.282-8.449,8.1-14.081,4.929-16.193,9.5-13.024,10.21-15.136,10.21-3.521,2.814-2.465,2.814,3.168,1.761,3.168,1.761l-2.112,4.224-8.8-2.816s0,1.057-3.872,5.632-5.632,5.632-5.632,5.632l4.224,2.816v2.816s1.056,1.409,0,2.464,4.576,1.76,2.464,3.168-7.392,0-6.336,1.409a43.982,43.982,0,0,0,3.168,3.52s-5.633.353-5.984,1.761,4.928,0,3.872,2.112-.352,7.744-3.168,9.5-13.025.7-10.913,2.112,9.153,2.463,8.1,4.577-5.984,10.434-5.984,10.434l-1.409-1.634s-2.112.8-3.872,1.634-2.816-1.634-1.76.831a30.855,30.855,0,0,0,2.816,4.929l-6.337-1.057a15.946,15.946,0,0,0-3.52,8.972c-.352,5.462-4.576,9.334-8.1,10.037l-3.521.7,1.76,3.521s-6.688,1.408-7.744.352,1.408-.352-1.056-1.056-.352,1.76-1.76,1.76-6.336-.352-5.984.7-11.969-8.448-13.025-11.616l-1.056-3.169-6.336,3.874s-5.281,2.464,1.408,4.576a20.321,20.321,0,0,1,10.208,7.745l2.112,2.464s-4.928,1.759-4.224,2.815,0,3.168,0,3.168l-19.714,6.337s-8.448,3.52-9.5,4.224-6.337,3.873-10.561,3.521-7.04-.353-7.04-.353-10.209.705-13.729,0-5.632,2.464-8.449,2.464-11.264.353-11.264.353l-6.336-6.689s-6.688-.353-7.393-1.76-3.521-3.168-3.521-3.168l-4.224,2.464-7.04-.353s-1.056,1.409-2.113,1.057-3.52-3.168-3.52-1.76,1.407,3.52-.7,3.872-3.872-.7-5.28-1.057-1.76,2.465-4.225-.351-5.28-6.688-5.28-6.688-7.744-4.225-9.5-3.168-.7,3.872-.7,3.872l-1.76.352s-7.744.352-10.56,2.113-6.336,0-8.1-1.057l-1.76-1.056s-4.224,2.816-7.392,2.113l-3.168-.7-5.28.7-3.872-2.113s-5.633,4.576-8.1,2.816l-2.465-1.761-5.984-1.408-2.464,1.76s-1.408-4.928-3.52-4.928h-2.112l1.056-3.873-4.576-1.055a13.714,13.714,0,0,0-1.408,3.871,10.669,10.669,0,0,0,.7,5.985s-8.449,5.28-10.913,5.28-7.744-.353-7.744-.353l1.056,3.873-6.336,4.225s-2.113-1.761-4.577.7-15.489,10.207-26.753,10.207-16.9-2.815-16.545-1.759-.352,3.872-.352,3.872l-8.1-4.928s-1.057-2.817-2.112-2.112-4.576.7-4.576.7l-6.337-1.76-1.056,2.816,2.816,2.465-2.112,2.815-2.465-1.056s.353-4.225-.7-4.225-9.153.7-10.208-1.057a8.728,8.728,0,0,0-3.168-2.815l-2.113-.353s-3.168-1.056-1.76-5.28,1.76-4.576,1.056-9.153a50.057,50.057,0,0,0-2.112-8.448s3.872-1.759,2.112-3.519l-1.76-1.761,2.113-3.52s-1.408-2.465-1.056-3.521a18.941,18.941,0,0,0,.352-3.872l-4.928-3.167s-5.281,3.872-4.225,6.336a18.164,18.164,0,0,1,1.056,5.983l-3.168,2.464s-.352-3.521-.352-4.576-2.112-5.984-2.112-5.984l-1.76,1.055,1.056,3.873-4.928,4.928.352-6.336s-1.76-4.576-1.76-5.633,2.463-5.992,1.76-6.869S-2683.143-4938.369-2683.143-4938.369Z" transform="translate(-4.011)" fill="none" stroke="#000" stroke-miterlimit="10" stroke-width="0.5"/>
      <path id="Path_467" data-name="Path 467" d="M-2457.2-4774.219a32.626,32.626,0,0,0-6.337,0s-1.408,4.575-1.76,5.982,4.048,8.1,4.048,8.1l4.048-1.408s4.576-7.4,3.168-9.685l-1.408-2.283Z" transform="translate(-86.327 -158.868)" fill="none" stroke="#000" stroke-miterlimit="10" stroke-width="0.5"/>
      <path id="Path_468" data-name="Path 468" d="M-2523.44-4819.175c-2.465.7-4.577,4.928-3.873,5.984s3.873,5.986,3.873,5.986l4.224-5.986Z" transform="translate(-63.036 -142.075)" fill="none" stroke="#000" stroke-miterlimit="10" stroke-width="0.5"/>
      <path id="Path_469" data-name="Path 469" d="M-2357.167-4774.376c-2.113,1.918,0,5.437,0,5.437s3.168.7,2.816,0S-2357.167-4774.376-2357.167-4774.376Z" transform="translate(-126.518 -158.868)" fill="none" stroke="#000" stroke-miterlimit="10" stroke-width="0.5"/>
      <path id="Path_470" data-name="Path 470" d="M-2349.62-4778.63c-2.112,0-2.437,2.66-2.437,2.66h2.437Z" transform="translate(-128.786 -157.274)" fill="none" stroke="#000" stroke-miterlimit="10" stroke-width="0.5"/>
      <path id="Path_471" data-name="Path 471" d="M-2331.711-4763.363l-1.055-.626s-1.408,3.168,0,3.521a6.549,6.549,0,0,0,2.816,0Z" transform="translate(-135.783 -162.763)" fill="none" stroke="#000" stroke-miterlimit="10" stroke-width="0.5"/>
      <path id="Path_472" data-name="Path 472" d="M-2312.75-4763.062a61.352,61.352,0,0,0-7.393,0l-4.576,1.213s-1.409,6.61,1.408,5.907,3.872,0,4.4-1.409.176-2.5,1.937-2.66a34.493,34.493,0,0,1,4.224,0l1.76,4.068,1.76-4.068Z" transform="translate(-138.902 -163.064)" fill="none" stroke="#000" stroke-miterlimit="10" stroke-width="0.5"/>
      <path id="Path_473" data-name="Path 473" d="M-2293.253-4757.351l-4.225,3.595,6.512,1.76Z" transform="translate(-149.246 -165.251)" fill="none" stroke="#000" stroke-miterlimit="10" stroke-width="0.5"/>
      <path id="Path_474" data-name="Path 474" d="M-2287.411-4743.153h-6.688l6.688,4.223h2.113Z" transform="translate(-150.513 -170.573)" fill="none" stroke="#000" stroke-miterlimit="10" stroke-width="0.5"/>
      <path id="Path_475" data-name="Path 475" d="M-2316.764-4725.7l-2.112,3.168,5.632,1.759Z" transform="translate(-141.225 -177.117)" fill="none" stroke="#000" stroke-miterlimit="10" stroke-width="0.5"/>
      <path id="Path_476" data-name="Path 476" d="M-2242.713-4765.179h-3.52v2.582l3.52,1.837Z" transform="translate(-168.456 -162.316)" fill="none" stroke="#000" stroke-miterlimit="10" stroke-width="0.5"/>
      <path id="Path_477" data-name="Path 477" d="M-2240.6-4740.731l2.816,3.168,4.576-1.583s9.857,2.993,11.265,4.048,8.448,0,8.448,0l2.816-9.153,1.76,6.688s7.041,3.52,8.1,2.465,3.52-4.343,3.52-4.343,4.928-3.754,3.52-4.811-4.224-4.576-5.984-4.224-5.984,1.709-6.688-.023-2.464-5.2-2.464-5.2l2.816-1.825-3.52-1.823-5.632,3.595h-3.872l-2.112,1.759-5.28.352Z" transform="translate(-170.567 -165.251)" fill="none" stroke="#000" stroke-miterlimit="10" stroke-width="0.5"/>
      <path id="Path_478" data-name="Path 478" d="M-2207.356-4766.74l-7.343-2.605v4.815l7.343.372Z" transform="translate(-180.277 -160.755)" fill="none" stroke="#000" stroke-miterlimit="10" stroke-width="0.5"/>
      <path id="Path_479" data-name="Path 479" d="M-2144.307-4744.844h-3.169l-3.872,3.541-2.816,1.74s-3.168,3.52,0,4.224a14.469,14.469,0,0,0,5.984,0l3.873-4.224,3.873-1.74Z" transform="translate(-202.443 -169.94)" fill="none" stroke="#000" stroke-miterlimit="10" stroke-width="0.5"/>
      <path id="Path_480" data-name="Path 480" d="M-2110.589-4791.221l-4.225,1.886-1.76,2.465h-6.336l12.321,6.179v-10.529Z" transform="translate(-214.687 -152.554)" fill="none" stroke="#000" stroke-miterlimit="10" stroke-width="0.5"/>
      <path id="Path_481" data-name="Path 481" d="M-2093.838-4783.769l-3.169-1.619s0,4.224,1.584,4.224,3.7,2.661,3.7,2.661-3.521,1.555-2.641,3.143a7.866,7.866,0,0,0,2.641,2.594l4.224-6.311Z" transform="translate(-224.397 -154.741)" fill="none" stroke="#000" stroke-miterlimit="10" stroke-width="0.5"/>
      <path id="Path_482" data-name="Path 482" d="M-2116.908-4775.292l-4.752,3.448s-2.464,3.618-1.408,3.618,2.949,1.838,2.949,1.838l5.852,5.906a35.2,35.2,0,0,0,3.52-1.77c.352-.342,3.872,1.4,3.872,0S-2116.908-4775.292-2116.908-4775.292Z" transform="translate(-214.529 -158.525)" fill="none" stroke="#000" stroke-miterlimit="10" stroke-width="0.5"/>
      <path id="Path_483" data-name="Path 483" d="M-2082.188-4816.359l-7.217,10.209,7.217,5.505,4.928,1.887,7.04-1.887-3.872-2.69s-6.864,0-5.721-1.408,0-9.5,0-9.5Z" transform="translate(-227.247 -143.13)" fill="none" stroke="#000" stroke-miterlimit="10" stroke-width="0.5"/>
      <path id="Path_484" data-name="Path 484" d="M-2071.1-4824.241c1.057-1.408,7.745-8.448,7.745-8.448v8.448s-6.688,1.057-3.872,1.761,3.872,4.223,3.872,4.223l-3.872-2.112Z" transform="translate(-234.107 -137.009)" fill="none" stroke="#000" stroke-miterlimit="10" stroke-width="0.5"/>
      <path id="Path_485" data-name="Path 485" d="M-2047.536-4842.826s-10.208,3.52-7.04,3.52h9.153Z" transform="translate(-240.075 -133.209)" fill="none" stroke="#000" stroke-miterlimit="10" stroke-width="0.5"/>
      <path id="Path_486" data-name="Path 486" d="M-2033.937-4840.011h-5.632l2.816,7.041h2.816Z" transform="translate(-245.929 -134.264)" fill="none" stroke="#000" stroke-miterlimit="10" stroke-width="0.5"/>
      <path id="Path_487" data-name="Path 487" d="M-2046.677-4828.749h-5.281s2.113,1.759,2.641,2.112,7.92,1.409,7.92,1.409Z" transform="translate(-241.285 -138.486)" fill="none" stroke="#000" stroke-miterlimit="10" stroke-width="0.5"/>
      <path id="Path_488" data-name="Path 488" d="M-2279.245-4791.222c-1.056.126-5.28,0-5.28,0l2.816,5.265Z" transform="translate(-154.102 -152.554)" fill="none" stroke="#000" stroke-miterlimit="10" stroke-width="0.5"/>
      <path id="Path_489" data-name="Path 489" d="M-2589.172-4751.6c-1.056,0-4.224,1.76-4.224,1.76s-1.057,2.816,0,3.521l1.056.7Z" transform="translate(-38.138 -167.407)" fill="none" stroke="#000" stroke-miterlimit="10" stroke-width="0.5"/>
      <path id="Path_490" data-name="Path 490" d="M-2597.808-4736.991s-.7,4.518,0,4.909a17.474,17.474,0,0,1,2.347,2.151l2.346-3.53-2.346-3.158Z" transform="translate(-36.543 -172.883)" fill="none" stroke="#000" stroke-miterlimit="10" stroke-width="0.5"/>
      <path id="Path_491" data-name="Path 491" d="M-2692.787-4794.961l-2.816,2.338,4.928,3.646,1.76-2.993Z" transform="translate(0 -151.152)" fill="none" stroke="#000" stroke-miterlimit="10" stroke-width="0.5"/>
      <path id="Path_492" data-name="Path 492" d="M-1832.435-4885.967h-11.289l-9.153-2.934-13.553,7.685-10.033,4.226-5.809,6.864s-10.032-4.4-14.257-3.521a75.631,75.631,0,0,0-10.56,3.521s-14.785,2.112-14.785,0-19.714-54.916-19.714-54.916" transform="translate(-282.66 -102.388)" fill="none" stroke="#000" stroke-miterlimit="10" stroke-width="0.5"/>
      <path id="Path_493" data-name="Path 493" d="M-1872.783-5007.9l8.384,2.087,5.809-3.7s3.4,4.87,4.987,5.4a15.794,15.794,0,0,1,7.041,3.753,82.08,82.08,0,0,1,6.981,8.274h4.225l5.328,23.311s-6.9,5.181-4.789,10.461,6.325,3.951,6.325,3.951l-1.877,6.572s4.517,11.675,4.517,13.259-1.232,13.964-1.232,13.964" transform="translate(-308.453 -70.724)" fill="none" stroke="#000" stroke-miterlimit="10" stroke-width="0.5"/>
      <path id="Path_494" data-name="Path 494" d="M-1847.8-5044.422c.938,0,19.244,4.927,19.244,4.927l-1.643,9.623-19.948-1.877-4.694,1.877-6.21-1.3" transform="translate(-312.853 -57.636)" fill="none" stroke="#000" stroke-miterlimit="10" stroke-width="0.5"/>
      <path id="Path_495" data-name="Path 495" d="M-1835.246-5067.611l7.213,1.877s5.164,4.225,6.806,4.694,5.632.939,7.275,1.643,12.908,8.449,12.908,9.388-1.877,12.438,4.459,13.141,15.489-.234,15.254-3.754a64.685,64.685,0,0,1,0-7.276l-6.575-7.273s3.05-3.756,2.112-4.459-5.583-4.459-6.781-6.1-1.2-14.081-1.668-14.785-4.694.939-3.99-5.162,2.347-6.807.7-6.1-6.336-.22-6.336-.22l-1.183-.5" transform="translate(-322.524 -39.611)" fill="none" stroke="#000" stroke-miterlimit="10" stroke-width="0.5"/>
      <path id="Path_496" data-name="Path 496" d="M-1719.427-5094.541s-1.557,4.585-7.979,2.7a17.43,17.43,0,0,0-6.571-.6l-4.224,7.174s-7.041-.939-7.041,1.173,3.52,6.572,3.286,8.214-3.051,7.04.7,7.509,14.081-6.336,15.958-3.52,2.582,7.509.7,8.683-2.582,4.458-1.878,5.4,5.633-.234,6.571,1.878,3.286,5.633,0,6.1a37.372,37.372,0,0,0-8.214,2.815s-8.214-6.1-10.091-6.571-4.694-2.346-5.163-.939.7,10.326-.7,9.153a56.666,56.666,0,0,0-4.923-3.286" transform="translate(-354.859 -38.848)" fill="none" stroke="#000" stroke-miterlimit="10" stroke-width="0.5"/>
      <path id="Path_497" data-name="Path 497" d="M-1686.081-5042.169s-2.8,8.682-6.082,7.744-5.163-.236-5.867,3.286,1.173,7.743-3.286,7.978-6.1-3.989-6.1-3.989-6.336-.939-7.51.468,0,3.53,0,3.53,3.521.929,3.99,1.4,2.347,1.878.235,2.583-4.8,0-4.746,2.346a11.314,11.314,0,0,1-.652,4.577c-.341,1.333.049,2.849-1.84,3.563-2.2.831-5.1-2.545-5.1-2.545l-5.352,2.621-6.715-2.112v-7.058s2.715-1.628,2.816-3.5c.234-4.354-2.816-4.354-2.816-4.354l.67-8.826" transform="translate(-360.063 -58.481)" fill="none" stroke="#000" stroke-miterlimit="10" stroke-width="0.5"/>
      <path id="Path_498" data-name="Path 498" d="M-1736.926-5015.723a3,3,0,0,0-3.03,3.121c0,2.993,3.03,4.735,3.03,4.735" transform="translate(-358.246 -68.394)" fill="none" stroke="#000" stroke-miterlimit="10" stroke-width="0.5"/>
      <path id="Path_499" data-name="Path 499" d="M-1738.205-4991.864l-3.989,8.1s4.107,3.4,3.989,5.046-5.163,9.387-5.163,9.856,6.1,16.481,6.1,16.481" transform="translate(-356.967 -77.339)" fill="none" stroke="#000" stroke-miterlimit="10" stroke-width="0.5"/>
      <path id="Path_500" data-name="Path 500" d="M-1680.5-4945.578s-2.933-5.632-7.862-5.75-10.561-1.525-7.627-6.1c1.588-2.477,1.76-5.4-.118-8.566s-5.515-5.044-2.933-7.627c.938-.937.938-24.232.938-24.232l6.923-1.348-.85-14.427" transform="translate(-373.248 -69.179)" fill="none" stroke="#000" stroke-miterlimit="10" stroke-width="0.5"/>
      <path id="Path_501" data-name="Path 501" d="M-1673.262-5029.679s.943.758.943,3.69v15.02s-3.989,6.57-6.571,6.57a51.968,51.968,0,0,1-7.04-.821" transform="translate(-378.498 -63.163)" fill="none" stroke="#000" stroke-miterlimit="10" stroke-width="0.5"/>
      <path id="Path_502" data-name="Path 502" d="M-1664.156-5009.233a11.5,11.5,0,0,0,4.673-1.211,10.362,10.362,0,0,0,2.858-2.714" transform="translate(-386.661 -69.356)" fill="none" stroke="#000" stroke-miterlimit="10" stroke-width="0.5"/>
      <path id="Path_503" data-name="Path 503" d="M-1670.567-4954.75s-8.695-1.694-9.4-.287,2.23,6.338,1.995,10.209-.234,5.4-.234,5.4h-6.806s-7.862-12.086-9.388-12.556a10.249,10.249,0,0,0-4.107.118" transform="translate(-373.784 -90.934)" fill="none" stroke="#000" stroke-miterlimit="10" stroke-width="0.5"/>
      <path id="Path_504" data-name="Path 504" d="M-1678.516-4929.734s-3.754,2.453-2.345,4.449,4.81,3.3,4.81,3.3l9.5-.117" transform="translate(-380.28 -100.629)" fill="none" stroke="#000" stroke-miterlimit="10" stroke-width="0.5"/>
      <line id="Line_2" data-name="Line 2" x2="5.066" y2="3.656" transform="translate(-2052.764 -5031.605)" fill="none" stroke="#000" stroke-miterlimit="10" stroke-width="0.5"/>
      <path id="Path_505" data-name="Path 505" d="M-1700.113-4897.729h-13.08l-7.275-7.041" transform="translate(-365.551 -109.987)" fill="none" stroke="#000" stroke-miterlimit="10" stroke-width="0.5"/>
      <line id="Line_3" data-name="Line 3" y1="3.149" x2="1.823" transform="translate(-2058.155 -5022.619)" fill="none" stroke="#000" stroke-miterlimit="10" stroke-width="0.5"/>
      <line id="Line_4" data-name="Line 4" y1="13.025" x2="3.286" transform="translate(-2082.03 -5007.716)" fill="none" stroke="#000" stroke-miterlimit="10" stroke-width="0.5"/>
    </g>
    <g id="Ellipse_13" data-name="Ellipse 13" transform="translate(1018 283)" fill="#212121" stroke="#fff" stroke-width="1">
      <circle cx="6.5" cy="6.5" r="6.5" stroke="none"/>
      <circle cx="6.5" cy="6.5" r="6" fill="none"/>
    </g>
  </g>
</svg>
