<?xml version="1.0" encoding="utf-8"?>
<!-- Generator: Adobe Illustrator 24.3.0, SVG Export Plug-In . SVG Version: 6.00 Build 0)  -->
<svg version="1.1" id="Layer_1" xmlns="http://www.w3.org/2000/svg" xmlns:xlink="http://www.w3.org/1999/xlink" x="0px" y="0px"
	 viewBox="0 0 37 37" style="enable-background:new 0 0 37 37;" xml:space="preserve">
<style type="text/css">
	.st0{fill:none;stroke:#010202;stroke-width:0.8;stroke-linecap:round;stroke-miterlimit:10;}
</style>
<g>
	<g>
		<line class="st0" x1="8.6" y1="6.8" x2="18.2" y2="12.7"/>
		<path class="st0" d="M18.2,24.3"/>
		<path class="st0" d="M27.8,18.4"/>
		<polyline class="st0" points="18.2,24.3 18.2,12.7 27.8,6.8 		"/>
		<line class="st0" x1="8.5" y1="6.6" x2="18.1" y2="0.7"/>
		<line class="st0" x1="27.6" y1="6.6" x2="18" y2="0.7"/>
	</g>
	<g>
		<line class="st0" x1="27.7" y1="18.2" x2="27.6" y2="6.7"/>
		<line class="st0" x1="8.7" y1="18.2" x2="8.6" y2="6.7"/>
	</g>
</g>
<g>
	<g>
		<line class="st0" x1="8.6" y1="18.6" x2="18.2" y2="24.6"/>
		<line class="st0" x1="18.2" y1="36.1" x2="8.6" y2="30.2"/>
		<line class="st0" x1="27.8" y1="30.2" x2="18.2" y2="36.1"/>
		<polyline class="st0" points="18.2,36.1 18.2,24.6 27.8,18.6 		"/>
		<line class="st0" x1="8.5" y1="18.4" x2="18.1" y2="12.5"/>
		<line class="st0" x1="27.6" y1="18.4" x2="18" y2="12.5"/>
	</g>
	<g>
		<line class="st0" x1="27.7" y1="30" x2="27.6" y2="18.5"/>
		<line class="st0" x1="8.7" y1="30" x2="8.6" y2="18.5"/>
	</g>
</g>
</svg>
