<?xml version="1.0" encoding="utf-8"?>
<!-- Generator: Adobe Illustrator 24.3.0, SVG Export Plug-In . SVG Version: 6.00 Build 0)  -->
<svg version="1.1" id="Layer_1" xmlns="http://www.w3.org/2000/svg" xmlns:xlink="http://www.w3.org/1999/xlink" x="0px" y="0px"
	 viewBox="0 0 37 37" style="enable-background:new 0 0 37 37;" xml:space="preserve">
<style type="text/css">
	.st0{fill:none;stroke:#010202;stroke-width:0.8;stroke-linecap:round;stroke-miterlimit:10;}
</style>
<g>
	<path class="st0" d="M202,51.4h-7.4c-4,0-7.3-3.3-7.3-7.3v-9c0-5.1,4.2-9.3,9.3-9.3h0c5.1,0,9.3,4.2,9.3,9.3v7l-3.8,0V51.4z"/>
	<path class="st0" d="M180.1,57.7h7.4c4,0,7.3-3.3,7.3-7.3v-9c0-5.1-4.2-9.3-9.3-9.3h0c-5.1,0-9.3,4.2-9.3,9.3v7l3.8,0V57.7z"/>
</g>
<g>
	<path class="st0" d="M31.6,18.5c0,0-5.9,9.7-13.1,9.7S5.4,18.5,5.4,18.5s5.9-9.7,13.1-9.7S31.6,18.5,31.6,18.5z"/>
	<circle class="st0" cx="18.5" cy="18.5" r="4.4"/>
	<line class="st0" x1="18.5" y1="0.8" x2="18.5" y2="14.1"/>
	<line class="st0" x1="31.8" y1="5.7" x2="22.4" y2="15"/>
	<line class="st0" x1="5.2" y1="5.7" x2="14.5" y2="15"/>
	<line class="st0" x1="18.5" y1="36.1" x2="18.5" y2="22.9"/>
	<line class="st0" x1="5.2" y1="31.3" x2="14.5" y2="21.9"/>
	<line class="st0" x1="31.8" y1="31.3" x2="22.4" y2="21.9"/>
</g>
</svg>
