<?xml version="1.0" encoding="UTF-8"?> <svg xmlns="http://www.w3.org/2000/svg" width="155.41" height="64.02" viewBox="0 0 155.41 64.02"><g id="ASFC_LOGO_EN" transform="translate(-29.73 -30.83)"><g id="Groupe_4" data-name="Groupe 4"><path id="Tracé_28" data-name="Tracé 28" d="M32.79,45.17h8.47v2.48H29.85V30.83H32.8V45.16Z"></path><path id="Tracé_29" data-name="Tracé 29" d="M41.84,44.22c0-3.13,3.85-3.87,8.4-4.36v-.23c0-2.13-1.21-2.78-2.6-2.78a2.251,2.251,0,0,0-2.5,2.25H42.43c.19-2.53,2.3-4.29,5.31-4.29s5.33,1.37,5.26,5.36c0,.6-.05,2.09-.05,3.22a20.663,20.663,0,0,0,.37,4.27H50.79a14.782,14.782,0,0,1-.23-1.69,4.41,4.41,0,0,1-4.1,1.99c-2.71,0-4.62-1.46-4.62-3.73Zm8.47-2.44c-3.94.37-5.54.95-5.54,2.37,0,1.09.9,1.74,2.3,1.74,2.04,0,3.25-1.02,3.25-3.15v-.95Z"></path><path id="Tracé_30" data-name="Tracé 30" d="M61.06,35.17h2.85l2.16,8.86,1.83-8.86h2.99L67.57,47.65H64.95l-2.46-9.23-2.46,9.23H57.41L54.09,35.17h2.99l1.83,8.86,2.13-8.86Z"></path><path id="Tracé_31" data-name="Tracé 31" d="M71.85,51.71V49.6h1.04c1.21,0,1.72-.09,2.27-1.72l.14-.3L70.78,35.17H73.8l2.83,8.95,2.83-8.95h2.83L77.91,47.63c-1.18,3.22-2,4.08-4.8,4.08H71.86Z"></path><path id="Tracé_32" data-name="Tracé 32" d="M85.58,42.2a3.456,3.456,0,0,0,3.39,3.46,3.019,3.019,0,0,0,3.06-1.74h2.71a5.656,5.656,0,0,1-5.66,4.04c-4.01,0-6.31-3.04-6.31-6.63a6.142,6.142,0,0,1,6.12-6.42c3.83,0,6.24,3.13,5.98,7.31h-9.3Zm0-2.02h6.49a3.134,3.134,0,0,0-3.18-3.13,3.285,3.285,0,0,0-3.32,3.13Z"></path><path id="Tracé_33" data-name="Tracé 33" d="M103.74,37.98a12.184,12.184,0,0,0-1.32-.07c-1.74,0-2.74.7-2.74,3.2v6.54H96.92V35.17h2.71V37.4a3.737,3.737,0,0,1,3.39-2.25,5.808,5.808,0,0,1,.72.05Z"></path><path id="Tracé_34" data-name="Tracé 34" d="M112.36,38.58c-.3-1.14-1.35-1.58-2.74-1.58-1.21,0-2.32.53-2.32,1.37s.58,1.28,1.67,1.48l1.76.35c2.53.49,4.45,1.28,4.45,3.71,0,2.6-2.46,4.04-5.29,4.04-3.06,0-5.1-1.76-5.4-4.1h2.69c.26,1.3,1.16,2.02,2.81,2.02,1.46,0,2.5-.6,2.5-1.62s-.93-1.46-2.16-1.72l-1.88-.37c-2.11-.44-3.76-1.35-3.76-3.64s2.39-3.62,5.08-3.62c2.44,0,4.66,1.18,5.17,3.69h-2.6Z"></path></g><g id="Groupe_5" data-name="Groupe 5"><path id="Tracé_35" data-name="Tracé 35" d="M38.9,91.34a4.2,4.2,0,0,1-4.38,3.51c-2.96,0-4.59-2.24-4.59-5.36s1.67-5.34,4.63-5.34a4.164,4.164,0,0,1,4.29,3.51h-1a3.257,3.257,0,0,0-3.32-2.59c-2.04,0-3.59,1.58-3.59,4.43s1.47,4.45,3.59,4.45a3.24,3.24,0,0,0,3.36-2.59h1Z"></path><path id="Tracé_36" data-name="Tracé 36" d="M45.07,93.49a3.165,3.165,0,0,1-2.88,1.35,2.263,2.263,0,0,1-2.54-2.09c0-1.75,1.71-2.37,5.4-2.75v-.27a1.866,1.866,0,0,0-2.14-2.12,1.9,1.9,0,0,0-2.15,1.72h-.93a2.918,2.918,0,0,1,3.14-2.51c1.73,0,2.96.74,2.96,3.02,0,1.07-.01,1.75-.01,2.37,0,.87.04,1.61.08,2.45h-.9l-.04-1.17Zm-2.68.57c1.43,0,2.71-.74,2.71-2.91v-.37c-3.11.34-4.46.77-4.46,1.95,0,.81.73,1.33,1.75,1.33Z"></path><path id="Tracé_37" data-name="Tracé 37" d="M48.54,88.29a2.639,2.639,0,0,1,2.55-1.43c1.81,0,2.58,1.08,2.58,2.96v4.83h-.88V90.06c0-1.44-.38-2.41-1.92-2.41a2.456,2.456,0,0,0-2.32,2.74v4.26h-.88V86.98h.88v1.3Z"></path><path id="Tracé_38" data-name="Tracé 38" d="M60.25,93.49a3.165,3.165,0,0,1-2.88,1.35,2.263,2.263,0,0,1-2.54-2.09c0-1.75,1.71-2.37,5.4-2.75v-.27a1.866,1.866,0,0,0-2.14-2.12,1.9,1.9,0,0,0-2.15,1.72h-.93a2.915,2.915,0,0,1,3.13-2.51c1.72,0,2.96.74,2.96,3.02,0,1.07-.01,1.75-.01,2.37,0,.87.04,1.61.09,2.45h-.9l-.04-1.17Zm-2.68.57c1.42,0,2.71-.74,2.71-2.91v-.37c-3.11.34-4.46.77-4.46,1.95,0,.81.73,1.33,1.75,1.33Z"></path><path id="Tracé_39" data-name="Tracé 39" d="M65.43,86.86a2.9,2.9,0,0,1,2.59,1.45V84.32h.88V94.65h-.88V93.4a2.919,2.919,0,0,1-2.59,1.44c-1.77,0-3.21-1.44-3.21-3.99s1.44-3.99,3.21-3.99Zm.19.8c-1.42,0-2.44,1.15-2.44,3.19s1.01,3.19,2.44,3.19c1.15,0,2.47-.91,2.47-3.19S66.78,87.66,65.62,87.66Z"></path><path id="Tracé_40" data-name="Tracé 40" d="M75.72,93.49a3.165,3.165,0,0,1-2.88,1.35,2.263,2.263,0,0,1-2.54-2.09c0-1.75,1.71-2.37,5.4-2.75v-.27a1.866,1.866,0,0,0-2.14-2.12,1.9,1.9,0,0,0-2.15,1.72h-.93a2.918,2.918,0,0,1,3.14-2.51c1.73,0,2.96.74,2.96,3.02,0,1.07-.01,1.75-.01,2.37,0,.87.04,1.61.08,2.45h-.9l-.04-1.17Zm-2.68.57c1.43,0,2.71-.74,2.71-2.91v-.37c-3.11.34-4.46.77-4.46,1.95,0,.81.73,1.33,1.75,1.33Z"></path></g><g id="Groupe_6" data-name="Groupe 6"><path id="Tracé_41" data-name="Tracé 41" d="M37.09,58.39h1.43L41.7,68.54l2.65-10.15h1.59L42.35,70.77H41.02l-3.24-10.4-3.15,10.4H33.32L29.73,58.39h1.59l2.74,10.12,3.06-10.12Z"></path><path id="Tracé_42" data-name="Tracé 42" d="M49.03,54.09v2.28H47.6V54.09Zm0,4.3V70.77H47.6V58.39h1.43Z"></path><path id="Tracé_43" data-name="Tracé 43" d="M52.9,55.6h1.45v2.78h2.44v1.24H54.35v7.92c0,1.59.05,1.93,1.7,1.93h.74v1.29H55.62c-2.21,0-2.71-.48-2.71-2.95V59.62H50.86V58.38h2.05V55.6Z"></path><path id="Tracé_44" data-name="Tracé 44" d="M60.52,60.48a4.276,4.276,0,0,1,4.12-2.3c2.92,0,4.17,1.75,4.17,4.79v7.8H67.38V63.36c0-2.32-.62-3.89-3.11-3.89-2.14,0-3.75,1.79-3.75,4.42v6.88H59.09V54.09h1.43v6.4Z"></path><path id="Tracé_45" data-name="Tracé 45" d="M76.35,58.18c2.97,0,5.61,1.93,5.61,6.44s-2.65,6.44-5.61,6.44-5.59-1.93-5.59-6.44,2.65-6.44,5.59-6.44Zm0,11.57c2.37,0,4.1-1.56,4.1-5.13s-1.73-5.13-4.1-5.13-4.07,1.56-4.07,5.13S73.96,69.75,76.35,69.75Z"></path><path id="Tracé_46" data-name="Tracé 46" d="M91.93,68.77a4.256,4.256,0,0,1-3.98,2.3c-2.83,0-4.03-1.75-4.03-4.79V58.39h1.43v7.5c0,2.32.55,3.89,2.97,3.89,1.96,0,3.61-1.79,3.61-4.42V58.39h1.43V70.77H91.93Z"></path><path id="Tracé_47" data-name="Tracé 47" d="M97.23,55.6h1.45v2.78h2.44v1.24H98.68v7.92c0,1.59.05,1.93,1.7,1.93h.74v1.29H99.95c-2.21,0-2.71-.48-2.71-2.95V59.62H95.19V58.38h2.05V55.6Z"></path><path id="Tracé_48" data-name="Tracé 48" d="M108.97,54.09h5.68c3.01,0,5.64.83,5.64,4.21a3.886,3.886,0,0,1-2.16,3.68,3.716,3.716,0,0,1,2.85,3.98c0,3.45-2.55,4.81-5.8,4.81h-6.21V54.09Zm1.54,7.34h4.44c2.28,0,3.73-.74,3.73-3.04,0-2.02-1.43-2.9-3.66-2.9h-4.51v5.94Zm0,7.94h4.76c2.74,0,4.07-1.2,4.07-3.38s-1.33-3.22-4.21-3.22h-4.62Z"></path><path id="Tracé_49" data-name="Tracé 49" d="M128.18,58.18c2.97,0,5.61,1.93,5.61,6.44s-2.65,6.44-5.61,6.44-5.59-1.93-5.59-6.44,2.65-6.44,5.59-6.44Zm0,11.57c2.37,0,4.1-1.56,4.1-5.13s-1.73-5.13-4.1-5.13-4.07,1.56-4.07,5.13S125.79,69.75,128.18,69.75Z"></path><path id="Tracé_50" data-name="Tracé 50" d="M141.56,59.84a2.055,2.055,0,0,0-.35-.02h-.3c-2.55,0-3.38,1.84-3.38,4.46v6.49h-1.4V58.39h1.36v2.25a3.994,3.994,0,0,1,3.66-2.35h.18a.9.9,0,0,1,.23.02v1.52Z"></path><path id="Tracé_51" data-name="Tracé 51" d="M147.33,58.18a4.682,4.682,0,0,1,4.19,2.35V54.09h1.43V70.77h-1.43V68.75a4.716,4.716,0,0,1-4.19,2.32c-2.85,0-5.18-2.32-5.18-6.44s2.32-6.44,5.18-6.44Zm.3,1.29c-2.3,0-3.94,1.86-3.94,5.15s1.63,5.15,3.94,5.15c1.86,0,3.98-1.47,3.98-5.15S149.49,59.47,147.63,59.47Z"></path><path id="Tracé_52" data-name="Tracé 52" d="M155.28,64.62c0-3.98,2.49-6.44,5.8-6.44s5.71,2.95,5.52,6.81h-9.85c.07,3.01,1.93,4.76,4.46,4.76a3.607,3.607,0,0,0,3.77-2.69h1.5a5.094,5.094,0,0,1-5.36,4c-3.61,0-5.84-2.6-5.84-6.44Zm1.52-.94h8.24a4.061,4.061,0,0,0-3.98-4.21c-2.3,0-3.96,1.45-4.26,4.21Z"></path><path id="Tracé_53" data-name="Tracé 53" d="M174.36,59.84a2.055,2.055,0,0,0-.35-.02h-.3c-2.55,0-3.38,1.84-3.38,4.46v6.49h-1.4V58.39h1.36v2.25a3.994,3.994,0,0,1,3.66-2.35h.18a.9.9,0,0,1,.23.02v1.52Z"></path><path id="Tracé_54" data-name="Tracé 54" d="M183.35,61.77a3.184,3.184,0,0,0-3.41-2.35c-1.36,0-3.15.53-3.15,2.02,0,1.22.94,1.86,2.32,2.12l1.75.32c2.02.37,4.28,1.06,4.28,3.41,0,2.46-2.23,3.77-4.92,3.77s-4.76-1.27-5.13-4.1h1.5c.25,1.93,1.86,2.83,3.75,2.83,1.5,0,3.36-.62,3.36-2.28,0-1.45-1.38-1.96-3.06-2.28l-1.93-.37c-1.77-.37-3.36-1.36-3.36-3.31s1.96-3.41,4.74-3.41,4.46,1.66,4.76,3.61h-1.5Z"></path></g></g></svg> 