<?xml version="1.0" encoding="utf-8"?>
<!-- Generator: Adobe Illustrator 24.3.0, SVG Export Plug-In . SVG Version: 6.00 Build 0)  -->
<svg version="1.1" id="Layer_1" xmlns="http://www.w3.org/2000/svg" xmlns:xlink="http://www.w3.org/1999/xlink" x="0px" y="0px"
	 viewBox="0 0 37 37" style="enable-background:new 0 0 37 37;" xml:space="preserve">
<style type="text/css">
	.st0{fill:none;stroke:#010202;stroke-width:0.8;stroke-linecap:round;stroke-miterlimit:10;}
</style>
<line class="st0" x1="18.5" y1="2.3" x2="18.5" y2="34.6"/>
<path class="st0" d="M7.2,10.7c0-3.1,2.5-5.6,5.6-5.6s5.6,2.5,5.6,5.6"/>
<path class="st0" d="M18.5,10.7c0-3.1,2.5-5.6,5.6-5.6s5.6,2.5,5.6,5.6"/>
<path class="st0" d="M7.2,20.7c0-3.1,2.5-5.6,5.6-5.6s5.6,2.5,5.6,5.6"/>
<path class="st0" d="M18.5,20.7c0-3.1,2.5-5.6,5.6-5.6s5.6,2.5,5.6,5.6"/>
<path class="st0" d="M7.2,30.7c0-3.1,2.5-5.6,5.6-5.6s5.6,2.5,5.6,5.6"/>
<path class="st0" d="M18.5,30.7c0-3.1,2.5-5.6,5.6-5.6s5.6,2.5,5.6,5.6"/>
<line class="st0" x1="29.8" y1="20.7" x2="7.2" y2="20.7"/>
<line class="st0" x1="29.8" y1="10.7" x2="7.2" y2="10.7"/>
<line class="st0" x1="29.8" y1="30.7" x2="7.2" y2="30.7"/>
</svg>
