<svg xmlns="http://www.w3.org/2000/svg" width="157.223" height="49.993" viewBox="0 0 157.223 49.993"><defs><style>.a{fill:#161615;}</style></defs><g transform="translate(-21.186 -18.569)"><g transform="translate(21.186 18.569)"><path class="a" d="M104.39,18.576c-.052,0-.1,0-.154,0-.115,0-.23,0-.348,0-.05,0-.1,0-.151,0h-.1l.329,25.924h.2l.323-25.924Z" transform="translate(-65.931 -18.569)"/><path class="a" d="M110.186,19.012c-.216-.025-.431-.049-.65-.07l-.1-.009-2.388,25.819.21.022,3.029-25.752Z" transform="translate(-67.782 -18.767)"/><path class="a" d="M115.253,20.261c-.117-.026-.234-.053-.353-.076l-.1-.02L109.722,45.6l.208.047,5.708-25.3Z" transform="translate(-69.234 -19.435)"/><path class="a" d="M120.521,22.437c-.123-.043-.245-.085-.368-.123l-.1-.03-7.713,24.778.2.068,8.324-24.575Z" transform="translate(-70.656 -20.585)"/><path class="a" d="M125.565,25.47c-.11-.051-.221-.1-.332-.149l-.094-.041L114.874,49.129l.2.074,10.847-23.572Z" transform="translate(-72.03 -22.211)"/><path class="a" d="M130.657,29.481c-.188-.109-.376-.219-.565-.326L130,29.106,117.3,51.756l.189.1,13.26-22.319Z" transform="translate(-73.345 -24.287)"/><path class="a" d="M135.208,34.148c-.126-.094-.255-.184-.384-.275l-.23-.164L119.586,54.915l.173.123,15.532-20.827Z" transform="translate(-74.587 -26.785)"/><path class="a" d="M139.43,39.542c-.1-.089-.2-.173-.3-.259l-.273-.237L121.7,58.584l.161.138,17.641-19.111Z" transform="translate(-75.736 -29.682)"/><path class="a" d="M142.984,45.3l-.221-.237L123.641,62.72l.144.146L143.346,45.69l-.069-.077C143.18,45.506,143.082,45.4,142.984,45.3Z" transform="translate(-76.787 -32.945)"/><path class="a" d="M146.313,51.76l-.061-.082-20.9,15.591.135.157,21.266-15.052-.19-.268C146.483,51.99,146.4,51.874,146.313,51.76Z" transform="translate(-77.718 -36.537)"/><path class="a" d="M149.351,58.943l-.053-.086-22.44,13.332.1.184L149.73,59.6l-.2-.345C149.472,59.151,149.413,59.046,149.351,58.943Z" transform="translate(-78.533 -40.433)"/><path class="a" d="M151.891,66.606l-.043-.092L128.1,77.443l.1.191L152.2,67.3l-.18-.4C151.979,66.8,151.936,66.7,151.891,66.606Z" transform="translate(-79.207 -44.588)"/><path class="a" d="M154.176,75.383l-.032-.1c-.055-.173-.114-.344-.173-.516l-.071-.2-24.785,8.394.052.2Z" transform="translate(-79.757 -48.959)"/><path class="a" d="M155.389,82.924l-25.575,5.768.052.2,25.716-5.132-.021-.1c-.034-.164-.073-.325-.113-.488Z" transform="translate(-80.137 -53.494)"/><path class="a" d="M130.294,94.779l26.166-2.422-.011-.1c-.01-.109-.025-.214-.038-.32l-.055-.437-26.062,3.066Z" transform="translate(-80.398 -58.148)"/><path class="a" d="M130.436,100.733l26.305.328v-.1c0-.107,0-.212-.007-.316l-.005-.168c0-.059-.005-.119-.005-.177v-.1l-26.287.327Z" transform="translate(-80.475 -62.867)"/><path class="a" d="M156.445,106.811c.013-.124.022-.249.032-.374.007-.1.013-.191.021-.284l.009-.1-26.217-2.418-.025.2,26.169,3.08Z" transform="translate(-80.382 -64.731)"/><path class="a" d="M155.727,111.462l-25.862-5.155-.045.2,25.739,5.806.021-.1q.067-.325.128-.651Z" transform="translate(-80.141 -66.184)"/><path class="a" d="M129.1,109.125l25.022,8.475.111-.343c.043-.129.085-.258.123-.389l.031-.1-25.222-7.843Z" transform="translate(-79.748 -67.608)"/><path class="a" d="M95.011,19.022l3.037,25.752.2-.022-2.39-25.819-.1.009c-.217.021-.433.044-.648.069Z" transform="translate(-61.25 -18.767)"/><path class="a" d="M86.486,20.345l5.715,25.3.2-.045L87.323,20.163l-.1.02c-.143.028-.282.06-.422.092Z" transform="translate(-56.624 -19.434)"/><path class="a" d="M78.158,22.555l8.327,24.563.2-.045L78.969,22.284l-.1.03c-.106.032-.21.069-.315.105Z" transform="translate(-52.104 -20.585)"/><path class="a" d="M70.114,25.632,80.968,49.2l.193-.071L70.895,25.28l-.094.041c-.144.063-.287.128-.428.193Z" transform="translate(-47.739 -22.211)"/><path class="a" d="M62.437,29.531,75.7,51.846l.182-.092L63.181,29.1l-.089.05c-.189.107-.377.216-.566.326Z" transform="translate(-43.573 -24.286)"/><path class="a" d="M55.215,34.21,70.754,55.037l.164-.123-15.006-21.2-.147.1c-.156.11-.314.221-.468.333Z" transform="translate(-39.653 -26.787)"/><path class="a" d="M48.51,39.612,66.157,58.718l.156-.134L49.157,39.049l-.258.222c-.1.09-.21.178-.314.273Z" transform="translate(-36.014 -29.683)"/><path class="a" d="M42.742,45.329c-.086.094-.173.186-.258.282l-.069.077,19.566,17.18.138-.161L43,45.054Z" transform="translate(-32.707 -32.942)"/><path class="a" d="M37.43,51.757c-.085.113-.168.226-.248.342l-.2.271L58.26,67.43l.123-.173L37.491,51.675Z" transform="translate(-29.759 -36.535)"/><path class="a" d="M32.651,58.944c-.062.1-.122.206-.181.312l-.2.345L55.038,72.363l.11-.174L32.7,58.857Z" transform="translate(-27.202 -40.433)"/><path class="a" d="M28.651,66.608c-.091.2-.181.4-.27.6l-.041.092L52.35,77.627l.092-.184L28.694,66.517Z" transform="translate(-25.068 -44.59)"/><path class="a" d="M25.256,75.282l-.032.1,25.005,7.775.064-.194L25.5,74.564l-.091.267C25.358,74.982,25.306,75.132,25.256,75.282Z" transform="translate(-23.377 -48.957)"/><path class="a" d="M23.094,83.262c-.032.132-.064.266-.093.4l-.021.1L48.7,88.891l.045-.2L23.172,82.921Z" transform="translate(-22.16 -53.492)"/><path class="a" d="M47.49,100.522l-26.284-.327-.009.333c-.005.143-.011.286-.011.428v.1l26.3-.335Z" transform="translate(-21.186 -62.867)"/><path class="a" d="M47.806,94.565,21.733,91.5l-.046.372c-.017.127-.034.255-.048.382l-.011.1,26.154,2.414Z" transform="translate(-21.426 -58.146)"/><path class="a" d="M21.53,106.477c.008.108.016.217.028.325l.011.1,26.165-3.08-.022-.21L21.5,106.041Z" transform="translate(-21.354 -64.722)"/><path class="a" d="M48.528,106.295,22.67,111.454l.059.309c.028.148.057.295.087.442l.021.1L48.58,106.5Z" transform="translate(-21.991 -66.177)"/><path class="a" d="M24.9,117.248l.111.343,25.024-8.477-.074-.2L24.75,116.764l.031.1C24.819,116.99,24.861,117.119,24.9,117.248Z" transform="translate(-23.12 -67.599)"/></g><g transform="translate(107.496 23.396)"><path class="a" d="M213.589,29.928h-3.67v-.8h9.064v.8H215.3V39.1h-1.71Z" transform="translate(-209.919 -29.125)"/><path class="a" d="M234,29.125h1.8l2.46,7.367,2.71-7.367h.763l2.842,7.38,2.447-7.38h.961L244.67,39.1h-.882l-2.841-7.328L238.21,39.1h-.868Z" transform="translate(-222.988 -29.125)"/><path class="a" d="M271.514,29.125h6.723v.8h-5.013v3.578h4.222v.8h-4.222v3.986h5.013v.8h-6.723Z" transform="translate(-243.346 -29.125)"/><path class="a" d="M301.736,36.479V29.125h.881V39.1h-.881l-6.67-7.459V39.1h-.881V29.125h.881Z" transform="translate(-255.649 -29.125)"/><path class="a" d="M323.057,29.928h-3.67v-.8h9.064v.8h-3.684V39.1h-1.71Z" transform="translate(-269.326 -29.125)"/><path class="a" d="M349.125,39.1h-1.7V34.6l-4.1-5.472h2.013l3.394,4.565,3.421-4.565h1.078l-4.1,5.485Z" transform="translate(-282.317 -29.125)"/></g><g transform="translate(108.875 39.114)"><path class="a" d="M216.829,67.731l-.723-.25a1.819,1.819,0,0,1-1.474-1.816c0-.934.921-1.46,1.987-1.46.711,0,1.249.092,1.526.684l.881,1.842h.513l-.487-2.855a5.594,5.594,0,0,0-2.236-.381c-1.908,0-3.71.947-3.71,2.749,0,1.487.921,2.421,2.513,2.973l.723.25c1.421.487,2.132.895,2.132,2.013,0,1.066-.908,1.71-2.066,1.71-.828,0-1.539-.106-1.881-.763l-1.079-2.065h-.513l.618,3a6.8,6.8,0,0,0,2.763.527c1.921,0,3.723-1.131,3.723-2.973S218.683,68.375,216.829,67.731Z" transform="translate(-212.935 -63.495)"/><path class="a" d="M236.411,74.013h6.723v-.8h-5.012V69.224h4.223v-.8h-4.223V64.844h5.012v-.8h-6.723Z" transform="translate(-225.675 -63.791)"/><path class="a" d="M261.595,71.79l-3.421-7.749h-1.855l4.407,9.972h.855l4.393-9.972H265Z" transform="translate(-236.479 -63.791)"/><path class="a" d="M284.052,74.013h6.723v-.8h-5.012V69.224h4.223v-.8h-4.223V64.844h5.012v-.8h-6.723Z" transform="translate(-251.53 -63.791)"/><path class="a" d="M314.275,64.041v7.354l-6.67-7.354h-.881v9.972h.881V66.554l6.67,7.459h.881V64.041Z" transform="translate(-263.833 -63.791)"/></g><g transform="translate(107.496 55.402)"><path class="a" d="M209.919,99.914h3.67v9.169h1.71V99.914h3.684v-.8h-9.064Z" transform="translate(-209.919 -99.111)"/><path class="a" d="M244.577,106.491l-2.842-7.38h-.763l-2.709,7.367-2.46-7.367H234l3.341,9.972h.868l2.737-7.328,2.841,7.328h.882l3.315-9.972h-.961Z" transform="translate(-222.988 -99.111)"/><path class="a" d="M271.514,109.083h6.723v-.8h-5.012v-3.986h4.223v-.8h-4.223V99.914h5.012v-.8h-6.723Z" transform="translate(-243.346 -99.111)"/><path class="a" d="M295.9,99.111h-1.71v9.972H300.8v-.8H295.9Z" transform="translate(-255.65 -99.111)"/><path class="a" d="M315.225,106.86,311.8,99.111H309.95l4.407,9.972h.856l4.393-9.972h-.973Z" transform="translate(-264.205 -99.111)"/><path class="a" d="M337.683,109.083h6.723v-.8h-5.012v-3.986h4.223v-.8h-4.223V99.914h5.012v-.8h-6.723Z" transform="translate(-279.256 -99.111)"/></g></g></svg>