<svg xmlns="http://www.w3.org/2000/svg" width="16.55" height="12.76" viewBox="0 0 16.55 12.76">
  <g id="wCh3O4" transform="translate(16.55 12.76) rotate(180)">
    <g id="Group_22" data-name="Group 22" transform="translate(0 0)">
      <path id="Path_46" data-name="Path 46" d="M2.422,7.065,4.2,8.6Q5.936,10.1,7.668,11.589a.643.643,0,1,1-.835.969Q3.783,9.932.736,7.3C.583,7.17.43,7.039.278,6.906a.64.64,0,0,1,0-1.057Q2.6,3.841,4.932,1.836C5.571,1.285,6.21.732,6.853.184a.64.64,0,1,1,.827.974Q6.5,2.179,5.321,3.195,3.962,4.366,2.6,5.536c-.055.047-.1.1-.17.176a1.5,1.5,0,0,0,.18.023l7.348,0c3,0,2.847,0,5.845,0,.537,0,.864.4.706.854a.634.634,0,0,1-.642.427l-4.574,0H2.436Z" fill="#9f9f9f"/>
    </g>
  </g>
</svg>
