<svg xmlns="http://www.w3.org/2000/svg" width="11.718" height="19.358" viewBox="0 0 11.718 19.358">
  <path id="Path_461" data-name="Path 461" d="M-1913.613-913.563c.321-.024.653-.024.973-.024.191,0,.389,0,.583-.005.558-.014.767-.221.772-.762.008-.739.008-1.508,0-2.287-.005-.568-.221-.78-.8-.782-.89,0-1.83,0-2.794,0a4.857,4.857,0,0,0-3.041.98,4.722,4.722,0,0,0-1.624,2.74,15.054,15.054,0,0,0-.243,1.7c-.023.219-.046.444-.074.669h-.577c-.581,0-1.182,0-1.78,0-.545,0-.77.224-.776.762-.008.7-.008,1.424,0,2.2.005.544.215.748.774.751.457,0,.922,0,1.371,0h1c.1,0,.194.006.3.012h.008v.367q0,.868,0,1.737c0,2.149,0,4.37.012,6.556a1.359,1.359,0,0,0,.165.552c.034.075.067.145.092.214l.038.1h4.033l.036-.108c.025-.075.057-.15.09-.23a1.54,1.54,0,0,0,.16-.582c.013-2.083.013-4.2.012-6.248q0-1.022,0-2.045c0-.1.005-.191.011-.3,0-.008,0-.016,0-.024h.689c.7,0,1.355,0,2.025,0a.645.645,0,0,0,.726-.682c.011-.724.011-1.487,0-2.331a.67.67,0,0,0-.746-.717c-.579,0-1.169,0-1.739,0h-.969c0-.067,0-.132,0-.195,0-.225,0-.438,0-.646A1.278,1.278,0,0,1-1913.613-913.563Zm-2.322,6.148q0,3.89,0,7.781v.5h-2.588v-.492q0-4.123,0-8.246c0-.686-.081-.764-.784-.764h-2.62v-1.659h2.376c.718,0,.755-.065.783-.766a16.252,16.252,0,0,1,.188-2.268,3.484,3.484,0,0,1,3.459-3.055c.909-.059,1.825-.01,2.766-.01v1.727c-.512.032-1.016.036-1.514.1a2.228,2.228,0,0,0-2.056,2.317c0,.465.012.931,0,1.4-.014.4.177.563.558.561.789,0,1.579,0,2.368,0h.479v1.659c-.728,0-1.456.01-2.183,0C-1916.072-908.661-1915.936-908.576-1915.935-907.415Z" transform="translate(1922.996 917.427)"/>
</svg>
