<svg xmlns="http://www.w3.org/2000/svg" width="34.52" height="38.646" viewBox="0 0 34.52 38.646"><defs><style>.a{fill:#040506;}</style></defs><g transform="translate(-324.659 -280.672)"><path class="a" d="M330.341,794.636c-.459-.453-.56-.43-.994.063-.354.4-.707.808-1.086,1.186q-1.694,1.69-3.414,3.354c-.265.255-.241.42.013.65.566.51,1.128,1.025,1.667,1.563,1,1,1.982,2,2.963,3.016a.468.468,0,0,0,.754.043c.527-.467,3.568-3.445,4.544-4.485a4.265,4.265,0,0,0,.3-.38.2.2,0,0,0-.016-.251c-.417-.431-.8-.833-1.192-1.226q-1.765-1.771-3.539-3.533" transform="translate(0 -493.096)"/><path class="a" d="M622.274,295.884a6.617,6.617,0,0,1-7.458-.558,5.451,5.451,0,0,1-2.007-6.276,4.655,4.655,0,0,1,4.3-3.032,4.21,4.21,0,0,1,2.056.478c1.947,1,3.375,3.407,3.962,7.808A1.466,1.466,0,0,1,622.274,295.884Zm8.887,17.511c-2.379-5.065-3.46-8.714-4-16.4-.584-8.343-1-15.614-6.991-16.3-2.3-.265-5.7,1.915-7.416,3.861a17.405,17.405,0,0,0-4.266,8.27,8.023,8.023,0,0,0,4.384,8.747,8.38,8.38,0,0,0,9.431-1.371c.238-.228.472-.476.735-.772.2-.223.573-.7.573-.7.421,8.605.125,13.384,2.566,19.937.162.435.2.712.743.639.224-.03.923-.134,1.144-.168.475-.073.58-.066.883-.4a15.628,15.628,0,0,0,1.709-2.635c.288-.567.559-1.1.795-1.6.2-.411-.082-.679-.291-1.111" transform="translate(-272.34)"/></g></svg>