<?xml version="1.0" encoding="utf-8"?>
<!-- Generator: Adobe Illustrator 24.1.3, SVG Export Plug-In . SVG Version: 6.00 Build 0)  -->
<svg version="1.1" id="Layer_1" xmlns="http://www.w3.org/2000/svg" xmlns:xlink="http://www.w3.org/1999/xlink" x="0px" y="0px"
	 viewBox="0 0 24.41 19.85" style="enable-background:new 0 0 24.41 19.85;" xml:space="preserve">
<style type="text/css">
	.st0{fill:none;stroke:#161615;stroke-miterlimit:10;}
</style>
<g id="_x30_895Av.tif">
	<g>
		<path class="st0" d="M16.86,3.75c0.28,0.06,0.57,0.08,0.83,0.18c1.48,0.55,2.08,2.34,1.24,3.68c-1.53,2.44-3.06,4.87-4.59,7.31
			c-0.84,1.33-2.65,1.59-3.81,0.56c-0.92-0.82-1.12-2.17-0.46-3.22c1.29-2.07,2.59-4.13,3.88-6.19c0.23-0.36,0.45-0.73,0.69-1.09
			c0.46-0.73,1.13-1.12,1.98-1.2c0.04,0,0.07-0.01,0.11-0.02C16.77,3.75,16.81,3.75,16.86,3.75z"/>
		<path class="st0" d="M1.88,13.41c0-0.37,0.18-0.84,0.46-1.29C3.83,9.75,5.32,7.38,6.8,5c0.58-0.93,1.66-1.39,2.73-1.15
			c1.05,0.24,1.83,1.13,1.93,2.22c0.05,0.57-0.08,1.1-0.39,1.58c-1.51,2.4-3.01,4.8-4.52,7.2c-0.45,0.72-1.1,1.14-1.96,1.23
			C3.15,16.23,1.86,15.03,1.88,13.41z"/>
		<path class="st0" d="M20.01,16.11c-1.21-0.02-2.26-0.86-2.47-2c-0.23-1.26,0.51-2.46,1.75-2.83c1.45-0.43,2.93,0.46,3.22,1.93
			c0.25,1.29-0.65,2.58-1.97,2.83C20.36,16.08,20.18,16.09,20.01,16.11z"/>
	</g>
</g>
</svg>
