<svg xmlns="http://www.w3.org/2000/svg" width="140.586" height="20.605" viewBox="0 0 140.586 20.605">
  <g id="Group_214" data-name="Group 214" transform="translate(-870 -622.034)">
    <g id="Group_55" data-name="Group 55" transform="translate(870 626.256)">
      <path id="Path_18" data-name="Path 18" d="M5081.485-6906.822h4.384c2.407,0,4.141,1.366,4.141,3.977v1.183a3.866,3.866,0,0,1-4.141,4.182h-2.753v5.956h-1.631Zm1.631,1.491v6.362h2.549c1.672,0,2.712-.857,2.712-2.9v-.775a2.383,2.383,0,0,0-2.712-2.69Z" transform="translate(-5081.485 6907.025)"/>
      <path id="Path_19" data-name="Path 19" d="M5130.16-6891.524h-6.811v-15.3h1.631v13.807h5.18Z" transform="translate(-5109.686 6907.025)"/>
      <path id="Path_20" data-name="Path 20" d="M5163.9-6906.822h2.448l3.69,15.3h-1.65l-.939-4.04h-4.65l-.938,4.04h-1.651Zm3.2,9.769-1.977-8.545-1.979,8.545Z" transform="translate(-5134.515 6907.025)"/>
      <path id="Path_21" data-name="Path 21" d="M5205.57-6906.822h8.442v1.491h-3.407v13.807h-1.631v-13.807h-3.4Z" transform="translate(-5165.07 6907.025)"/>
      <path id="Path_22" data-name="Path 22" d="M5250.681-6906.822h6.689v1.491h-5.058v5.565h4.445v1.509h-4.445v6.732h-1.632Z" transform="translate(-5195.456 6907.025)"/>
      <path id="Path_23" data-name="Path 23" d="M5288.416-6896.883v-5.425c0-3.446,1.674-5.138,4.427-5.138s4.425,1.692,4.425,5.138v5.425c0,3.447-1.672,5.141-4.425,5.141S5288.416-6893.436,5288.416-6896.883Zm7.222,0v-5.425c0-2.609-1.04-3.649-2.795-3.649-1.734,0-2.794,1.04-2.794,3.649v5.425c0,2.61,1.039,3.651,2.794,3.651C5294.576-6893.231,5295.638-6894.272,5295.638-6896.883Z" transform="translate(-5220.875 6907.446)"/>
      <path id="Path_24" data-name="Path 24" d="M5337.15-6906.822h4.345c2.466,0,4.221,1.306,4.221,3.774v.611c0,2.631-1.958,3.855-4.426,3.855h-.347l5.262,7.057h-2l-5.425-7.506v7.506h-1.631Zm1.631,1.491v5.383h2.509c1.714,0,2.795-.774,2.795-2.692v-.2c0-1.815-1.081-2.486-2.795-2.486Z" transform="translate(-5253.703 6907.025)"/>
      <path id="Path_25" data-name="Path 25" d="M5391.955-6905.659l-3.488,14.135h-2.019l-3.427-14.195v14.195h-1.508v-15.3h2.794l3.222,13.319,3.2-13.319h2.855v15.3h-1.63Z" transform="translate(-5283.585 6907.025)"/>
    </g>
    <g id="Group_174" data-name="Group 174" transform="translate(664.521 341.363)">
      <path id="Path_435" data-name="Path 435" d="M327.689,794.484c-.245-.242-.3-.229-.53.034-.189.215-.377.431-.579.632q-.9.9-1.82,1.788c-.141.136-.129.224.007.346.3.272.6.546.889.833.532.53,1.057,1.068,1.58,1.608a.25.25,0,0,0,.4.023c.281-.249,1.9-1.837,2.423-2.391a2.279,2.279,0,0,0,.16-.2.1.1,0,0,0-.009-.134c-.222-.23-.427-.444-.636-.654q-.941-.944-1.887-1.884" transform="translate(-1 -503.686)" fill="#040506"/>
      <path id="Path_436" data-name="Path 436" d="M615.772,288.782a3.528,3.528,0,0,1-3.977-.3,2.906,2.906,0,0,1-1.07-3.346,2.482,2.482,0,0,1,2.293-1.617,2.244,2.244,0,0,1,1.1.255c1.038.533,1.8,1.817,2.112,4.163A.781.781,0,0,1,615.772,288.782Zm4.738,9.336a21.077,21.077,0,0,1-2.131-8.743c-.311-4.448-.533-8.325-3.727-8.693-1.227-.141-3.041,1.021-3.954,2.058a9.28,9.28,0,0,0-2.275,4.409,4.277,4.277,0,0,0,2.337,4.663,4.468,4.468,0,0,0,5.028-.731c.127-.122.252-.254.392-.412.105-.119.305-.372.305-.372.224,4.588.066,7.136,1.368,10.63.086.232.108.38.4.341.12-.016.492-.072.61-.09.253-.039.309-.035.471-.213a8.329,8.329,0,0,0,.911-1.405c.153-.3.3-.588.424-.852.1-.219-.044-.362-.155-.592" transform="translate(-274.637)" fill="#040506"/>
    </g>
  </g>
</svg>
