<svg xmlns="http://www.w3.org/2000/svg" width="138.011" height="53.769" viewBox="0 0 138.011 53.769"><g transform="translate(0 0)"><path d="M-473.422-6632.353a1.238,1.238,0,0,0-.275-.2,2.832,2.832,0,0,0-.315-.146c-.108-.042-.214-.083-.316-.121a2,2,0,0,1-.274-.12.66.66,0,0,1-.2-.143.275.275,0,0,1-.075-.193.387.387,0,0,1,.035-.163.313.313,0,0,1,.113-.124.7.7,0,0,1,.2-.079,1.287,1.287,0,0,1,.294-.029c.066,0,.135.006.209.011a2.093,2.093,0,0,1,.218.033c.073.014.142.028.21.047a1.365,1.365,0,0,1,.186.061v-.613c-.056-.014-.119-.028-.189-.041s-.14-.027-.213-.035-.149-.018-.224-.023a2.165,2.165,0,0,0-.219-.012,1.942,1.942,0,0,0-.607.083,1.194,1.194,0,0,0-.412.222.856.856,0,0,0-.235.329,1.033,1.033,0,0,0-.076.4.945.945,0,0,0,.074.391.949.949,0,0,0,.2.278,1.069,1.069,0,0,0,.274.195,2.84,2.84,0,0,0,.312.141c.106.042.21.081.314.117a1.915,1.915,0,0,1,.273.122.665.665,0,0,1,.194.158.32.32,0,0,1,.074.218.405.405,0,0,1-.038.174.353.353,0,0,1-.12.135.641.641,0,0,1-.213.088,1.276,1.276,0,0,1-.319.033,1.924,1.924,0,0,1-.26-.017c-.089-.01-.178-.025-.269-.043a2.742,2.742,0,0,1-.268-.067c-.09-.024-.176-.053-.257-.082v.662a3.219,3.219,0,0,0,.507.108,4.2,4.2,0,0,0,.533.034,2.3,2.3,0,0,0,.572-.069,1.356,1.356,0,0,0,.452-.208.96.96,0,0,0,.295-.355,1.121,1.121,0,0,0,.106-.506.9.9,0,0,0-.073-.376A.911.911,0,0,0-473.422-6632.353Z" transform="translate(475.618 6683.366)"/><path d="M-470.637-6632.756h-1.188v-1.427h-.657v3.551h.657v-1.546h1.188v1.546h.658v-3.551h-.658Z" transform="translate(475.88 6683.371)"/><path d="M-468.422-6634.184l-1.035,3.551h.652l.2-.7h1.219l.193.7h.728l-1.036-3.551Zm-.026,2.3.459-1.653.455,1.653Z" transform="translate(476.133 6683.371)"/><path d="M-464.2-6634.183l-.324,1.041-.148.535-.147-.567-.308-1.008h-.744l-.171,3.551h.56l.058-2.023.019-.786.147.544.35,1.209h.412l.388-1.209.169-.544.024.8.063,2.008h.58l-.174-3.551Z" transform="translate(476.418 6683.371)"/><path d="M-460.5-6632.353a1.252,1.252,0,0,0-.277-.2,2.656,2.656,0,0,0-.315-.146c-.107-.042-.213-.083-.315-.121a2.014,2.014,0,0,1-.275-.12.7.7,0,0,1-.2-.143.283.283,0,0,1-.073-.193.371.371,0,0,1,.035-.163.318.318,0,0,1,.112-.124.711.711,0,0,1,.2-.079,1.3,1.3,0,0,1,.295-.029c.066,0,.135.006.209.011a2.139,2.139,0,0,1,.218.033c.072.014.141.028.209.047a1.332,1.332,0,0,1,.187.061v-.613c-.056-.014-.12-.028-.189-.041s-.14-.027-.213-.035-.15-.018-.225-.023a2.127,2.127,0,0,0-.218-.012,1.937,1.937,0,0,0-.607.083,1.205,1.205,0,0,0-.412.222.856.856,0,0,0-.235.329,1.032,1.032,0,0,0-.076.4.945.945,0,0,0,.074.391.913.913,0,0,0,.2.278,1.064,1.064,0,0,0,.273.195,3.05,3.05,0,0,0,.313.141c.106.042.21.081.313.117a1.935,1.935,0,0,1,.274.122.66.66,0,0,1,.193.158.326.326,0,0,1,.074.218.4.4,0,0,1-.037.174.344.344,0,0,1-.12.135.652.652,0,0,1-.214.088,1.282,1.282,0,0,1-.319.033,1.914,1.914,0,0,1-.26-.017c-.089-.01-.179-.025-.269-.043a2.761,2.761,0,0,1-.269-.067c-.089-.024-.174-.053-.256-.082v.662a3.192,3.192,0,0,0,.507.108,4.18,4.18,0,0,0,.532.034,2.3,2.3,0,0,0,.573-.069,1.367,1.367,0,0,0,.452-.208.971.971,0,0,0,.295-.355,1.136,1.136,0,0,0,.106-.506.9.9,0,0,0-.074-.376A.906.906,0,0,0-460.5-6632.353Z" transform="translate(476.697 6683.366)"/><path d="M-459.453-6630.632h2.105v-.565h-1.436v-.986h1.368v-.551h-1.368v-.885h1.436v-.564h-2.105Z" transform="translate(476.968 6683.371)"/><path d="M-454.685-6632.756h-1.188v-1.427h-.658v3.551h.658v-1.546h1.188v1.546h.657v-3.551h-.657Z" transform="translate(477.212 6683.371)"/><path d="M-447.611-6632.271a.718.718,0,0,0-.208-.166.809.809,0,0,0-.249-.085.761.761,0,0,0,.226-.127.784.784,0,0,0,.16-.187.8.8,0,0,0,.1-.234,1.133,1.133,0,0,0,.03-.258.741.741,0,0,0-.3-.643,1.561,1.561,0,0,0-.9-.211h-1.129v3.551h1.067a1.685,1.685,0,0,0,1.036-.271.969.969,0,0,0,.359-.818.884.884,0,0,0-.053-.31A.772.772,0,0,0-447.611-6632.271Zm-1.614-1.382h.4a.948.948,0,0,1,.268.032.49.49,0,0,1,.182.088.324.324,0,0,1,.1.138.48.48,0,0,1,.031.183.589.589,0,0,1-.03.192.433.433,0,0,1-.1.16.539.539,0,0,1-.182.108.827.827,0,0,1-.271.039h-.4Zm1.059,2.151a.487.487,0,0,1-.121.171.581.581,0,0,1-.2.112.859.859,0,0,1-.277.04h-.461v-1.022h.411a.84.84,0,0,1,.519.131.423.423,0,0,1,.171.359A.531.531,0,0,1-448.167-6631.5Z" transform="translate(477.768 6683.371)"/><path d="M-446.78-6633.636h.771v2.453h-.771v.551h2.21v-.551h-.771v-2.453h.771v-.547h-2.21Z" transform="translate(478.027 6683.371)"/><path d="M-441.918-6633.2v1.566l-.169-.415-.955-2.134h-.808v3.551h.6v-2.577l.192.457.936,2.12h.8v-3.551h-.6Z" transform="translate(478.271 6683.371)"/><path d="M-440.72-6633.626h.957v2.994h.674v-2.994h.957v-.557h-2.588Z" transform="translate(478.533 6683.371)"/><path d="M-432.266-6632.756h-1.188v-1.427h-.657v3.551h.657v-1.546h1.188v1.546h.657v-3.551h-.657Z" transform="translate(479.085 6683.371)"/><path d="M-430.051-6634.184l-1.035,3.551h.653l.2-.7h1.219l.194.7h.727l-1.035-3.551Zm-.026,2.3.459-1.653.455,1.653Z" transform="translate(479.338 6683.371)"/><path d="M-425.834-6634.183l-.324,1.041-.147.535-.147-.567-.308-1.008h-.744l-.17,3.551h.559l.058-2.023.019-.786.147.544.35,1.209h.412l.388-1.209.169-.544.024.8.065,2.008h.579l-.173-3.551Z" transform="translate(479.623 6683.371)"/><path d="M-423.428-6634.184l-1.035,3.551h.652l.2-.7h1.22l.193.7h.726l-1.034-3.551Zm-.027,2.3.46-1.653.454,1.653Z" transform="translate(479.891 6683.371)"/><path d="M-418.762-6633.768a1.222,1.222,0,0,0-.5-.314,2.177,2.177,0,0,0-.7-.1H-421v3.551h.887a2.22,2.22,0,0,0,.8-.127,1.4,1.4,0,0,0,.543-.369,1.448,1.448,0,0,0,.313-.574,2.611,2.611,0,0,0,.1-.75,2.648,2.648,0,0,0-.1-.777A1.342,1.342,0,0,0-418.762-6633.768Zm-.556,2.283a.92.92,0,0,1-.736.293h-.289v-2.432h.335a1.12,1.12,0,0,1,.452.082.683.683,0,0,1,.289.238,1.033,1.033,0,0,1,.155.38,2.627,2.627,0,0,1,.046.515A1.411,1.411,0,0,1-419.318-6631.485Z" transform="translate(480.18 6683.371)"/><path d="M-412.058-6632.271a.709.709,0,0,0-.209-.166.809.809,0,0,0-.249-.085.747.747,0,0,0,.226-.127.81.81,0,0,0,.16-.187.83.83,0,0,0,.1-.234,1.075,1.075,0,0,0,.03-.258.739.739,0,0,0-.3-.643,1.552,1.552,0,0,0-.895-.211h-1.128v3.551h1.066a1.683,1.683,0,0,0,1.036-.271.968.968,0,0,0,.358-.818.86.86,0,0,0-.052-.31A.75.75,0,0,0-412.058-6632.271Zm-1.613-1.382h.4a.955.955,0,0,1,.269.032.475.475,0,0,1,.181.088.333.333,0,0,1,.1.138.48.48,0,0,1,.031.183.591.591,0,0,1-.03.192.43.43,0,0,1-.1.16.555.555,0,0,1-.183.108.827.827,0,0,1-.271.039h-.4Zm1.055,2.151a.459.459,0,0,1-.12.171.582.582,0,0,1-.2.112.847.847,0,0,1-.276.04h-.459v-1.022h.408a.846.846,0,0,1,.52.131.424.424,0,0,1,.169.359A.5.5,0,0,1-412.616-6631.5Z" transform="translate(480.738 6683.371)"/><path d="M-411.228-6633.636h.77v2.453h-.77v.551h2.208v-.551h-.769v-2.453h.769v-.547h-2.208Z" transform="translate(480.996 6683.371)"/><path d="M-406.366-6633.2v1.566l-.17-.415-.954-2.134h-.807v3.551h.6v-2.577l.191.457.937,2.12h.8v-3.551h-.6Z" transform="translate(481.241 6683.371)"/><path d="M-400.009-6634.183l-.324,1.041-.147.535-.146-.567-.307-1.008h-.745l-.169,3.551h.557l.059-2.023.02-.786.145.544.351,1.209h.411l.389-1.209.169-.544.024.8.065,2.008h.581l-.174-3.551Z" transform="translate(481.78 6683.371)"/><path d="M-397.161-6634.239a1.441,1.441,0,0,0-.559.108,1.23,1.23,0,0,0-.454.336,1.6,1.6,0,0,0-.3.574,2.756,2.756,0,0,0-.111.834,2.221,2.221,0,0,0,.349,1.354,1.208,1.208,0,0,0,1.037.468,1.406,1.406,0,0,0,.557-.111,1.222,1.222,0,0,0,.456-.334,1.671,1.671,0,0,0,.3-.576,2.863,2.863,0,0,0,.109-.834,2.241,2.241,0,0,0-.347-1.356A1.216,1.216,0,0,0-397.161-6634.239Zm.649,2.375a1.234,1.234,0,0,1-.125.38.6.6,0,0,1-.222.235.6.6,0,0,1-.323.081.573.573,0,0,1-.545-.31,2.042,2.042,0,0,1-.167-.94,2.959,2.959,0,0,1,.039-.519,1.259,1.259,0,0,1,.128-.383.66.66,0,0,1,.219-.236.641.641,0,0,1,.326-.079.573.573,0,0,1,.545.311,2.074,2.074,0,0,1,.166.939A2.894,2.894,0,0,1-396.512-6631.864Z" transform="translate(482.052 6683.366)"/><path d="M-393.328-6632.756h-1.187v-1.427h-.659v3.551h.659v-1.546h1.187v1.546h.657v-3.551h-.657Z" transform="translate(482.337 6683.371)"/><path d="M-391.114-6634.184l-1.034,3.551h.652l.2-.7h1.22l.193.7h.726l-1.035-3.551Zm-.025,2.3.459-1.653.456,1.653Z" transform="translate(482.59 6683.371)"/><path d="M-386.9-6634.183l-.323,1.041-.147.535-.148-.567-.307-1.008h-.744l-.171,3.551h.56l.058-2.023.019-.786.146.544.351,1.209h.412l.388-1.209.168-.544.025.8.064,2.008h.58l-.173-3.551Z" transform="translate(482.875 6683.371)"/><path d="M-383.577-6634.183l-.323,1.041-.149.535-.147-.567-.307-1.008h-.742l-.172,3.551h.559l.058-2.023.02-.786.147.544.35,1.209h.413l.388-1.209.168-.544.025.8.064,2.008h.581l-.174-3.551Z" transform="translate(483.152 6683.371)"/><path d="M-381.893-6630.632h2.1v-.565h-1.435v-.986h1.368v-.551h-1.368v-.885h1.435v-.564h-2.1Z" transform="translate(483.447 6683.371)"/><path d="M-376.743-6633.768a1.23,1.23,0,0,0-.5-.314,2.187,2.187,0,0,0-.7-.1h-1.035v3.551h.886a2.205,2.205,0,0,0,.794-.127,1.392,1.392,0,0,0,.546-.369,1.487,1.487,0,0,0,.312-.574,2.574,2.574,0,0,0,.1-.75,2.611,2.611,0,0,0-.1-.777A1.356,1.356,0,0,0-376.743-6633.768Zm-.558,2.283a.913.913,0,0,1-.735.293h-.288v-2.432h.334a1.125,1.125,0,0,1,.453.082.7.7,0,0,1,.29.238,1.012,1.012,0,0,1,.153.38,2.621,2.621,0,0,1,.047.515A1.4,1.4,0,0,1-377.3-6631.485Z" transform="translate(483.69 6683.371)"/><path d="M-371.581-6634.184l-1.034,3.551h.652l.2-.7h1.221l.192.7h.727l-1.035-3.551Zm-.026,2.3.46-1.653.455,1.653Z" transform="translate(484.222 6683.371)"/><path d="M-368.351-6634.183h-.669v3.551h2.145v-.574h-1.476Z" transform="translate(484.522 6683.371)"/><path d="M-363.975-6632.353a1.264,1.264,0,0,0-.275-.2,2.919,2.919,0,0,0-.315-.146l-.315-.121a2.1,2.1,0,0,1-.277-.12.668.668,0,0,1-.194-.143.285.285,0,0,1-.075-.193.387.387,0,0,1,.036-.163.309.309,0,0,1,.112-.124.711.711,0,0,1,.2-.079,1.305,1.305,0,0,1,.3-.029c.063,0,.132.006.206.011a2.114,2.114,0,0,1,.219.033c.071.014.143.028.208.047a1.464,1.464,0,0,1,.19.061v-.613c-.059-.014-.121-.028-.19-.041s-.141-.027-.213-.035-.15-.018-.224-.023a2.131,2.131,0,0,0-.219-.012,1.938,1.938,0,0,0-.607.083,1.185,1.185,0,0,0-.412.222.842.842,0,0,0-.234.329,1.033,1.033,0,0,0-.077.4.927.927,0,0,0,.074.391.931.931,0,0,0,.2.278,1.068,1.068,0,0,0,.274.195,3.01,3.01,0,0,0,.311.141c.107.042.211.081.314.117a1.864,1.864,0,0,1,.273.122.671.671,0,0,1,.2.158.331.331,0,0,1,.073.218.4.4,0,0,1-.037.174.358.358,0,0,1-.119.135.658.658,0,0,1-.215.088,1.276,1.276,0,0,1-.319.033,1.887,1.887,0,0,1-.259-.017c-.091-.01-.18-.025-.27-.043s-.179-.04-.269-.067-.174-.053-.257-.082v.662a3.245,3.245,0,0,0,.509.108,4.176,4.176,0,0,0,.531.034,2.3,2.3,0,0,0,.573-.069,1.368,1.368,0,0,0,.452-.208.974.974,0,0,0,.3-.355,1.165,1.165,0,0,0,.105-.506.866.866,0,0,0-.075-.376A.888.888,0,0,0-363.975-6632.353Z" transform="translate(484.76 6683.366)"/><path d="M-361.191-6632.756h-1.187v-1.427h-.657v3.551h.657v-1.546h1.187v1.546h.659v-3.551h-.659Z" transform="translate(485.022 6683.371)"/><path d="M-358.974-6634.184l-1.037,3.551h.652l.2-.7h1.221l.191.7h.727l-1.034-3.551Zm-.028,2.3.459-1.653.455,1.653Z" transform="translate(485.274 6683.371)"/><path d="M-354.733-6632.172a.434.434,0,0,0-.234-.148,1.223,1.223,0,0,0,.305-.094.879.879,0,0,0,.243-.178.807.807,0,0,0,.158-.263,1.038,1.038,0,0,0,.054-.348,1.078,1.078,0,0,0-.088-.459.787.787,0,0,0-.258-.305,1.085,1.085,0,0,0-.4-.167,2.456,2.456,0,0,0-.523-.05h-1.02v3.551h.659v-1.469h.125a.529.529,0,0,1,.295.082.553.553,0,0,1,.193.247l.492,1.141h.772l-.559-1.189A1.476,1.476,0,0,0-354.733-6632.172Zm-.347-.583a.63.63,0,0,1-.213.1,1.149,1.149,0,0,1-.276.032h-.268v-1h.288a.879.879,0,0,1,.491.113.434.434,0,0,1,.161.375.492.492,0,0,1-.048.221A.465.465,0,0,1-355.08-6632.755Z" transform="translate(485.568 6683.371)"/><path d="M-351.174-6630.214a.571.571,0,0,1-.228.049.79.79,0,0,1-.166-.019.4.4,0,0,1-.15-.069.432.432,0,0,1-.118-.132.679.679,0,0,1-.069-.214,1.32,1.32,0,0,0,.445-.19,1.305,1.305,0,0,0,.358-.369,1.8,1.8,0,0,0,.234-.548,2.954,2.954,0,0,0,.083-.736,2.178,2.178,0,0,0-.348-1.334,1.214,1.214,0,0,0-1.038-.463,1.4,1.4,0,0,0-.557.112,1.233,1.233,0,0,0-.454.342,1.685,1.685,0,0,0-.307.581,2.8,2.8,0,0,0-.112.833,2.393,2.393,0,0,0,.267,1.225,1.129,1.129,0,0,0,.8.546,1.345,1.345,0,0,0,.088.448.851.851,0,0,0,.22.31.85.85,0,0,0,.338.183,1.536,1.536,0,0,0,.452.061,1.106,1.106,0,0,0,.4-.078,1.273,1.273,0,0,0,.368-.218l-.3-.457A.674.674,0,0,1-351.174-6630.214Zm-1.561-1.266a2.049,2.049,0,0,1-.168-.938,2.761,2.761,0,0,1,.043-.518,1.162,1.162,0,0,1,.129-.381.632.632,0,0,1,.223-.239.654.654,0,0,1,.327-.079.561.561,0,0,1,.537.311,2.063,2.063,0,0,1,.164.939,2.99,2.99,0,0,1-.04.521,1.23,1.23,0,0,1-.126.381.594.594,0,0,1-.221.235.61.61,0,0,1-.324.081A.572.572,0,0,1-352.735-6631.48Z" transform="translate(485.81 6683.366)"/><path d="M-348.076-6633.636v-.547h-2.21v.547h.771v2.453h-.771v.551h2.21v-.551h-.771v-2.453Z" transform="translate(486.087 6683.371)"/><path d="M-436.671-6678.929a2.923,2.923,0,0,0,.632-.65h-1.243A3.621,3.621,0,0,0-436.671-6678.929Z" transform="translate(478.82 6679.579)"/><path d="M-437.191-6677.8a3.188,3.188,0,0,0,.574-.537,3.109,3.109,0,0,0,.546.537,3.029,3.029,0,0,0,.64-.65,4.338,4.338,0,0,0-.64-.669c-.119.143-.407.442-.546.584l-.574-.584a6.329,6.329,0,0,0-.622.669A3.169,3.169,0,0,0-437.191-6677.8Z" transform="translate(478.776 6679.618)"/><path d="M-432.365-6677.8l-.748.643.3,2.024a4.967,4.967,0,0,1-1.435-.524c.073-.5.143-1.128.161-1.428l-.179-.09-.569.38-.418,1.355a4.25,4.25,0,0,1-.48.027,2.889,2.889,0,0,1-.739-.081c.054-.363.1-.669.151-1.139l-.185-.091-.544.371-.329.9a7.009,7.009,0,0,1-.738.036h-.1c-.5,0-.526-.163-.89-1.039-.3-.724-.579-1.347-1.177-1.347-.879,0-1.636,1.319-1.731,2.241a1.888,1.888,0,0,1-.756.145H-464v1.157h21.266v0a.9.9,0,0,0,.94-.694,2.823,2.823,0,0,0,.284.5,4.276,4.276,0,0,0,1.569.273l.5-.77a1.1,1.1,0,0,0,1.06.689h.268a1.115,1.115,0,0,0,1.067-.642,1.1,1.1,0,0,0,1.121.642,1,1,0,0,0,1.094-.678,3.7,3.7,0,0,0,1.763.8c.258,0,1.05-1.076,1.05-1.339,0-.559-.107-2.331-.107-2.331Zm-9.22,2.216c.206-.588.65-1.131,1-1.131s.525.433.784,1l.166.38A4.275,4.275,0,0,1-441.584-6675.583Z" transform="translate(476.589 6679.728)"/><path d="M-440.862-6668.7H-458.6v1.156h17.8v0a1.563,1.563,0,0,0,.585-.088,5.168,5.168,0,0,0,.561-.607,1.713,1.713,0,0,0,1.431.7h.081a3.77,3.77,0,0,0,1.032-.126,3.58,3.58,0,0,0,.891-1.4,4.256,4.256,0,0,0-.062-.8l.239-.254.008-.162-.4-1.159h-.231l-.722.733s.329,1.111.472,1.961a8.151,8.151,0,0,1-1.229.055h0a2.062,2.062,0,0,1-.9-.145,17.1,17.1,0,0,0,.2-1.7l-.186-.053-.669.432-.345,1.411A6.179,6.179,0,0,1-440.862-6668.7Z" transform="translate(477.04 6680.257)"/><path d="M-440.841-6671.362a2.9,2.9,0,0,0,.63-.648,3.668,3.668,0,0,0-.63-.64,8.479,8.479,0,0,0-.61.64A3.693,3.693,0,0,0-440.841-6671.362Z" transform="translate(478.472 6680.157)"/><path d="M-438.137-6666.548a3.752,3.752,0,0,0-.627-.64,8.49,8.49,0,0,0-.612.64,3.511,3.511,0,0,0,.612.648A2.867,2.867,0,0,0-438.137-6666.548Z" transform="translate(478.645 6680.614)"/><path d="M-465.975-6664.271h.1v0a1.48,1.48,0,0,0,.555-.091,5.033,5.033,0,0,0,.56-.6,1.721,1.721,0,0,0,1.417.7h11.171v-1.158h-11.08a2.054,2.054,0,0,1-.894-.144c.079-.38.169-1.212.2-1.7l-.186-.054-.667.434-.349,1.411a5.961,5.961,0,0,1-.819.052h-7.008v1.158h7Z" transform="translate(475.839 6680.603)"/><path d="M-465.156-6668.316a3.147,3.147,0,0,0,.581.568,3.3,3.3,0,0,0,.68-.688,4.691,4.691,0,0,0-.68-.709c-.127.148-.433.471-.581.617l-.612-.617a6.831,6.831,0,0,0-.659.709,3.445,3.445,0,0,0,.659.688A3.274,3.274,0,0,0-465.156-6668.316Z" transform="translate(476.386 6680.45)"/><path d="M-446.4-6662.068h-1.3c-.5,0-.524-.162-.889-1.04-.3-.723-.578-1.347-1.175-1.347-.881,0-1.637,1.321-1.734,2.243a1.887,1.887,0,0,1-.751.145h-9.031v1.156h9.107v0a.888.888,0,0,0,.9-.691,2.822,2.822,0,0,0,.284.507,4.218,4.218,0,0,0,1.566.27l.5-.767a1.1,1.1,0,0,0,1.059.686h1.007a3.353,3.353,0,0,0,2.074-.613,6.284,6.284,0,0,1,1.583-.88h.721l.356-.81-.063-.2h-.773a4.168,4.168,0,0,1-1.772-.569c-.667-.4-1.033-.669-1.263-.669-.482,0-1.29,1.283-1.29,1.283l.2.235.783-.535c.242.117.667.4,1.068.625a4.853,4.853,0,0,0,1.076.487,4.411,4.411,0,0,0-.56.19A4.467,4.467,0,0,1-446.4-6662.068Zm-4.672-.171c.2-.586.65-1.13.995-1.13s.526.435.786,1l.167.379A4.241,4.241,0,0,1-451.077-6662.24Z" transform="translate(476.815 6680.827)"/><path d="M-435.165-6657.441v-1.157h-29.667c-.472,0-.544-.037-.8-.812l-.765-2.542h-.233l-.666.786.987,2.532c-.312.018-.739.037-1.173.037-.836,0-.9-.253-.9-.5a3.069,3.069,0,0,1,.072-.479l-.328-.091a3.255,3.255,0,0,0-.321,1.237c0,.606.3.986,1.166.986a5.458,5.458,0,0,0,1.155-.125l.481-.725a1.207,1.207,0,0,0,1.209.85h29.784Z" transform="translate(476.174 6681.051)"/><path d="M-470.88-6648.354a1.209,1.209,0,0,0,1.209.85h.118a.9.9,0,0,0,.977-.7,2.783,2.783,0,0,0,.285.507,4.32,4.32,0,0,0,1.566.272l.5-.769a1.1,1.1,0,0,0,1.06.687h21.54v-1.157H-465c-.5,0-.524-.162-.888-1.041-.3-.722-.579-1.345-1.173-1.345-.881,0-1.637,1.319-1.737,2.241a1.858,1.858,0,0,1-.754.145h0c-.47,0-.542-.038-.8-.814l-.766-2.54h-.232l-.666.785.987,2.531c-.311.019-.737.038-1.175.038-.835,0-.9-.253-.9-.5a3.147,3.147,0,0,1,.069-.479l-.327-.09a3.259,3.259,0,0,0-.321,1.239c0,.6.3.985,1.167.985a5.342,5.342,0,0,0,1.156-.127Zm3.505-1.608c.348,0,.526.433.784,1l.167.378a4.266,4.266,0,0,1-1.948-.253C-468.167-6649.422-467.72-6649.961-467.375-6649.961Z" transform="translate(475.78 6681.881)"/><path d="M-435.106-6652.157c0-.731-.543-2.293-1.45-2.293-.8,0-1.175.9-1.574,1.878-.163.389-.3.508-.809.508h-.528c-.4,0-.507-.182-.534-.337h.232l.383-.813-.063-.2h-.739a4.161,4.161,0,0,1-1.769-.568c-.667-.4-1.033-.672-1.263-.672-.481,0-1.289,1.285-1.289,1.285l.2.234.783-.532c.242.117.667.4,1.068.624a5.02,5.02,0,0,0,1.077.487c-.189.047-.365.118-.543.181a4.356,4.356,0,0,1-1.7.309h-17.664v1.155h17.2a3.344,3.344,0,0,0,2.073-.614,5.623,5.623,0,0,1,1.611-.831c-.116.8.088,1.445.835,1.445h.624l0,0c.631,0,.834-.344,1.1-.994l.232.713a4.683,4.683,0,0,0,1.769.354A2.772,2.772,0,0,0-435.106-6652.157Zm-2.59-.1.027-.091c.241-.6.524-1.011.908-1.011.418,0,.864.7,1.032,1.407A7.217,7.217,0,0,1-437.7-6652.255Z" transform="translate(476.815 6681.662)"/><path d="M-441.271-6648.3a3.109,3.109,0,0,0,.62.649,3.127,3.127,0,0,0,.573-.538,3.054,3.054,0,0,0,.548.538,3,3,0,0,0,.638-.649,4.255,4.255,0,0,0-.638-.67c-.121.144-.407.444-.548.584l-.573-.584A6.437,6.437,0,0,0-441.271-6648.3Z" transform="translate(478.487 6682.136)"/><path d="M-440.131-6648.729a2.863,2.863,0,0,0,.63-.648,3.8,3.8,0,0,0-.63-.642c-.3.275-.611.642-.611.642A3.63,3.63,0,0,0-440.131-6648.729Z" transform="translate(478.531 6682.048)"/><path d="M-433.882-6650.374l-.239-.138-.971.93.259.743.1,3.58a6.789,6.789,0,0,1-1.06.054h-.181c-.488,0-.5-.091-.5-.444v-1.617h-.239l-.756.6s.08.922.15,1.411a4,4,0,0,1-.629.054,2.462,2.462,0,0,1-.757-.1c.08-.517.169-1.248.187-1.572l-.179-.09-.569.378-.418,1.356a3.968,3.968,0,0,1-.48.028,2.83,2.83,0,0,1-.738-.082c.052-.362.1-.669.151-1.138l-.186-.091-.544.37-.329.905c-.169.017-.426.036-.738.036h-12.173v1.155h12.209v0a1.111,1.111,0,0,0,1.032-.639,1.1,1.1,0,0,0,1.122.641,1.015,1.015,0,0,0,1.085-.641,1.115,1.115,0,0,0,1.131.641,1.01,1.01,0,0,0,1.093-.72,1.075,1.075,0,0,0,1.086.72h.17a1.9,1.9,0,0,0,.684-.088,4.572,4.572,0,0,0,1.236-1.753v-2.606l.455-.494-.463-.9Z" transform="translate(477.363 6682.006)"/><path d="M-433.467-6645.584v-4.927h-.24l-.747.66c.016.416.16,5.8.16,5.8h.373C-433.884-6644.174-433.467-6645.539-433.467-6645.584Z" transform="translate(479.056 6682.006)"/><path d="M-457.1-6642.23a2.941,2.941,0,0,0,.053-.542c0-1.384-.56-2.894-1.423-2.894-.908,0-1.451,1.293-1.5,1.9a3.4,3.4,0,0,0,.321,1.03,1.07,1.07,0,0,0,.854.307,2.031,2.031,0,0,0,.827-.163l.241-.5a3.715,3.715,0,0,1,.08.732c0,.1-.008.2-.017.3a8.933,8.933,0,0,1-1.29.073h-1.406l-.049.009-.05-.009a2.113,2.113,0,0,1-.9-.145,17.113,17.113,0,0,0,.206-1.7l-.189-.055-.665.434-.349,1.41a6.086,6.086,0,0,1-.828.056h-9.3v1.156h9.394a1.515,1.515,0,0,0,.56-.088,5.162,5.162,0,0,0,.562-.607,1.717,1.717,0,0,0,1.432.7h.078l.05-.009.049.009h1.068a3.743,3.743,0,0,0,1.477-.217A3.82,3.82,0,0,0-457.1-6642.23Zm-1.61-1.174a1.9,1.9,0,0,1-.864-.188c.152-.5.5-.959.853-.959.393,0,.7.47.882,1.039A3.921,3.921,0,0,1-458.712-6643.4Z" transform="translate(475.88 6682.412)"/><path d="M-455.883-6643.247l-.169-.733h-.187l-.64.779c.072.171.446,1.076.622,1.436a2.06,2.06,0,0,1-1.762,1.52,2.664,2.664,0,0,1-.684-.111l-.133.327a5.467,5.467,0,0,0,1.457.894c1.024,0,1.513-1.634,1.549-2.259a1.091,1.091,0,0,0,.8.425h8.627v-1.156h-8.522C-455.527-6642.125-455.644-6642.289-455.883-6643.247Z" transform="translate(477.02 6682.553)"/><path d="M-459.66-6646.78l-.61-.621a6.527,6.527,0,0,0-.659.709,3.333,3.333,0,0,0,.659.69,3.287,3.287,0,0,0,.61-.572,3.145,3.145,0,0,0,.581.572,3.219,3.219,0,0,0,.679-.69,4.556,4.556,0,0,0-.679-.709C-459.206-6647.251-459.511-6646.932-459.66-6646.78Z" transform="translate(476.845 6682.267)"/><path d="M-461.964-6638.822a3.235,3.235,0,0,0,.68-.689,4.561,4.561,0,0,0-.68-.71c-.128.148-.432.468-.581.619l-.61-.619a6.73,6.73,0,0,0-.66.71,3.36,3.36,0,0,0,.66.689,3.4,3.4,0,0,0,.61-.57A3.233,3.233,0,0,0-461.964-6638.822Z" transform="translate(476.604 6682.866)"/><path d="M-473.8-6654.274a1.415,1.415,0,0,0,.532-.088,4.968,4.968,0,0,0,.56-.6,1.721,1.721,0,0,0,1.323.689l.034.007h.156l.026,0a1.279,1.279,0,0,0,.468-.086,5.039,5.039,0,0,0,.561-.6,1.724,1.724,0,0,0,1.431.7h23.516v-1.158h-23.436a2.114,2.114,0,0,1-.9-.143,16.786,16.786,0,0,0,.2-1.7l-.186-.054-.666.435-.347,1.409a6.275,6.275,0,0,1-.738.053,1.973,1.973,0,0,1-.833-.141,17.1,17.1,0,0,0,.206-1.7l-.189-.054-.666.435-.347,1.409a6.237,6.237,0,0,1-.828.054h-1.706v1.158h1.822Z" transform="translate(475.618 6681.439)"/><path d="M-473.191-6658.793a3.3,3.3,0,0,0,.641.661,3.045,3.045,0,0,0,.648-.661,4.44,4.44,0,0,0-.648-.669A5.843,5.843,0,0,0-473.191-6658.793Z" transform="translate(475.821 6681.261)"/><path d="M-471.01-6653.394a2.841,2.841,0,0,0,.639.661,3.067,3.067,0,0,0,.649-.661,4.766,4.766,0,0,0-.649-.668A6.776,6.776,0,0,0-471.01-6653.394Z" transform="translate(476.003 6681.71)"/><path d="M-473.082-6671.184a2.068,2.068,0,0,0,.586-.083l.49-.824a1.655,1.655,0,0,0,.6,1.1v.134l.157.027c.073,0,.139,0,.2-.009a1.3,1.3,0,0,0,.258.025h.312l.143-.027v-.311a2.487,2.487,0,0,0,.274-.32,1.246,1.246,0,0,0,1.245.642,1.154,1.154,0,0,0,1.208-.642,1.267,1.267,0,0,0,1.255.642,1.13,1.13,0,0,0,1.218-.723,1.2,1.2,0,0,0,1.2.723h18.938v-1.155h-18.945c-.546,0-.554-.091-.554-.445v-1.618h-.268l-.841.6s.088.921.169,1.409a4.7,4.7,0,0,1-.705.056,3,3,0,0,1-.84-.1c.089-.515.19-1.247.209-1.57l-.2-.092-.632.38-.466,1.356a4.934,4.934,0,0,1-.533.027,3.457,3.457,0,0,1-.821-.083c.062-.362.111-.668.169-1.139l-.207-.091-.6.369-.366.9c-.151.016-.364.03-.62.037-.244-.045-.249-.2-.249-.742v-2.649h-.24l-.775.571s.011.17.037.425a6.2,6.2,0,0,0-1.879,1.437,2.4,2.4,0,0,0-.142,1.148A1.29,1.29,0,0,0-473.082-6671.184Zm.87-2.414c.037.471.073.959.1,1.212a5.882,5.882,0,0,1-.695.053,1.577,1.577,0,0,1-1.014-.29A6.438,6.438,0,0,1-472.211-6673.6Z" transform="translate(475.726 6679.93)"/><path d="M-472.634-6675.14a3.119,3.119,0,0,0,.64-.633,3.141,3.141,0,0,0-.528-.581,2.985,2.985,0,0,0,.528-.556,3.064,3.064,0,0,0-.64-.65,4.335,4.335,0,0,0-.657.65c.138.122.436.413.575.556l-.575.581A6.222,6.222,0,0,0-472.634-6675.14Z" transform="translate(475.812 6679.747)"/></g></svg>