<svg xmlns="http://www.w3.org/2000/svg" width="16.323" height="16.315" viewBox="0 0 16.323 16.315">
  <g id="vRr37E.tif" transform="translate(3248.742 819.093)">
    <g id="Group_198" data-name="Group 198" transform="translate(-3248.742 -819.093)">
      <path id="Path_460" data-name="Path 460" d="M-3248.742-818.645c.026-.044.053-.087.078-.131a.627.627,0,0,1,.813-.26q1.578.653,3.152,1.312l11.843,4.935a.627.627,0,0,1,.394.821.618.618,0,0,1-.446.394q-3.162.861-6.325,1.719a.334.334,0,0,0-.272.274c-.562,2.084-1.134,4.164-1.7,6.248a.8.8,0,0,1-.467.555h-.351a.859.859,0,0,1-.429-.437q-2.824-6.792-5.658-13.58c-.209-.5-.425-1-.638-1.5Zm1.8,1.354,4.972,11.932c.022-.068.036-.1.045-.138q.671-2.457,1.339-4.915a.676.676,0,0,1,.5-.519l3.768-1.024c.428-.116.855-.235,1.316-.361Z" transform="translate(3248.742 819.093)"/>
    </g>
  </g>
</svg>
