<?xml version="1.0" encoding="utf-8"?>
<!-- Generator: Adobe Illustrator 24.3.0, SVG Export Plug-In . SVG Version: 6.00 Build 0)  -->
<svg version="1.1" id="Layer_1" xmlns="http://www.w3.org/2000/svg" xmlns:xlink="http://www.w3.org/1999/xlink" x="0px" y="0px"
	 viewBox="0 0 517.1 86.9" style="enable-background:new 0 0 517.1 86.9;" xml:space="preserve">
<style type="text/css">
	.st0{fill:#FFFFFF;}
</style>
<g id="Group_55" transform="translate(491.274 695.256)">
	<path id="Path_18" class="st0" d="M-491.3-653.4h6.9c3.8,0,6.6,2.2,6.6,6.3v1.9c0,4.3-2.7,6.6-6.6,6.6h-4.4v9.4h-2.6L-491.3-653.4z
		 M-488.7-651.1v10.1h4c2.6,0,4.3-1.4,4.3-4.6v-1.2c0-3.1-1.6-4.3-4.3-4.3L-488.7-651.1z"/>
	<path id="Path_19" class="st0" d="M-458.8-629.2h-10.8v-24.2h2.6v21.9h8.2L-458.8-629.2z"/>
	<path id="Path_20" class="st0" d="M-444.7-653.4h3.9l5.8,24.2h-2.6l-1.5-6.4h-7.4l-1.5,6.4h-2.6L-444.7-653.4z M-439.6-638
		l-3.1-13.5l-3.1,13.5H-439.6z"/>
	<path id="Path_21" class="st0" d="M-427.1-653.4h13.4v2.4h-5.4v21.9h-2.6v-21.9h-5.4L-427.1-653.4z"/>
	<path id="Path_22" class="st0" d="M-403.7-653.4h10.6v2.4h-8v8.8h7v2.4h-7v10.7h-2.6L-403.7-653.4z"/>
	<path id="Path_23" class="st0" d="M-384.2-637v-8.6c0-5.5,2.7-8.1,7-8.1s7,2.7,7,8.1v8.6c0,5.5-2.6,8.1-7,8.1
		S-384.2-631.6-384.2-637z M-372.8-637v-8.6c0-4.1-1.6-5.8-4.4-5.8c-2.7,0-4.4,1.6-4.4,5.8v8.6c0,4.1,1.6,5.8,4.4,5.8
		C-374.5-631.2-372.8-632.9-372.8-637L-372.8-637z"/>
	<path id="Path_24" class="st0" d="M-359-653.4h6.9c3.9,0,6.7,2.1,6.7,6v1c0,4.2-3.1,6.1-7,6.1h-0.6l8.3,11.2h-3.2l-8.6-11.9v11.9
		h-2.6L-359-653.4z M-356.4-651.1v8.5h4c2.7,0,4.4-1.2,4.4-4.3v-0.3c0-2.9-1.7-3.9-4.4-3.9H-356.4z"/>
	<path id="Path_25" class="st0" d="M-319.5-651.6l-5.5,22.4h-3.2l-5.4-22.5v22.5h-2.4v-24.2h4.4l5.1,21.1l5.1-21.1h4.5v24.2h-2.6
		V-651.6z"/>
</g>
<g id="Group_177" transform="translate(385.521 373.097)">
	<path id="Path_435" class="st0" d="M-153.8-326.2c-1-1-1.3-1-2.2,0.1c-0.8,0.9-1.6,1.8-2.4,2.7c-2.5,2.5-5.1,5-7.7,7.5
		c-0.6,0.6-0.5,0.9,0,1.5c1.3,1.1,2.5,2.3,3.7,3.5c2.2,2.2,4.5,4.5,6.7,6.8c0.3,0.5,1,0.6,1.5,0.3c0.1-0.1,0.2-0.1,0.2-0.2
		c1.2-1,8-7.7,10.2-10.1c0.2-0.3,0.5-0.6,0.7-0.9c0.1-0.2,0.1-0.4,0-0.6c-0.9-1-1.8-1.9-2.7-2.8
		C-148.5-320.9-151.2-323.5-153.8-326.2"/>
	<path id="Path_436" class="st0" d="M-109.8-338.9c-4.6,2.9-11,2.9-16.8-1.3c-4.5-3.2-6.3-8.9-4.5-14.1c1.5-4.1,5.3-6.8,9.7-6.8
		c1.6,0,3.2,0.3,4.6,1.1c4.4,2.2,7.6,7.7,8.9,17.6C-107.7-341-108.1-339.9-109.8-338.9z M-89.8-299.5c-5.3-11.4-7.8-19.6-9-36.9
		c-1.3-18.8-2.2-35.1-15.7-36.6c-5.2-0.6-12.8,4.3-16.7,8.7c-4.8,5.2-8.1,11.6-9.6,18.6c-1.6,8,2.5,16.1,9.9,19.7
		c7,3.5,15.5,2.3,21.2-3.1c0.5-0.5,1.1-1.1,1.7-1.7c0.4-0.5,1.3-1.6,1.3-1.6c0.9,19.3,0.3,30.1,5.8,44.8c0.4,1,0.5,1.6,1.7,1.4
		c0.5-0.1,2.1-0.3,2.6-0.4c1.1-0.2,1.3-0.1,2-0.9c1.5-1.8,2.8-3.8,3.8-5.9c0.6-1.3,1.3-2.5,1.8-3.6C-88.7-298-89.4-298.6-89.8-299.5
		"/>
</g>
<g>
	<path class="st0" d="M341.2,63.4c-2.3,0-4.3-1.2-5.4-3.2v3h-1.7v-21h1.7v10c1.1-2,3.1-3.2,5.4-3.2c3.8,0,6.7,3,6.7,7.3
		S345,63.4,341.2,63.4z M335.8,56.1c0,3.4,2.2,5.7,5.2,5.7c3,0,5.2-2.3,5.2-5.7c0-3.4-2.2-5.7-5.2-5.7
		C338,50.4,335.8,52.7,335.8,56.1z"/>
	<path class="st0" d="M364,60.3c-1,2.2-3.1,3.1-5.2,3.1c-2.7,0-4.9-1.2-4.9-3.9c0-6.1,10.1-2.4,10.1-6.4c0-2-1.7-2.9-3.9-2.9
		c-2.4,0-4.1,1.2-4.1,3.5h-1.7c0-3.5,2.8-4.9,5.8-4.9c2.9,0,5.6,1.2,5.6,4.4v9.9H364V60.3z M359.1,62c2.5,0,5-1.6,5-4.6v-1.7
		c-2.4,1.7-8.4,0.3-8.4,3.8C355.6,61.2,357,62,359.1,62z"/>
	<path class="st0" d="M379.1,50.4c-3,0-5.2,2.3-5.2,5.7c0,3.4,2.2,5.7,5.2,5.7c2.6,0,4.8-1.7,5.1-4.6h1.7c-0.3,3.7-3.2,6.2-6.8,6.2
		c-3.9,0-6.9-3-6.9-7.3s2.9-7.3,6.9-7.3c3.6,0,6.4,2.4,6.8,5.9h-1.7C383.8,52,381.7,50.4,379.1,50.4z"/>
	<path class="st0" d="M396.8,56.1l-2.4,2.4v4.6h-1.7v-21h1.7v14.5l7.4-7.5h2.2l-5.9,5.9l6.6,8.1h-2.2L396.8,56.1z"/>
	<path class="st0" d="M425,63.4c-3.3,0-5.8-1.6-5.8-4.6h1.7c0,2.1,1.8,3.2,4.1,3.2c2.3,0,3.7-0.9,3.7-2.7c0-4.2-9.2-1.2-9.2-6.7
		c0-2.4,2.2-3.9,5.1-3.9c3.1,0,5.5,1.8,5.5,4.3h-1.7c0-1.7-1.6-2.9-3.7-2.9c-2,0-3.4,0.9-3.4,2.4c0,4,9.2,1.1,9.2,6.7
		C430.4,62,428.1,63.4,425,63.4z"/>
	<path class="st0" d="M436.3,56.1c0-4.3,3-7.3,7-7.3c4,0,7,3,7,7.3s-3,7.3-7,7.3C439.3,63.4,436.3,60.4,436.3,56.1z M448.6,56.1
		c0-3.4-2.3-5.7-5.3-5.7c-3,0-5.3,2.3-5.3,5.7c0,3.4,2.3,5.7,5.3,5.7C446.3,61.9,448.6,59.6,448.6,56.1z"/>
	<path class="st0" d="M455.9,56.1c0-4.3,3-7.3,7-7.3c4,0,7,3,7,7.3s-3,7.3-7,7.3C458.9,63.4,455.9,60.4,455.9,56.1z M468.1,56.1
		c0-3.4-2.3-5.7-5.3-5.7c-3,0-5.3,2.3-5.3,5.7c0,3.4,2.3,5.7,5.3,5.7C465.9,61.9,468.1,59.6,468.1,56.1z"/>
	<path class="st0" d="M478.3,63.1h-1.7v-14h1.7v2.7c0.9-2,2.6-3,4.7-3c3.2,0,5.5,1.9,5.5,6.4v7.9h-1.7v-7.5c0-3.6-1.7-5.3-4.3-5.3
		s-4.3,1.7-4.3,5.3V63.1z"/>
	<path class="st0" d="M495.1,62.1c0-0.8,0.6-1.4,1.4-1.4c0.8,0,1.4,0.6,1.4,1.4c0,0.8-0.6,1.4-1.4,1.4
		C495.7,63.4,495.1,62.8,495.1,62.1z"/>
	<path class="st0" d="M503.5,62.1c0-0.8,0.6-1.4,1.4-1.4c0.8,0,1.4,0.6,1.4,1.4c0,0.8-0.6,1.4-1.4,1.4
		C504.1,63.4,503.5,62.8,503.5,62.1z"/>
	<path class="st0" d="M511.8,62.1c0-0.8,0.6-1.4,1.4-1.4c0.8,0,1.4,0.6,1.4,1.4c0,0.8-0.6,1.4-1.4,1.4
		C512.4,63.4,511.8,62.8,511.8,62.1z"/>
</g>
</svg>
