<svg xmlns="http://www.w3.org/2000/svg" width="63.25" height="57.585" viewBox="0 0 63.25 57.585"><defs><style>.a,.b{fill:#161615;}.a{stroke:#161615;stroke-miterlimit:10;stroke-width:0.25px;}</style></defs><g transform="translate(-20.481 -19.35)"><g transform="translate(20.606 19.475)"><path class="a" d="M78.829,40.787h.01l.265-21.3c-.091,0-.179-.007-.27-.007s-.179.006-.269.007Z" transform="translate(-47.333 -19.475)"/><path class="a" d="M80.982,40.966,83.472,19.8c-.178-.02-.356-.04-.536-.057L80.972,40.965Z" transform="translate(-48.444 -19.6)"/><path class="a" d="M82.878,41.534l4.69-20.792c-.176-.039-.35-.08-.526-.116L82.868,41.532Z" transform="translate(-49.318 -20.006)"/><path class="a" d="M84.732,42.495,91.571,22.3c-.171-.057-.338-.119-.511-.173L84.722,42.492Z" transform="translate(-50.173 -20.698)"/><path class="a" d="M86.524,43.842,95.44,24.467c-.164-.074-.325-.151-.491-.223L86.515,43.838Z" transform="translate(-51 -21.674)"/><path class="a" d="M88.234,45.556l10.9-18.347c-.155-.091-.311-.181-.468-.269L88.226,45.55Z" transform="translate(-51.789 -22.917)"/><path class="a" d="M89.844,47.615,102.609,30.5c-.145-.107-.293-.21-.44-.313L89.836,47.609Z" transform="translate(-52.531 -24.413)"/><path class="a" d="M91.336,50l14.5-15.707c-.134-.121-.273-.235-.408-.354L91.328,49.99Z" transform="translate(-53.219 -26.144)"/><path class="a" d="M108.4,38.161,92.686,52.67l.006.008L108.77,38.558C108.649,38.424,108.526,38.293,108.4,38.161Z" transform="translate(-53.846 -28.092)"/><path class="a" d="M111.068,42.813,93.895,55.618l.006.008,17.485-12.375C111.279,43.105,111.176,42.957,111.068,42.813Z" transform="translate(-54.403 -30.237)"/><path class="a" d="M94.946,58.819l18.709-10.494c-.091-.156-.177-.315-.27-.47L94.941,58.811Z" transform="translate(-54.885 -32.562)"/><path class="a" d="M95.817,62.22l19.735-8.494c-.074-.165-.147-.331-.224-.495L95.813,62.212Z" transform="translate(-55.288 -35.042)"/><path class="a" d="M96.505,65.791l20.549-6.4c-.057-.172-.115-.344-.175-.515L96.5,65.782Z" transform="translate(-55.605 -37.647)"/><path class="a" d="M97,69.495l21.138-4.22c-.038-.178-.082-.353-.123-.531L97,69.485Z" transform="translate(-55.835 -40.351)"/><path class="a" d="M97.3,73.29l21.5-1.99c-.019-.182-.046-.36-.069-.541L97.3,73.28Z" transform="translate(-55.974 -43.125)"/><path class="a" d="M97.4,77.135l21.619.268c0-.183-.011-.364-.014-.546l-21.6.268Z" transform="translate(-56.02 -45.937)"/><path class="a" d="M97.3,79.272v.01l21.506,2.53c.019-.181.028-.364.044-.545Z" transform="translate(-55.974 -47.05)"/><path class="a" d="M97,81.168l0,.01,21.153,4.771c.037-.178.071-.358.106-.537Z" transform="translate(-55.835 -47.925)"/><path class="a" d="M96.5,83.022l0,.01L117.066,90c.057-.174.115-.346.169-.522Z" transform="translate(-55.605 -48.78)"/><path class="a" d="M75.007,40.966h.01L73.053,19.746c-.179.017-.357.037-.536.057Z" transform="translate(-44.545 -19.6)"/><path class="a" d="M71.229,41.534l.01,0L67.065,20.626c-.176.036-.351.077-.526.115Z" transform="translate(-41.788 -20.006)"/><path class="a" d="M67.535,42.495l.01,0L61.206,22.127c-.172.053-.34.116-.511.173Z" transform="translate(-39.093 -20.698)"/><path class="a" d="M63.966,43.842l.009,0L55.541,24.243c-.165.072-.327.149-.491.223Z" transform="translate(-36.49 -21.674)"/><path class="a" d="M60.56,45.555l.009,0L50.13,26.939q-.235.133-.468.269Z" transform="translate(-34.005 -22.917)"/><path class="a" d="M57.353,47.614l.008-.006L45.028,30.182c-.147.1-.295.207-.44.313Z" transform="translate(-31.665 -24.413)"/><path class="a" d="M54.377,50l.008-.006-14.1-16.054c-.136.119-.275.233-.408.353Z" transform="translate(-29.493 -26.144)"/><path class="a" d="M51.677,52.669,35.96,38.16c-.123.132-.246.263-.367.4L51.67,52.676Z" transform="translate(-27.517 -28.092)"/><path class="a" d="M49.264,55.618l-17.173-12.8c-.108.144-.212.292-.318.438L49.258,55.626Z" transform="translate(-25.756 -30.237)"/><path class="a" d="M47.166,58.819l.005-.009L28.728,47.854c-.093.155-.18.314-.271.47Z" transform="translate(-24.226 -32.562)"/><path class="a" d="M45.418,62.219l0-.009L25.907,53.23c-.077.164-.15.329-.224.495Z" transform="translate(-22.947 -35.041)"/><path class="a" d="M44.035,65.79l0-.01-20.377-6.9c-.059.171-.119.343-.175.515Z" transform="translate(-21.934 -37.646)"/><path class="a" d="M43.034,69.494l0-.01L22.018,64.743c-.04.177-.085.353-.122.531Z" transform="translate(-21.201 -40.35)"/><path class="a" d="M42.224,77.134v-.01l-21.6-.268c0,.183-.014.363-.014.546Z" transform="translate(-20.606 -45.936)"/><path class="a" d="M42.428,73.289v-.01L21,70.758c-.022.181-.05.359-.069.541Z" transform="translate(-20.756 -43.124)"/><path class="a" d="M42.383,79.271,20.835,81.266c.016.182.025.365.044.545l21.505-2.53Z" transform="translate(-20.712 -47.05)"/><path class="a" d="M42.932,81.167,21.675,85.41c.035.18.068.359.106.538l21.153-4.771Z" transform="translate(-21.099 -47.924)"/><path class="a" d="M43.879,83.021,23.15,89.473c.053.175.112.349.168.522l20.564-6.965Z" transform="translate(-21.779 -48.779)"/></g><g transform="translate(37.489 69.804)"><g transform="translate(0 0.276)"><path class="b" d="M54.457,113.938H51.938v-.551h6.22v.551H55.63v6.292H54.457Z" transform="translate(-51.938 -113.387)"/></g><g transform="translate(12.18)"><path class="b" d="M77.213,115.782l-.5-.171a1.248,1.248,0,0,1-1.011-1.246c0-.641.633-1,1.364-1,.488,0,.857.063,1.047.469l.6,1.264h.352l-.334-1.959a3.846,3.846,0,0,0-1.535-.261c-1.309,0-2.546.65-2.546,1.887a2.134,2.134,0,0,0,1.724,2.04l.5.172c.975.334,1.463.614,1.463,1.381,0,.731-.623,1.174-1.418,1.174-.568,0-1.056-.072-1.291-.524l-.74-1.417h-.352l.424,2.058a4.672,4.672,0,0,0,1.9.361,2.3,2.3,0,0,0,2.555-2.04C79.415,116.712,78.485,116.224,77.213,115.782Z" transform="translate(-74.541 -112.875)"/></g><g transform="translate(23.014 0.276)"><path class="b" d="M97.166,113.938H94.647v-.551h6.22v.551H98.339v6.292H97.166Z" transform="translate(-94.647 -113.387)"/></g></g></g></svg>