<svg id="wCh3O4" xmlns="http://www.w3.org/2000/svg" width="16.55" height="12.76" viewBox="0 0 16.55 12.76">
  <g id="Group_22" data-name="Group 22">
    <path id="Path_46" data-name="Path 46" d="M-565.219,939.471l1.781,1.537q1.732,1.493,3.465,2.986a.642.642,0,0,1,.12.948.639.639,0,0,1-.955.021q-3.05-2.626-6.1-5.256c-.153-.132-.306-.263-.458-.4a.64.64,0,0,1,0-1.057q2.325-2.008,4.652-4.013c.64-.552,1.278-1.1,1.922-1.652a.638.638,0,0,1,.857-.036.635.635,0,0,1-.03,1.01q-1.177,1.021-2.359,2.037-1.359,1.171-2.719,2.341c-.055.047-.1.1-.17.176a1.5,1.5,0,0,0,.18.023l7.348,0c3,0,2.847,0,5.845,0,.537,0,.864.4.706.854a.634.634,0,0,1-.642.427l-4.574,0h-8.859Z" transform="translate(567.641 -932.406)" fill="#fff"/>
  </g>
</svg>
