<svg xmlns="http://www.w3.org/2000/svg" width="17.904" height="17.899" viewBox="0 0 17.904 17.899"><path d="M887.629,3293.689h-3.961a4.917,4.917,0,0,1-4.894-3.992,4.469,4.469,0,0,1-.086-.867q-.009-4.089,0-8.177a4.935,4.935,0,0,1,3.7-4.706,5.237,5.237,0,0,1,1.271-.154q4,0,8,0a4.93,4.93,0,0,1,4.929,4.912q.008,4.038,0,8.074a4.919,4.919,0,0,1-4.089,4.836,5.391,5.391,0,0,1-.843.072C890.313,3293.693,888.971,3293.689,887.629,3293.689Zm7.618-8.935q0-1.981,0-3.96a4.253,4.253,0,0,0-.027-.513,3.583,3.583,0,0,0-3.541-3.148q-4.045-.01-8.089,0a3.4,3.4,0,0,0-.751.087,3.57,3.57,0,0,0-2.812,3.539q0,3.979,0,7.959a4.169,4.169,0,0,0,.026.474,3.579,3.579,0,0,0,3.523,3.153c2.709.01,5.419,0,8.128,0a3.381,3.381,0,0,0,1.242-.238,3.582,3.582,0,0,0,2.3-3.37C895.249,3287.411,895.247,3286.082,895.247,3284.754Z" transform="translate(-878.683 -3275.792)"/><path d="M1045.742,3438.009a4.775,4.775,0,1,1-4.771,4.783A4.787,4.787,0,0,1,1045.742,3438.009Zm3.434,4.777a3.429,3.429,0,1,0-3.434,3.425A3.426,3.426,0,0,0,1049.175,3442.786Z" transform="translate(-1036.794 -3433.834)"/><path d="M1384.109,3396.537a.929.929,0,1,1,.933-.927A.922.922,0,0,1,1384.109,3396.537Z" transform="translate(-1370.198 -3391.619)"/></svg>