<?xml version="1.0" encoding="utf-8"?><svg version="1.1" id="Layer_1" xmlns="http://www.w3.org/2000/svg" xmlns:xlink="http://www.w3.org/1999/xlink" x="0px" y="0px"
	 viewBox="0 0 612 190.48" style="enable-background:new 0 0 612 190.48;" xml:space="preserve">
<style type="text/css">
	.st0{fill:#020203;}
	.st1{fill:#030304;}
</style>
<polygon class="st0" points="37.96,146.42 38.02,146.33 38.02,144.55 5.22,144.55 5.22,147.42 30.54,147.42 4.54,184.88 
	4.48,184.96 4.48,186.75 38.12,186.75 38.44,186.7 38.44,183.83 12,183.83 "/>
<polygon class="st0" points="87.71,166.39 109.1,166.39 109.1,165.85 109.15,165.85 109.15,164.52 109.1,164.2 109.1,163.53 
	87.71,163.53 87.71,147.41 110.69,147.41 110.69,144.55 82.08,144.55 82.08,186.75 111.1,186.75 111.1,183.9 87.71,183.9 "/>
<g>
	<path class="st0" d="M178.98,155.56c0,6.3-3.7,9.36-11.32,9.36h-7.28v-17.51h7.75C175.94,147.41,178.98,149.69,178.98,155.56
		 M174.79,165.71c6.37-1.16,10.24-4.94,10.24-10.16c0-7.2-5.84-11.01-16.89-11.01h-13.38v42.21h5.63v-18.98h7.28
		c5.64,0,8.6,1.16,10.14,7.72l2.91,11.27h5.82l-2.88-12.27C182.48,169.37,179.78,166.66,174.79,165.71"/>
	<path class="st0" d="M260.83,165.41c0,12.7-4.79,19.13-14.22,19.13c-9.44,0-14.23-6.44-14.23-19.13c0-12.75,4.65-18.96,14.23-18.96
		C256.17,146.46,260.83,152.66,260.83,165.41 M246.6,143.66c-11.88,0-20.51,9.15-20.51,21.76c0,12.71,8.62,21.93,20.51,21.93
		c11.88,0,20.51-9.22,20.51-21.93C267.11,152.81,258.48,143.66,246.6,143.66"/>
</g>
<polygon class="st0" points="394.24,176.97 370.51,144.68 370.41,144.55 364.05,144.55 364.05,186.75 366.92,186.75 366.92,149.29 
	394.25,186.42 394.26,186.67 394.42,186.67 394.49,186.75 397.11,186.75 397.11,144.55 394.24,144.55 "/>
<rect x="444.09" y="144.55" class="st0" width="5.63" height="42.21"/>
<polygon class="st0" points="526.48,176.95 502.77,144.68 502.67,144.55 496.31,144.55 496.3,186.43 496.31,186.75 499.17,186.75 
	499.17,149.27 526.49,186.4 526.53,186.67 526.69,186.67 526.75,186.75 529.37,186.75 529.37,144.55 526.48,144.55 "/>
<polygon class="st0" points="582.37,183.9 582.37,166.39 603.82,166.39 603.82,163.53 582.37,163.53 582.37,147.41 605.35,147.41 
	605.35,144.55 576.73,144.55 576.73,186.75 605.76,186.75 605.76,183.9 "/>
<g>
	<path class="st1" d="M427.02,5.25c-0.11,0.1-0.26,0.23-0.43,0.4c-1.84,1.84-4.53,4.92-6.09,7.33c-0.02,0.03-0.04,0.08-0.06,0.12
		c0.02,0.03,0.04,0.06,0.06,0.09c1.08,1.73,5.71,5.32,8.04,6.67l0.02,0.01c1.76-2.02,5.39-6.23,6.66-7.8
		C432,9.91,428.83,7.13,427.02,5.25"/>
	<path class="st1" d="M430.84,59.85l-0.37-0.22c-4.46-2.56-6.29-4.74-6.29-7.51c0-2.45,4.41-6.86,8.75-6.88
		c3.83,0,6.4,2.61,5.17,7.26c-0.71,2.7-5.66,6.72-6.86,7.19L430.84,59.85z M565.14,64.14c7.54-7.76,18.95-16.12,26.17-16.12
		c4.77,0,12.85,4.58,12.85,8.07c0,0.15-0.03,0.28-0.06,0.37l0.03,0.38l-0.42,0.29c-3.79,2.64-20.86,8.65-34.76,8.65
		c-0.85,0-1.66-0.04-2.5-0.08l-2.7-0.12L565.14,64.14z M554.83,79.11l0.46-0.82c0.67-1.22,1.5-2.73,2.4-3.95l0.35-0.48l0.58,0.14
		c2.15,0.52,5.1,0.81,8.3,0.81c3.58,0,9.2-0.34,15.59-1.93c9.81-2.34,17.98-6.31,21.32-10.35c2.99-4.3,5.03-11,5.03-14.53
		c0-2.38-1.41-4.62-4.07-6.49c-2.62-1.77-6.06-2.91-8.77-2.91c-7.21,0-24.57,14.22-33.72,25.86l-0.34,0.43l-0.53-0.1
		c-10.79-1.98-11.62-9.46-11.62-11.71c-0.01-1.94-0.42-2.56-0.62-2.56c-0.06,0.04-0.71,0.43-2.13,3.85
		c-2.93,7.6-7.69,11.5-14.13,11.58l-84.55,0.05l-0.11-0.01l-1.21,0c-4.86-0.04-8.46-0.7-10.73-1.94l-1.09-0.6l0.92-0.84
		c5.1-4.68,6.91-12.18,6.91-17.18c0-4.74-1.61-9.52-5.22-9.52c-6.28,0-18.52,12.84-18.52,23.78c0.03,1.14,0.2,2.22,0.53,3.37
		l0.15,0.52l-0.39,0.38c-1.44,1.39-5.42,2.07-9.95,2.07l-88.89,0.07c-4.91,0-7.8-1.38-9.64-4.6c-1.27-2.21-1.82-2.67-2.06-2.67
		c-0.01,0.01-0.25,0.17-0.56,0.64c-0.86,1.33-2.62,6.03-2.62,8.36c0,0.53,0.09,0.69,0.09,0.69c0.18,0.22,0.49,0.56,0.86,0.98
		c2.66,2.96,5.49,6.31,5.49,8.65l-0.01,0.15c-0.93,5.45-5.75,9.42-11.21,13.74c-6.65,5.27-11.47,8.12-21.56,8.14
		c-1.26,0-2.56-0.11-3.72-0.21c-0.87-0.08-1.7-0.14-2.29-0.14c-0.77,0-0.98,0.18-0.98,0.18c0.03,0.04,0.35,0.43,1.57,1
		c5.11,2.37,10.49,3.01,17.25,2.69c0.01,0,0.02,0,0.02,0c1.91,0,3.63-0.56,5.45-1.23c13.84-5.05,17.65-12.65,17.65-25.11
		c0-0.25-0.02-0.52-0.03-0.78c-0.02-0.3-0.03-0.59-0.03-0.87v-1.14l1.11,0.28c1.16,0.29,3.08,0.42,6.06,0.42l87.93-0.06
		c6.94,0,13.46-2.83,16.08-4.52l0.46-0.3l0.48,0.28c5.18,3.03,11.67,4.47,20.43,4.52l85.84-0.06c4.4,0,8.24-3.42,11.72-10.45
		l0.92-1.86l0.72,1.95c1.5,4.06,4.62,6.97,9.26,8.64l0.91,0.33l-0.4,0.89c-0.97,2.14-1.65,3.78-2.13,5.18
		c-0.13,0.42-0.21,0.8-0.21,1.07c0,0.02,0,0.04,0,0.06C553.96,80.63,554.6,79.51,554.83,79.11"/>
	<path class="st1" d="M11.01,18.08L11.01,18.08c0.25,0.15,0.34,0.16,0.34,0.16c0.05-0.01,0.21-0.13,0.32-0.2l0.2-0.14
		c0.92-0.66,3.32-3.24,5.28-5.5l0.62-0.71l0.68,0.66c2.92,2.84,5.95,5.12,6.81,5.75c0.06,0.05,0.11,0.09,0.15,0.12
		c0.01-0.02,0.02-0.03,0.04-0.05c1.92-2.36,3.97-4.7,6.47-7.35c0.06-0.06,0.11-0.11,0.15-0.15c-2.54-1.74-5.17-4.43-7.45-6.85
		c-0.1,0.08-0.25,0.22-0.47,0.43c-0.99,0.94-2.99,3.25-4.45,4.93l-1.22,1.4l-0.63-0.34c-1.96-1.05-5.27-3.98-7.13-6.06
		c-0.09-0.1-0.16-0.17-0.22-0.23C7.6,6.83,4.95,9.98,3.94,11.2c-0.12,0.15-0.18,0.25-0.22,0.3c0.02,0.03,0.06,0.08,0.11,0.14
		C5.81,14.27,8.86,16.76,11.01,18.08"/>
	<path class="st1" d="M25.21,52.09c-3.31,1.7-7.79,2.48-10.77,2.49h0h0c-3.66,0-4.44-1.08-4.46-1.98l0-0.13l0.04-0.13
		c0.41-1.42,3.91-3.83,11.61-8.72l2.37-1.5l0.52,2.67c0.52,2.66,0.76,3.87,1.17,6.36l0.11,0.64L25.21,52.09z M258.74,28.9
		c-0.06,0.07-0.43,0.61-0.55,0.78c-1.46,2.7-2.57,6.95-2.57,8.1c0,0.44,0.04,0.64,0.17,0.84c0.79,1.33,1.52,2.48,2.2,3.54
		c3.02,4.78,5.02,7.94,5.57,15.03l0,0.34c0,4.68-7.04,8.58-9.69,8.58h-0.56c-4.88-0.38-7.88-3.69-8.32-9.08
		c-0.1-1.32-0.24-1.89-0.33-2.13c-0.11,0.14-0.37,0.47-0.65,1.11c-1.96,3.93-4.63,9.26-10.13,9.26c-3.79,0-6.54-2.67-6.54-6.35
		c0-0.6,0.02-1.07,0.05-1.49c0.01-0.27,0.03-0.51,0.03-0.74c0-0.72-0.04-1.12-0.09-1.33c-0.14,0.15-0.4,0.46-0.8,1.14
		c-3.3,5.98-7.77,8.77-14.05,8.77c-5.59,0-9.19-2.76-9.41-7.21c-0.09-1.04-0.22-1.46-0.3-1.63c-0.15,0.13-0.46,0.53-0.59,0.91
		c-2.71,5.87-8.1,8.8-16.07,8.8h-0.81c-4.66-0.03-9.07-2.1-13.11-6.14l-0.74-0.74l0.83-0.62c3.96-2.92,5.73-7.39,5.73-10.52
		c0-1.29-0.31-2.35-0.86-2.9c-3.01-3.13-7.2-4.84-11.83-4.84h-0.06c-4.83,0-9.88,1.83-14.22,5.15c-0.95,0.71-1.9,4.21-1.9,6.96
		c0,0.61,0.05,0.95,0.08,1.12c3.96,0.71,9.02,2.23,11.32,5.51l0.56,0.81l-0.86,0.48c-7.53,4.25-15.43,5.76-24.08,5.76l-89.45,0.05
		c-1.71,0-7.05-0.8-9.43-2.37c-3.82-2.57-6.5-6.41-7.57-10.82c-0.77-3.05-1.41-7.4-2.14-12.44c-0.46-3.18-0.99-6.79-1.62-10.59
		c-0.15-0.9-0.3-1.4-0.41-1.67c-0.37,0.44-0.89,1.35-1.09,1.7c-1.01,1.8-1.63,3.06-1.63,5.42c0,0.7,0.06,1.51,0.18,2.42l0.07,0.51
		L22.7,38.7c-1.24,0.94-3.4,2.34-5.48,3.68c-2.25,1.45-4.57,2.96-5.7,3.85c-5.01,4.1-6.26,5.47-7.73,15.89
		C3.8,62.66,4,63.31,5.21,63.78c0.97,0.38,2.44,0.56,4.31,0.55c5.17,0,9.44-0.99,12.02-2.8c1.7-1.18,2.53-2.55,3.4-4.01l1.66-2.72
		l0.34,2.49c0.91,6.55,2.95,11.1,6.25,13.93c3.33,2.82,9.89,4.19,13.51,4.17h0.37l88.63-0.05c4.77-0.05,11.12-0.8,14.68-2.23
		c3.29-1.32,7.82-4.52,13.46-9.49l0.8-0.7l0.56,0.91c2.23,3.63,3.77,5.51,7.51,7.77c3.18,1.87,6.77,3.07,10.67,3.54
		c0.58,0.13,1.02,0.19,1.47,0.19l1.68-0.01c4.35-0.07,7.34-0.77,8.94-2.1c1.82-1.51,3.02-3.14,3.67-4.99l0.92-2.65l0.79,2.7
		c1.4,4.82,4.43,6.88,10.15,6.88c5.19,0,10.28-3.57,12.1-8.55l1.38-3.76l0.35,3.99c0.35,3.93,2.47,8.51,7.31,8.51
		c4.77,0,8.51-4.55,9.96-8.78l1.17-3.4l0.56,3.55c0.95,6,3.78,8.57,9.49,8.55h1.37c0.41,0,0.81-0.04,1.25-0.13
		c5.88-0.72,7.82-4.14,9.58-8.19c1.04-2.41,1.84-7.4,1.84-11.6c-0.01-9.09-2.63-20.74-8.45-26.32
		C258.79,28.93,258.75,28.9,258.74,28.9"/>
	<path class="st1" d="M264.24,5.84c-0.09,0.08-0.23,0.22-0.43,0.42c-1.09,1.02-3.42,3.65-5.25,5.8l-0.48,0.56l-0.64-0.36
		c-2-1.11-5.23-4.02-7.08-6.07c-0.1-0.12-0.18-0.2-0.24-0.25c-0.01,0-0.01,0.01-0.02,0.02c-2.16,2.19-4.67,4.99-6.52,7.28
		c-0.13,0.15-0.21,0.25-0.24,0.31c0.02,0.04,0.06,0.09,0.12,0.17c1.94,2.51,5.01,5.03,7.19,6.41c0.23,0.14,0.33,0.14,0.33,0.14
		c0.05-0.01,0.23-0.13,0.34-0.22l0.17-0.12c0.96-0.69,3.36-3.3,5.27-5.5l0.62-0.71l0.68,0.65c2.75,2.65,5.68,4.92,6.82,5.76
		c0.06,0.04,0.11,0.08,0.15,0.11c0.02-0.02,0.04-0.05,0.07-0.08c2.06-2.54,4.18-4.94,6.46-7.35c0.05-0.05,0.1-0.1,0.14-0.14
		C269.24,10.99,266.77,8.48,264.24,5.84"/>
</g>
</svg>
