<?xml version="1.0" encoding="utf-8"?>
<!-- Generator: Adobe Illustrator 24.1.3, SVG Export Plug-In . SVG Version: 6.00 Build 0)  -->
<svg version="1.1" id="Layer_1" xmlns="http://www.w3.org/2000/svg" xmlns:xlink="http://www.w3.org/1999/xlink" x="0px" y="0px"
	 viewBox="0 0 24.41 19.85" style="enable-background:new 0 0 24.41 19.85;" xml:space="preserve">
<style type="text/css">
	.st0{fill:none;stroke:#161615;stroke-miterlimit:10;}
</style>
<g id="WO3FCW.tif" transform="translate(-839.112 -220.685)">
	<g id="Group_273" transform="translate(839.609 221.186)">
		<path id="Path_671" class="st0" d="M15.86,17.49c-1.03-0.06-2.03-0.32-2.95-0.77c-1.54-0.72-2.95-1.68-4.19-2.84
			c-1.42-1.27-2.65-2.74-3.65-4.36c-0.69-1.09-1.16-2.3-1.39-3.57C3.63,5.51,3.63,5.07,3.67,4.63c0.04-0.28,0.17-0.55,0.39-0.74
			C4.8,3.15,5.53,2.4,6.28,1.67c0.26-0.35,0.75-0.42,1.1-0.16C7.51,1.6,7.6,1.74,7.65,1.89c0.58,1.1,1.16,2.2,1.74,3.29
			c0.25,0.41,0.18,0.95-0.18,1.27C8.98,6.7,8.75,6.94,8.5,7.17C8.34,7.3,8.28,7.52,8.37,7.71c0.18,0.5,0.43,0.98,0.76,1.4
			c0.91,1.27,2.05,2.35,3.36,3.2c0.33,0.18,0.67,0.33,1.02,0.46c0.14,0.05,0.3,0,0.39-0.12c0.28-0.29,0.56-0.57,0.85-0.86
			c0.36-0.38,0.93-0.46,1.38-0.19c1.05,0.62,2.11,1.24,3.16,1.87c0.41,0.17,0.6,0.64,0.43,1.05c-0.06,0.13-0.15,0.25-0.26,0.34
			c-0.75,0.74-1.49,1.49-2.25,2.23C16.83,17.4,16.35,17.56,15.86,17.49z"/>
	</g>
</g>
</svg>
