<?xml version="1.0" encoding="UTF-8"?> <svg xmlns="http://www.w3.org/2000/svg" width="106.602" height="34.031" viewBox="0 0 106.602 34.031"><g id="Groupe_1194" data-name="Groupe 1194" transform="translate(18750 20019)"><g id="Groupe_1191" data-name="Groupe 1191" transform="translate(-536 -2744)"><path id="Tracé_275" data-name="Tracé 275" d="M.006,8.332a8.332,8.332,0,1,1,8.332,8.332A8.332,8.332,0,0,1,.006,8.332" transform="translate(-18214.004 -17275)"></path><rect id="Rectangle_266" data-name="Rectangle 266" width="16.64" height="7.612" transform="translate(-18214 -17257.258)"></rect><rect id="Rectangle_267" data-name="Rectangle 267" width="16.64" height="7.612" transform="translate(-18214 -17248.58)"></rect></g><g id="ASFC_LOGO_EN" transform="translate(-18755.73 -20049.83)"><g id="Groupe_4" data-name="Groupe 4" transform="translate(29.794 30.83)"><path id="Tracé_28" data-name="Tracé 28" d="M31.413,38.452h4.5V39.77H29.85V30.83h1.568v7.617Z" transform="translate(-29.85 -30.83)"></path><path id="Tracé_29" data-name="Tracé 29" d="M41.84,39.812c0-1.664,2.046-2.057,4.465-2.317v-.122c0-1.132-.643-1.478-1.382-1.478a1.2,1.2,0,0,0-1.329,1.2h-1.44a2.573,2.573,0,0,1,2.822-2.28,2.493,2.493,0,0,1,2.8,2.849c0,.319-.027,1.111-.027,1.711a10.983,10.983,0,0,0,.2,2.27H46.6a7.856,7.856,0,0,1-.122-.9A2.344,2.344,0,0,1,44.3,41.8c-1.44,0-2.456-.776-2.456-1.983Zm4.5-1.3c-2.094.2-2.945.5-2.945,1.26,0,.579.478.925,1.222.925a1.524,1.524,0,0,0,1.727-1.674v-.5Z" transform="translate(-35.467 -32.695)"></path><path id="Tracé_30" data-name="Tracé 30" d="M57.795,35.17h1.515l1.148,4.709.973-4.709h1.589L61.255,41.8H59.862L58.555,36.9,57.247,41.8H55.855L54.09,35.17h1.589l.973,4.709,1.132-4.709Z" transform="translate(-41.206 -32.863)"></path><path id="Tracé_31" data-name="Tracé 31" d="M71.349,43.961V42.84H71.9c.643,0,.914-.048,1.207-.914l.074-.159-2.4-6.6h1.605l1.5,4.757,1.5-4.757h1.5L74.57,41.793c-.627,1.711-1.063,2.169-2.551,2.169h-.664Z" transform="translate(-49.025 -32.863)"></path><path id="Tracé_32" data-name="Tracé 32" d="M84.261,38.785a1.837,1.837,0,0,0,1.8,1.839,1.6,1.6,0,0,0,1.626-.925h1.44a3.006,3.006,0,0,1-3.008,2.147,3.469,3.469,0,0,1-.1-6.936c2.036,0,3.317,1.664,3.178,3.885H84.255Zm0-1.074h3.45a1.666,1.666,0,0,0-1.69-1.664,1.746,1.746,0,0,0-1.765,1.664Z" transform="translate(-54.64 -32.741)"></path><path id="Tracé_33" data-name="Tracé 33" d="M100.545,36.654a6.477,6.477,0,0,0-.7-.037c-.925,0-1.456.372-1.456,1.7v3.476H96.92V35.161h1.44v1.185a1.986,1.986,0,0,1,1.8-1.2,3.088,3.088,0,0,1,.383.027Z" transform="translate(-61.272 -32.854)"></path><path id="Tracé_34" data-name="Tracé 34" d="M108.673,36.856c-.159-.606-.718-.84-1.456-.84-.643,0-1.233.282-1.233.728s.308.68.888.787l.935.186c1.345.26,2.365.68,2.365,1.972,0,1.382-1.308,2.147-2.812,2.147a2.645,2.645,0,0,1-2.87-2.179h1.43a1.317,1.317,0,0,0,1.494,1.074c.776,0,1.329-.319,1.329-.861s-.494-.776-1.148-.914l-1-.2c-1.121-.234-2-.718-2-1.935s1.27-1.924,2.7-1.924a2.574,2.574,0,0,1,2.748,1.961h-1.382Z" transform="translate(-64.818 -32.737)"></path></g><g id="Groupe_5" data-name="Groupe 5" transform="translate(29.836 59.168)"><path id="Tracé_35" data-name="Tracé 35" d="M34.7,87.97a2.232,2.232,0,0,1-2.328,1.866c-1.573,0-2.44-1.191-2.44-2.849s.888-2.838,2.461-2.838a2.213,2.213,0,0,1,2.28,1.866H34.14a1.731,1.731,0,0,0-1.765-1.377c-1.084,0-1.908.84-1.908,2.355s.781,2.365,1.908,2.365a1.722,1.722,0,0,0,1.786-1.377h.532Z" transform="translate(-29.93 -84.146)"></path><path id="Tracé_36" data-name="Tracé 36" d="M42.531,90.36A1.682,1.682,0,0,1,41,91.078a1.2,1.2,0,0,1-1.35-1.111c0-.93.909-1.26,2.87-1.462v-.144a.992.992,0,0,0-1.137-1.127,1.01,1.01,0,0,0-1.143.914h-.494a1.551,1.551,0,0,1,1.669-1.334,1.4,1.4,0,0,1,1.573,1.605c0,.569-.005.93-.005,1.26,0,.462.021.856.043,1.3h-.478l-.021-.622Zm-1.424.3a1.352,1.352,0,0,0,1.44-1.547v-.2c-1.653.181-2.371.409-2.371,1.036,0,.431.388.707.93.707Z" transform="translate(-34.484 -85.394)"></path><path id="Tracé_37" data-name="Tracé 37" d="M48.132,87.616a1.4,1.4,0,0,1,1.355-.76c.962,0,1.371.574,1.371,1.573V91h-.468v-2.44c0-.765-.2-1.281-1.02-1.281a1.305,1.305,0,0,0-1.233,1.456V91H47.67V86.92h.468v.691Z" transform="translate(-38.241 -85.414)"></path><path id="Tracé_38" data-name="Tracé 38" d="M57.711,90.36a1.682,1.682,0,0,1-1.531.718,1.2,1.2,0,0,1-1.35-1.111c0-.93.909-1.26,2.87-1.462v-.144a.992.992,0,0,0-1.137-1.127,1.01,1.01,0,0,0-1.143.914h-.494a1.549,1.549,0,0,1,1.664-1.334,1.4,1.4,0,0,1,1.573,1.605c0,.569-.005.93-.005,1.26,0,.462.021.856.048,1.3h-.478l-.021-.622Zm-1.424.3a1.354,1.354,0,0,0,1.44-1.547v-.2c-1.653.181-2.371.409-2.371,1.036,0,.431.388.707.93.707Z" transform="translate(-41.595 -85.394)"></path><path id="Tracé_39" data-name="Tracé 39" d="M63.926,85.67a1.541,1.541,0,0,1,1.377.771V84.32h.468v5.491H65.3v-.664a1.551,1.551,0,0,1-1.377.765c-.941,0-1.706-.765-1.706-2.121s.765-2.121,1.706-2.121Zm.1.425c-.755,0-1.3.611-1.3,1.7s.537,1.7,1.3,1.7c.611,0,1.313-.484,1.313-1.7S64.644,86.1,64.027,86.1Z" transform="translate(-45.058 -84.228)"></path><path id="Tracé_40" data-name="Tracé 40" d="M73.181,90.36a1.682,1.682,0,0,1-1.531.718,1.2,1.2,0,0,1-1.35-1.111c0-.93.909-1.26,2.87-1.462v-.144a.992.992,0,0,0-1.137-1.127,1.01,1.01,0,0,0-1.143.914H70.4a1.551,1.551,0,0,1,1.669-1.334,1.4,1.4,0,0,1,1.573,1.605c0,.569-.005.93-.005,1.26,0,.462.021.856.043,1.3H73.2l-.021-.622Zm-1.424.3a1.352,1.352,0,0,0,1.44-1.547v-.2c-1.653.181-2.371.409-2.371,1.036,0,.431.388.707.93.707Z" transform="translate(-48.843 -85.394)"></path></g><g id="Groupe_6" data-name="Groupe 6" transform="translate(29.73 43.193)"><path id="Tracé_41" data-name="Tracé 41" d="M33.642,58.39h.76l1.69,5.395L37.5,58.39h.845l-1.908,6.58h-.707l-1.722-5.528L32.334,64.97h-.7L29.73,58.39h.845l1.456,5.379,1.626-5.379Z" transform="translate(-29.73 -56.105)"></path><path id="Tracé_42" data-name="Tracé 42" d="M48.36,54.09V55.3H47.6V54.09Zm0,2.285v6.58H47.6v-6.58Z" transform="translate(-38.102 -54.09)"></path><path id="Tracé_43" data-name="Tracé 43" d="M51.944,55.6h.771v1.478h1.3v.659h-1.3v4.21c0,.845.027,1.026.9,1.026h.393v.686H53.39c-1.175,0-1.44-.255-1.44-1.568V57.737H50.86v-.659h1.09V55.6Z" transform="translate(-39.629 -54.797)"></path><path id="Tracé_44" data-name="Tracé 44" d="M59.85,57.486a2.273,2.273,0,0,1,2.19-1.222c1.552,0,2.216.93,2.216,2.546v4.146H63.5V59.017c0-1.233-.33-2.068-1.653-2.068A2.11,2.11,0,0,0,59.85,59.3v3.657h-.76V54.09h.76v3.4Z" transform="translate(-43.485 -54.09)"></path><path id="Tracé_45" data-name="Tracé 45" d="M73.731,58.18c1.579,0,2.982,1.026,2.982,3.423s-1.409,3.423-2.982,3.423S70.76,64,70.76,61.6s1.409-3.423,2.971-3.423Zm0,6.15c1.26,0,2.179-.829,2.179-2.727s-.92-2.727-2.179-2.727-2.163.829-2.163,2.727S72.461,64.33,73.731,64.33Z" transform="translate(-48.952 -56.006)"></path><path id="Tracé_46" data-name="Tracé 46" d="M88.177,63.907a2.262,2.262,0,0,1-2.115,1.222c-1.5,0-2.142-.93-2.142-2.546V58.39h.76v3.986c0,1.233.292,2.068,1.579,2.068a2.117,2.117,0,0,0,1.919-2.349v-3.7h.76v6.58h-.76Z" transform="translate(-55.117 -56.105)"></path><path id="Tracé_47" data-name="Tracé 47" d="M96.274,55.6h.771v1.478h1.3v.659h-1.3v4.21c0,.845.027,1.026.9,1.026h.393v.686H97.72c-1.175,0-1.44-.255-1.44-1.568V57.737H95.19v-.659h1.09V55.6Z" transform="translate(-60.397 -54.797)"></path><path id="Tracé_48" data-name="Tracé 48" d="M108.97,54.09h3.019c1.6,0,3,.441,3,2.238a2.065,2.065,0,0,1-1.148,1.956,1.975,1.975,0,0,1,1.515,2.115c0,1.834-1.355,2.557-3.083,2.557h-3.3V54.09Zm.819,3.9h2.36c1.212,0,1.983-.393,1.983-1.616,0-1.074-.76-1.541-1.945-1.541h-2.4v3.157Zm0,4.22h2.53c1.456,0,2.163-.638,2.163-1.8s-.707-1.711-2.238-1.711h-2.456Z" transform="translate(-66.853 -54.09)"></path><path id="Tracé_49" data-name="Tracé 49" d="M125.561,58.18c1.579,0,2.982,1.026,2.982,3.423s-1.409,3.423-2.982,3.423S122.59,64,122.59,61.6,124,58.18,125.561,58.18Zm0,6.15c1.26,0,2.179-.829,2.179-2.727s-.92-2.727-2.179-2.727-2.163.829-2.163,2.727S124.291,64.33,125.561,64.33Z" transform="translate(-73.234 -56.006)"></path><path id="Tracé_50" data-name="Tracé 50" d="M139.016,59.113a1.092,1.092,0,0,0-.186-.011h-.159c-1.355,0-1.8.978-1.8,2.371v3.45h-.744v-6.58h.723v1.2A2.123,2.123,0,0,1,138.8,58.29h.1a.478.478,0,0,1,.122.011v.808Z" transform="translate(-79.577 -56.057)"></path><path id="Tracé_51" data-name="Tracé 51" d="M144.9,56.264a2.488,2.488,0,0,1,2.227,1.249V54.09h.76v8.866h-.76V61.882a2.507,2.507,0,0,1-2.227,1.233c-1.515,0-2.753-1.233-2.753-3.423s1.233-3.423,2.753-3.423Zm.159.686c-1.222,0-2.094.989-2.094,2.737s.866,2.737,2.094,2.737c.989,0,2.115-.781,2.115-2.737S146.051,56.95,145.063,56.95Z" transform="translate(-82.398 -54.09)"></path><path id="Tracé_52" data-name="Tracé 52" d="M155.28,61.6a3.1,3.1,0,0,1,3.083-3.423c1.759,0,3.035,1.568,2.934,3.62h-5.235a2.336,2.336,0,0,0,2.371,2.53,1.917,1.917,0,0,0,2-1.43h.8a2.708,2.708,0,0,1-2.849,2.126C156.465,65.026,155.28,63.644,155.28,61.6Zm.808-.5h4.38a2.158,2.158,0,0,0-2.115-2.238,2.217,2.217,0,0,0-2.264,2.238Z" transform="translate(-88.549 -56.006)"></path><path id="Tracé_53" data-name="Tracé 53" d="M171.816,59.113a1.092,1.092,0,0,0-.186-.011h-.159c-1.355,0-1.8.978-1.8,2.371v3.45h-.744v-6.58h.723v1.2A2.123,2.123,0,0,1,171.6,58.29h.1a.478.478,0,0,1,.122.011v.808Z" transform="translate(-94.944 -56.057)"></path><path id="Tracé_54" data-name="Tracé 54" d="M179.48,60.069a1.692,1.692,0,0,0-1.812-1.249c-.723,0-1.674.282-1.674,1.074,0,.648.5.989,1.233,1.127l.93.17c1.074.2,2.275.563,2.275,1.812,0,1.308-1.185,2-2.615,2a2.453,2.453,0,0,1-2.727-2.179h.8a1.8,1.8,0,0,0,1.993,1.5c.8,0,1.786-.33,1.786-1.212,0-.771-.733-1.042-1.626-1.212l-1.026-.2c-.941-.2-1.786-.723-1.786-1.759s1.042-1.812,2.519-1.812a2.36,2.36,0,0,1,2.53,1.919h-.8Z" transform="translate(-97.83 -55.987)"></path></g></g></g></svg> 