<?xml version="1.0" encoding="UTF-8"?> <svg xmlns="http://www.w3.org/2000/svg" width="101.754" height="34.033" viewBox="0 0 101.754 34.033"><g id="Groupe_1192" data-name="Groupe 1192" transform="translate(18750 20082)"><g id="ASFC_LOGO_FR" transform="translate(-18756.721 -20113)"><g id="Groupe_1" data-name="Groupe 1" transform="translate(30.72 31)"><path id="Tracé_1" data-name="Tracé 1" d="M34.048,31H35.7l3.354,8.936H37.344l-.7-1.983H33.016l-.691,1.983H30.72Zm-.579,5.645h2.7l-1.356-3.833Z" transform="translate(-30.72 -31)"></path><path id="Tracé_2" data-name="Tracé 2" d="M49.307,40.066l1.515-4.736h1.531l-2.392,6.634H48.579L46.16,35.33h1.616Z" transform="translate(-37.952 -33.028)"></path><path id="Tracé_3" data-name="Tracé 3" d="M64.819,38.527a3.275,3.275,0,1,1-6.539,0,3.275,3.275,0,1,1,6.539,0ZM61.549,40.8c.936,0,1.749-.739,1.749-2.27s-.813-2.281-1.749-2.281S59.8,37,59.8,38.527,60.614,40.8,61.549,40.8Z" transform="translate(-43.629 -32.897)"></path><path id="Tracé_4" data-name="Tracé 4" d="M77.99,37.468H76.56a1.5,1.5,0,0,0-1.542-1.2c-.925,0-1.738.68-1.738,2.243s.84,2.254,1.7,2.254a1.52,1.52,0,0,0,1.627-1.207h1.43a3.042,3.042,0,0,1-3.083,2.429,3.207,3.207,0,0,1-3.195-3.466,3.227,3.227,0,0,1,3.253-3.477,2.94,2.94,0,0,1,2.972,2.419Z" transform="translate(-49.943 -32.896)"></path><path id="Tracé_5" data-name="Tracé 5" d="M84.73,39.972c0-1.664,2.047-2.057,4.465-2.318v-.122c0-1.132-.643-1.478-1.382-1.478a1.2,1.2,0,0,0-1.329,1.2H85.044a2.574,2.574,0,0,1,2.823-2.281,2.493,2.493,0,0,1,2.8,2.849c0,.319-.027,1.111-.027,1.712a10.984,10.984,0,0,0,.2,2.27H89.488a7.857,7.857,0,0,1-.122-.9,2.344,2.344,0,0,1-2.18,1.058c-1.441,0-2.456-.776-2.456-1.983Zm4.5-1.3c-2.094.2-2.945.505-2.945,1.26,0,.579.478.925,1.223.925a1.525,1.525,0,0,0,1.728-1.675v-.505Z" transform="translate(-56.019 -32.86)"></path><path id="Tracé_6" data-name="Tracé 6" d="M97.959,32.04h1.467v1.749h1.329v1.058H99.426v3.615c0,.68.159.84.787.84h.532v1.122H99.66c-1.419,0-1.7-.383-1.7-1.738V34.852H96.97V33.794h.989V32.045Z" transform="translate(-61.752 -31.487)"></path><path id="Tracé_7" data-name="Tracé 7" d="M109.524,37.016c-.159-.606-.718-.84-1.457-.84-.643,0-1.233.282-1.233.728s.308.68.888.787l.936.186c1.345.26,2.366.68,2.366,1.972,0,1.382-1.308,2.148-2.812,2.148a2.645,2.645,0,0,1-2.871-2.18h1.43a1.314,1.314,0,0,0,1.494,1.074c.776,0,1.329-.319,1.329-.861s-.494-.776-1.148-.914l-1-.2c-1.122-.234-2-.718-2-1.935s1.271-1.924,2.7-1.924a2.574,2.574,0,0,1,2.748,1.962h-1.382Z" transform="translate(-65.673 -32.902)"></path></g><g id="Groupe_2" data-name="Groupe 2" transform="translate(30.832 43.344)"><path id="Tracé_8" data-name="Tracé 8" d="M35.358,60.251a1.7,1.7,0,0,0-1.823-1.26c-.728,0-1.69.282-1.69,1.084,0,.654.505,1,1.244,1.132l.936.17c1.084.2,2.291.569,2.291,1.823,0,1.318-1.2,2.02-2.637,2.02a2.472,2.472,0,0,1-2.748-2.2h.8a1.814,1.814,0,0,0,2.009,1.515c.8,0,1.8-.335,1.8-1.223,0-.776-.739-1.047-1.637-1.223l-1.037-.2c-.952-.2-1.8-.728-1.8-1.776S32.115,58.3,33.609,58.3a2.375,2.375,0,0,1,2.552,1.935h-.8Z" transform="translate(-30.93 -56.131)"></path><path id="Tracé_9" data-name="Tracé 9" d="M47.353,64.053a2.738,2.738,0,0,1-2.488,1.17,1.958,1.958,0,0,1-2.2-1.813c0-1.515,1.478-2.047,4.673-2.382v-.234a1.617,1.617,0,0,0-1.85-1.839,1.646,1.646,0,0,0-1.861,1.494h-.8a2.523,2.523,0,0,1,2.711-2.169c1.488,0,2.562.643,2.562,2.615,0,.925-.011,1.515-.011,2.047,0,.75.037,1.393.074,2.121h-.776Zm-2.318.494a2.2,2.2,0,0,0,2.344-2.514v-.319c-2.69.3-3.859.664-3.859,1.69,0,.7.627,1.148,1.515,1.148Z" transform="translate(-36.429 -56.122)"></path><path id="Tracé_10" data-name="Tracé 10" d="M56.445,59.578a2.3,2.3,0,0,1,2.206-1.233c1.568,0,2.233.936,2.233,2.562v4.178h-.765V61.114c0-1.244-.335-2.084-1.664-2.084A2.127,2.127,0,0,0,56.445,61.4v3.689H55.68V58.451h.765v1.122Z" transform="translate(-42.523 -56.149)"></path><path id="Tracé_11" data-name="Tracé 11" d="M71.908,60.251a1.7,1.7,0,0,0-1.823-1.26c-.728,0-1.69.282-1.69,1.084,0,.654.505,1,1.244,1.132l.936.17c1.084.2,2.291.569,2.291,1.823,0,1.318-1.2,2.02-2.637,2.02a2.514,2.514,0,0,1-2.748-2.2h.8a1.811,1.811,0,0,0,2.009,1.515c.8,0,1.8-.335,1.8-1.223,0-.776-.739-1.047-1.637-1.223l-1.037-.2c-.952-.2-1.8-.728-1.8-1.776S68.665,58.3,70.159,58.3a2.375,2.375,0,0,1,2.552,1.935h-.8Z" transform="translate(-48.05 -56.131)"></path><path id="Tracé_12" data-name="Tracé 12" d="M85,55.708c0-1.084.282-1.478,1.542-1.478h.542v.7h-.383c-.84,0-.936.074-.936.888v.718h1.318V57.2H85.77v5.97H85V57.2H84.09v-.664H85v-.824Z" transform="translate(-55.831 -54.225)"></path><path id="Tracé_13" data-name="Tracé 13" d="M94.518,59.289a1.092,1.092,0,0,0-.186-.011h-.159c-1.366,0-1.813.989-1.813,2.392v3.477h-.75V58.513h.728V59.72A2.141,2.141,0,0,1,94.3,58.46h.1a.479.479,0,0,1,.122.011v.813Z" transform="translate(-59.353 -56.206)"></path><path id="Tracé_14" data-name="Tracé 14" d="M100.628,58.35c1.589,0,3.009,1.037,3.009,3.45s-1.419,3.45-3.009,3.45-3-1.037-3-3.45,1.419-3.45,3-3.45Zm0,6.2c1.271,0,2.2-.84,2.2-2.748s-.925-2.748-2.2-2.748-2.18.84-2.18,2.748S99.347,64.554,100.628,64.554Z" transform="translate(-62.173 -56.155)"></path><path id="Tracé_15" data-name="Tracé 15" d="M111.965,59.578a2.3,2.3,0,0,1,2.206-1.233c1.568,0,2.233.936,2.233,2.562v4.178h-.765V61.114c0-1.244-.335-2.084-1.664-2.084a2.127,2.127,0,0,0-2.009,2.366v3.689H111.2V58.451h.765v1.122Z" transform="translate(-68.529 -56.149)"></path><path id="Tracé_16" data-name="Tracé 16" d="M123.485,55.76h.776v1.494h1.308v.664h-1.308V62.16c0,.851.027,1.037.914,1.037h.393v.691h-.627c-1.185,0-1.457-.26-1.457-1.579V57.918h-1.1v-.664h1.1Z" transform="translate(-73.771 -54.941)"></path><path id="Tracé_17" data-name="Tracé 17" d="M131.375,54.22v1.223h-.766V54.22Zm0,2.307v6.634h-.766V56.527Z" transform="translate(-77.621 -54.22)"></path><path id="Tracé_18" data-name="Tracé 18" d="M134.33,59.875a3.123,3.123,0,0,1,3.1-3.45c1.776,0,3.057,1.579,2.961,3.652h-5.279a2.356,2.356,0,0,0,2.392,2.552,1.925,1.925,0,0,0,2.02-1.441h.8a2.735,2.735,0,0,1-2.871,2.148c-1.935,0-3.131-1.393-3.131-3.45Zm.813-.505h4.412a2.173,2.173,0,0,0-2.132-2.254,2.231,2.231,0,0,0-2.281,2.254Zm.282-5.14h1.169l1.111,1.43h-.68l-1.605-1.43Z" transform="translate(-79.363 -54.225)"></path><path id="Tracé_19" data-name="Tracé 19" d="M150.913,59.289a1.092,1.092,0,0,0-.186-.011h-.159c-1.366,0-1.813.989-1.813,2.392v3.477H148V58.513h.728V59.72a2.141,2.141,0,0,1,1.962-1.26h.1a.479.479,0,0,1,.122.011v.813Z" transform="translate(-85.767 -56.206)"></path><path id="Tracé_20" data-name="Tracé 20" d="M154.04,61.81a3.123,3.123,0,0,1,3.1-3.45c1.776,0,3.057,1.579,2.961,3.652h-5.279a2.356,2.356,0,0,0,2.392,2.552,1.925,1.925,0,0,0,2.02-1.441h.8a2.735,2.735,0,0,1-2.871,2.148c-1.935,0-3.131-1.393-3.131-3.45Zm.813-.505h4.412a2.173,2.173,0,0,0-2.132-2.254A2.231,2.231,0,0,0,154.853,61.305Z" transform="translate(-88.596 -56.159)"></path><path id="Tracé_21" data-name="Tracé 21" d="M171.288,60.251a1.7,1.7,0,0,0-1.823-1.26c-.728,0-1.69.282-1.69,1.084,0,.654.505,1,1.244,1.132l.936.17c1.084.2,2.291.569,2.291,1.823,0,1.318-1.2,2.02-2.637,2.02a2.472,2.472,0,0,1-2.748-2.2h.8a1.814,1.814,0,0,0,2.009,1.515c.8,0,1.8-.335,1.8-1.223,0-.776-.739-1.047-1.637-1.223l-1.037-.2c-.952-.2-1.8-.728-1.8-1.776s1.047-1.823,2.541-1.823a2.375,2.375,0,0,1,2.552,1.935h-.8Z" transform="translate(-94.601 -56.131)"></path></g><g id="Groupe_3" data-name="Groupe 3" transform="translate(30.725 59.337)"><path id="Tracé_22" data-name="Tracé 22" d="M35.5,88.13A2.233,2.233,0,0,1,33.17,90c-1.574,0-2.44-1.191-2.44-2.849s.888-2.839,2.461-2.839a2.214,2.214,0,0,1,2.281,1.866H34.94A1.731,1.731,0,0,0,33.175,84.8c-1.084,0-1.908.84-1.908,2.355s.781,2.366,1.908,2.366a1.722,1.722,0,0,0,1.786-1.377h.532Z" transform="translate(-30.73 -84.306)"></path><path id="Tracé_23" data-name="Tracé 23" d="M43.331,90.521a1.683,1.683,0,0,1-1.531.718,1.2,1.2,0,0,1-1.35-1.111c0-.93.909-1.26,2.871-1.462v-.144a.992.992,0,0,0-1.138-1.127,1.01,1.01,0,0,0-1.143.914h-.494a1.551,1.551,0,0,1,1.669-1.334,1.4,1.4,0,0,1,1.574,1.605c0,.569-.005.93-.005,1.26,0,.462.021.856.043,1.3h-.478l-.021-.622Zm-1.425.3a1.352,1.352,0,0,0,1.441-1.547v-.2c-1.653.181-2.371.409-2.371,1.037,0,.431.388.707.93.707Z" transform="translate(-35.283 -85.554)"></path><path id="Tracé_24" data-name="Tracé 24" d="M48.932,87.777a1.4,1.4,0,0,1,1.356-.76c.962,0,1.372.574,1.372,1.574v2.568h-.468v-2.44c0-.765-.2-1.281-1.021-1.281a1.306,1.306,0,0,0-1.233,1.457v2.265H48.47V87.08h.468v.691Z" transform="translate(-39.04 -85.574)"></path><path id="Tracé_25" data-name="Tracé 25" d="M58.511,90.521a1.683,1.683,0,0,1-1.531.718,1.2,1.2,0,0,1-1.35-1.111c0-.93.909-1.26,2.871-1.462v-.144A.992.992,0,0,0,57.363,87.4a1.01,1.01,0,0,0-1.143.914h-.494a1.55,1.55,0,0,1,1.664-1.334,1.4,1.4,0,0,1,1.574,1.605c0,.569-.005.93-.005,1.26,0,.462.021.856.048,1.3h-.478l-.021-.622Zm-1.425.3a1.354,1.354,0,0,0,1.441-1.547v-.2c-1.653.181-2.371.409-2.371,1.037,0,.431.388.707.93.707Z" transform="translate(-42.393 -85.554)"></path><path id="Tracé_26" data-name="Tracé 26" d="M64.726,85.83A1.542,1.542,0,0,1,66.1,86.6V84.48h.468v5.491H66.1v-.664a1.552,1.552,0,0,1-1.377.765c-.941,0-1.706-.765-1.706-2.121s.765-2.121,1.706-2.121Zm.1.425c-.755,0-1.3.611-1.3,1.7s.537,1.7,1.3,1.7c.611,0,1.313-.484,1.313-1.7s-.7-1.7-1.313-1.7Z" transform="translate(-45.855 -84.388)"></path><path id="Tracé_27" data-name="Tracé 27" d="M73.981,90.521a1.683,1.683,0,0,1-1.531.718,1.2,1.2,0,0,1-1.35-1.111c0-.93.909-1.26,2.871-1.462v-.144a.992.992,0,0,0-1.138-1.127,1.01,1.01,0,0,0-1.143.914H71.2a1.551,1.551,0,0,1,1.669-1.334,1.4,1.4,0,0,1,1.574,1.605c0,.569-.005.93-.005,1.26,0,.462.021.856.043,1.3H74l-.021-.622Zm-1.425.3A1.352,1.352,0,0,0,74,89.277v-.2c-1.653.181-2.371.409-2.371,1.037,0,.431.388.707.93.707Z" transform="translate(-49.64 -85.554)"></path></g></g><g id="Groupe_1191" data-name="Groupe 1191" transform="translate(-536 -2807)"><path id="Tracé_275" data-name="Tracé 275" d="M.006,8.332a8.332,8.332,0,1,1,8.332,8.332A8.332,8.332,0,0,1,.006,8.332" transform="translate(-18214.004 -17275)"></path><rect id="Rectangle_266" data-name="Rectangle 266" width="16.64" height="7.612" transform="translate(-18214 -17257.258)"></rect><rect id="Rectangle_267" data-name="Rectangle 267" width="16.64" height="7.612" transform="translate(-18214 -17248.58)"></rect></g></g></svg> 