<?xml version="1.0" encoding="UTF-8"?> <svg xmlns="http://www.w3.org/2000/svg" width="146.27" height="64.01" viewBox="0 0 146.27 64.01"><g id="ASFC_LOGO_FR" transform="translate(-30.72 -31)"><g id="Groupe_1" data-name="Groupe 1"><path id="Tracé_1" data-name="Tracé 1" d="M36.98,31h3.11L46.4,47.81H43.18l-1.32-3.73H35.04l-1.3,3.73H30.72L36.98,31ZM35.89,41.62h5.08l-2.55-7.21-2.53,7.21Z"></path><path id="Tracé_2" data-name="Tracé 2" d="M52.08,44.24l2.85-8.91h2.88l-4.5,12.48h-2.6L46.16,35.33H49.2l2.88,8.91Z"></path><path id="Tracé_3" data-name="Tracé 3" d="M70.58,41.59c0,4.52-3.11,6.52-6.15,6.52s-6.15-1.99-6.15-6.52,3.11-6.54,6.15-6.54S70.58,37.09,70.58,41.59Zm-6.15,4.27c1.76,0,3.29-1.39,3.29-4.27s-1.53-4.29-3.29-4.29-3.29,1.41-3.29,4.29S62.67,45.86,64.43,45.86Z"></path><path id="Tracé_4" data-name="Tracé 4" d="M83.48,39.6H80.79a2.819,2.819,0,0,0-2.9-2.25c-1.74,0-3.27,1.28-3.27,4.22s1.58,4.24,3.2,4.24a2.859,2.859,0,0,0,3.06-2.27h2.69a5.723,5.723,0,0,1-5.8,4.57c-3.62,0-6.01-2.81-6.01-6.52s2.39-6.54,6.12-6.54a5.531,5.531,0,0,1,5.59,4.55Z"></path><path id="Tracé_5" data-name="Tracé 5" d="M84.73,44.38c0-3.13,3.85-3.87,8.4-4.36v-.23c0-2.13-1.21-2.78-2.6-2.78a2.251,2.251,0,0,0-2.5,2.25H85.32c.19-2.53,2.3-4.29,5.31-4.29s5.33,1.37,5.26,5.36c0,.6-.05,2.09-.05,3.22a20.662,20.662,0,0,0,.37,4.27H93.68a14.783,14.783,0,0,1-.23-1.69,4.41,4.41,0,0,1-4.1,1.99c-2.71,0-4.62-1.46-4.62-3.73Zm8.47-2.44c-3.94.37-5.54.95-5.54,2.37,0,1.09.9,1.74,2.3,1.74,2.04,0,3.25-1.02,3.25-3.15v-.95Z"></path><path id="Tracé_6" data-name="Tracé 6" d="M98.83,32.04h2.76v3.29h2.5v1.99h-2.5v6.8c0,1.28.3,1.58,1.48,1.58h1v2.11h-2.04c-2.67,0-3.2-.72-3.2-3.27V37.33H96.97V35.34h1.86V32.05Z"></path><path id="Tracé_7" data-name="Tracé 7" d="M113.21,38.74c-.3-1.14-1.35-1.58-2.74-1.58-1.21,0-2.32.53-2.32,1.37s.58,1.28,1.67,1.48l1.76.35c2.53.49,4.45,1.28,4.45,3.71,0,2.6-2.46,4.04-5.29,4.04-3.06,0-5.1-1.76-5.4-4.1h2.69c.25,1.3,1.16,2.02,2.81,2.02,1.46,0,2.5-.6,2.5-1.62s-.93-1.46-2.16-1.72l-1.88-.37c-2.11-.44-3.76-1.35-3.76-3.64s2.39-3.62,5.08-3.62c2.44,0,4.66,1.18,5.17,3.69h-2.6Z"></path></g><g id="Groupe_2" data-name="Groupe 2"><path id="Tracé_8" data-name="Tracé 8" d="M39.26,61.97a3.2,3.2,0,0,0-3.43-2.37c-1.37,0-3.18.53-3.18,2.04,0,1.23.95,1.88,2.34,2.13l1.76.32c2.04.37,4.31,1.07,4.31,3.43,0,2.48-2.25,3.8-4.96,3.8s-4.8-1.28-5.17-4.13h1.51c.26,1.95,1.88,2.85,3.78,2.85,1.51,0,3.39-.63,3.39-2.3,0-1.46-1.39-1.97-3.08-2.3l-1.95-.37c-1.79-.37-3.39-1.37-3.39-3.34s1.97-3.43,4.78-3.43,4.5,1.67,4.8,3.64H39.26Z"></path><path id="Tracé_9" data-name="Tracé 9" d="M51.48,69.14a5.151,5.151,0,0,1-4.68,2.2c-2.31,0-4.13-1.34-4.13-3.41,0-2.85,2.78-3.85,8.79-4.48v-.44c0-2.85-1.69-3.46-3.48-3.46-2.13,0-3.39,1.16-3.5,2.81H42.97c.35-2.48,2.3-4.08,5.1-4.08s4.82,1.21,4.82,4.92c0,1.74-.02,2.85-.02,3.85,0,1.41.07,2.62.14,3.99H51.55l-.07-1.9Zm-4.36.93c2.32,0,4.41-1.21,4.41-4.73v-.6c-5.06.56-7.26,1.25-7.26,3.18,0,1.32,1.18,2.16,2.85,2.16Z"></path><path id="Tracé_10" data-name="Tracé 10" d="M57.12,60.67a4.32,4.32,0,0,1,4.15-2.32c2.95,0,4.2,1.76,4.2,4.82v7.86H64.03V63.56c0-2.34-.63-3.92-3.13-3.92-2.16,0-3.78,1.81-3.78,4.45v6.94H55.68V58.55h1.44v2.11Z"></path><path id="Tracé_11" data-name="Tracé 11" d="M75.81,61.97a3.2,3.2,0,0,0-3.43-2.37c-1.37,0-3.18.53-3.18,2.04,0,1.23.95,1.88,2.34,2.13l1.76.32c2.04.37,4.31,1.07,4.31,3.43,0,2.48-2.25,3.8-4.96,3.8-2.57,0-4.8-1.28-5.17-4.13h1.51c.25,1.95,1.88,2.85,3.78,2.85,1.51,0,3.39-.63,3.39-2.3,0-1.46-1.39-1.97-3.08-2.3l-1.95-.37c-1.79-.37-3.39-1.37-3.39-3.34s1.97-3.43,4.78-3.43,4.5,1.67,4.8,3.64H75.81Z"></path><path id="Tracé_12" data-name="Tracé 12" d="M85.81,57.01c0-2.04.53-2.78,2.9-2.78h1.02v1.32h-.72c-1.58,0-1.76.14-1.76,1.67v1.35h2.48v1.25H87.25V71.05H85.81V59.82H84.09V58.57h1.72V57.02Z"></path><path id="Tracé_13" data-name="Tracé 13" d="M97.08,60.02a2.055,2.055,0,0,0-.35-.02h-.3c-2.57,0-3.41,1.86-3.41,4.5v6.54H91.61V58.56h1.37v2.27a4.028,4.028,0,0,1,3.69-2.37h.19a.9.9,0,0,1,.23.02v1.53Z"></path><path id="Tracé_14" data-name="Tracé 14" d="M103.27,58.35c2.99,0,5.66,1.95,5.66,6.49s-2.67,6.49-5.66,6.49-5.64-1.95-5.64-6.49,2.67-6.49,5.64-6.49Zm0,11.67c2.39,0,4.13-1.58,4.13-5.17s-1.74-5.17-4.13-5.17-4.1,1.58-4.1,5.17S100.86,70.02,103.27,70.02Z"></path><path id="Tracé_15" data-name="Tracé 15" d="M112.64,60.67a4.32,4.32,0,0,1,4.15-2.32c2.95,0,4.2,1.76,4.2,4.82v7.86h-1.44V63.56c0-2.34-.63-3.92-3.13-3.92-2.16,0-3.78,1.81-3.78,4.45v6.94H111.2V58.55h1.44v2.11Z"></path><path id="Tracé_16" data-name="Tracé 16" d="M124.45,55.76h1.46v2.81h2.46v1.25h-2.46V67.8c0,1.6.05,1.95,1.72,1.95h.74v1.3h-1.18c-2.23,0-2.74-.49-2.74-2.97V59.82h-2.06V58.57h2.06Z"></path><path id="Tracé_17" data-name="Tracé 17" d="M132.05,54.22v2.3h-1.44v-2.3Zm0,4.34V71.04h-1.44V58.56Z"></path><path id="Tracé_18" data-name="Tracé 18" d="M134.33,64.85c0-4.01,2.5-6.49,5.84-6.49s5.75,2.97,5.57,6.87h-9.93c.07,3.04,1.95,4.8,4.5,4.8a3.622,3.622,0,0,0,3.8-2.71h1.51a5.144,5.144,0,0,1-5.4,4.04c-3.64,0-5.89-2.62-5.89-6.49Zm1.53-.95h8.3a4.087,4.087,0,0,0-4.01-4.24c-2.32,0-3.99,1.46-4.29,4.24Zm.53-9.67h2.2l2.09,2.69H139.4l-3.02-2.69Z"></path><path id="Tracé_19" data-name="Tracé 19" d="M153.48,60.02a2.055,2.055,0,0,0-.35-.02h-.3c-2.57,0-3.41,1.86-3.41,4.5v6.54H148V58.56h1.37v2.27a4.028,4.028,0,0,1,3.69-2.37h.19a.9.9,0,0,1,.23.02v1.53Z"></path><path id="Tracé_20" data-name="Tracé 20" d="M154.04,64.85c0-4.01,2.5-6.49,5.84-6.49s5.75,2.97,5.57,6.87h-9.93c.07,3.04,1.95,4.8,4.5,4.8a3.622,3.622,0,0,0,3.8-2.71h1.51a5.144,5.144,0,0,1-5.4,4.04c-3.64,0-5.89-2.62-5.89-6.49Zm1.53-.95h8.3a4.087,4.087,0,0,0-4.01-4.24c-2.32,0-3.99,1.46-4.29,4.24Z"></path><path id="Tracé_21" data-name="Tracé 21" d="M175.19,61.97a3.2,3.2,0,0,0-3.43-2.37c-1.37,0-3.18.53-3.18,2.04,0,1.23.95,1.88,2.34,2.13l1.76.32c2.04.37,4.31,1.07,4.31,3.43,0,2.48-2.25,3.8-4.96,3.8s-4.8-1.28-5.17-4.13h1.51c.26,1.95,1.88,2.85,3.78,2.85,1.51,0,3.39-.63,3.39-2.3,0-1.46-1.39-1.97-3.08-2.3l-1.95-.37c-1.79-.37-3.39-1.37-3.39-3.34s1.97-3.43,4.78-3.43,4.5,1.67,4.8,3.64h-1.51Z"></path></g><g id="Groupe_3" data-name="Groupe 3"><path id="Tracé_22" data-name="Tracé 22" d="M39.7,91.5a4.2,4.2,0,0,1-4.38,3.51c-2.96,0-4.59-2.24-4.59-5.36s1.67-5.34,4.63-5.34a4.164,4.164,0,0,1,4.29,3.51h-1a3.257,3.257,0,0,0-3.32-2.59c-2.04,0-3.59,1.58-3.59,4.43s1.47,4.45,3.59,4.45a3.24,3.24,0,0,0,3.36-2.59h1Z"></path><path id="Tracé_23" data-name="Tracé 23" d="M45.87,93.65A3.165,3.165,0,0,1,42.99,95a2.263,2.263,0,0,1-2.54-2.09c0-1.75,1.71-2.37,5.4-2.75v-.27a1.866,1.866,0,0,0-2.14-2.12,1.9,1.9,0,0,0-2.15,1.72h-.93a2.918,2.918,0,0,1,3.14-2.51c1.73,0,2.96.74,2.96,3.02,0,1.07-.01,1.75-.01,2.37,0,.87.04,1.61.08,2.45h-.9l-.04-1.17Zm-2.68.57c1.43,0,2.71-.74,2.71-2.91v-.37c-3.11.34-4.46.77-4.46,1.95,0,.81.73,1.33,1.75,1.33Z"></path><path id="Tracé_24" data-name="Tracé 24" d="M49.34,88.45a2.639,2.639,0,0,1,2.55-1.43c1.81,0,2.58,1.08,2.58,2.96v4.83h-.88V90.22c0-1.44-.38-2.41-1.92-2.41a2.456,2.456,0,0,0-2.32,2.74v4.26h-.88V87.14h.88v1.3Z"></path><path id="Tracé_25" data-name="Tracé 25" d="M61.05,93.65A3.165,3.165,0,0,1,58.17,95a2.263,2.263,0,0,1-2.54-2.09c0-1.75,1.71-2.37,5.4-2.75v-.27a1.866,1.866,0,0,0-2.14-2.12,1.9,1.9,0,0,0-2.15,1.72h-.93a2.915,2.915,0,0,1,3.13-2.51c1.72,0,2.96.74,2.96,3.02,0,1.07-.01,1.75-.01,2.37,0,.87.04,1.61.09,2.45h-.9l-.04-1.17Zm-2.68.57c1.42,0,2.71-.74,2.71-2.91v-.37c-3.11.34-4.46.77-4.46,1.95,0,.81.73,1.33,1.75,1.33Z"></path><path id="Tracé_26" data-name="Tracé 26" d="M66.23,87.02a2.9,2.9,0,0,1,2.59,1.45V84.48h.88V94.81h-.88V93.56A2.919,2.919,0,0,1,66.23,95c-1.77,0-3.21-1.44-3.21-3.99s1.44-3.99,3.21-3.99Zm.19.8c-1.42,0-2.44,1.15-2.44,3.19s1.01,3.19,2.44,3.19c1.15,0,2.47-.91,2.47-3.19S67.58,87.82,66.42,87.82Z"></path><path id="Tracé_27" data-name="Tracé 27" d="M76.52,93.65A3.165,3.165,0,0,1,73.64,95a2.263,2.263,0,0,1-2.54-2.09c0-1.75,1.71-2.37,5.4-2.75v-.27a1.866,1.866,0,0,0-2.14-2.12,1.9,1.9,0,0,0-2.15,1.72h-.93a2.918,2.918,0,0,1,3.14-2.51c1.73,0,2.96.74,2.96,3.02,0,1.07-.01,1.75-.01,2.37,0,.87.04,1.61.08,2.45h-.9l-.04-1.17Zm-2.68.57c1.43,0,2.71-.74,2.71-2.91v-.37c-3.11.34-4.46.77-4.46,1.95,0,.81.73,1.33,1.75,1.33Z"></path></g></g></svg> 