<?xml version="1.0" encoding="UTF-8"?> <svg xmlns="http://www.w3.org/2000/svg" xmlns:xlink="http://www.w3.org/1999/xlink" id="Groupe_1190" data-name="Groupe 1190" width="769.322" height="211.551" viewBox="0 0 769.322 211.551"><defs><clipPath id="clip-path"><rect id="Rectangle_108" data-name="Rectangle 108" width="769.322" height="211.551" transform="translate(0)" fill="#fff"></rect></clipPath></defs><g id="Groupe_109" data-name="Groupe 109" transform="translate(0 0)" clip-path="url(#clip-path)"><path id="Tracé_55" data-name="Tracé 55" d="M1083.387,62.265c10.554.255,21.467,1.181,31.92,4.949,14.044,5.063,23.908,13.943,28.346,27.4,5.378,16.314,5.251,32.629-2.007,48.5-5.032,11-14.2,18.191-26.048,22.431-12.845,4.6-26.228,5.489-39.858,4.764-10.053-.535-19.825-2.045-29.024-5.995-15.035-6.455-23.585-17.574-26.807-32.477a68.261,68.261,0,0,1,1.759-36.951c5.267-15.563,17.109-24.71,33.49-29.275,9.033-2.518,18.343-3.23,28.23-3.347m-.668,76.566c2.183,0,4.388.185,6.546-.031,11.426-1.143,23.527-4.8,24.162-20.756.444-11.114-3.382-19.711-17.389-22.88a62.253,62.253,0,0,0-25.362-.314c-11.85,2.232-19.113,8.889-18.434,21.132.065,1.158-.012,2.322.029,3.482.281,8.278,4.911,14.227,13.3,17.164a44.4,44.4,0,0,0,17.145,2.2" transform="translate(-380.536 -27.641)" fill="#fff"></path><path id="Tracé_56" data-name="Tracé 56" d="M58.747,49.775a72.645,72.645,0,0,1,10.736,2.472C82.825,56.629,90.5,66.134,90.777,78.723c.3,13.355-6.776,23.345-19.967,28.314-8.285,3.121-16.951,3.721-25.747,3.476-14.146-.395-28.289-.82-42.446-.7-.884.007-2.316.8-2.587-1.068-.256-1.764,1.134-1.839,2.218-2.189,3.831-1.236,7.667-2.464,11.543-3.568,1.719-.489,2.466-1.19,2.461-3.025q-.106-44.727,0-89.453c0-1.811-.687-2.551-2.429-3.044-3.68-1.041-7.289-2.3-10.961-3.367-1.17-.341-1.76-.808-1.7-2.013C1.251.471,2.49.877,3.435.888,17.7,1.05,31.943.6,46.191.06A63.4,63.4,0,0,1,66.249,2.232c8.7,2.508,15.355,7.1,16.94,16.012,1.755,9.867-.853,18.43-9.719,24.761A41.792,41.792,0,0,1,60.6,48.741c-.629.182-1.514-.041-1.849,1.033M30.808,78.966q0,7.837,0,15.675c0,10.712-.012,10.876,11.681,11.512,8.637.47,16.861-1.071,23.467-6.765,8.117-7,9.576-16.112,8.11-25.628-1.654-10.747-8.174-16.673-19.637-19.12-6.979-1.49-14.023-1.369-21.1-.944-2,.12-2.592.769-2.564,2.628.111,7.546.046,15.094.046,22.642m0-51.96H30.8c0,6.285.051,12.57-.034,18.854-.024,1.718.529,2.364,2.448,2.439a85.837,85.837,0,0,0,12.456-.056c9.5-1.014,17.187-4.455,20.585-13.5a27.543,27.543,0,0,0,1.078-14.332c-1.39-8.472-6.452-13.081-15.609-14.7-6-1.062-12-.4-18.007.07-2.212.171-3.024.771-2.965,2.951.165,6.088.057,12.182.057,18.273" transform="translate(1.439 -1.561)" fill="#fff"></path><path id="Tracé_57" data-name="Tracé 57" d="M800.074,127.067c-5.849,4.948-11.714,8.748-18.859,10.381A40.2,40.2,0,0,1,757.94,136.3c-9.635-3.567-12.906-11.236-13.143-20.021-.388-14.316-.226-28.646-.15-42.97.01-2.078-.546-3.118-2.748-3.686-2.69-.693-5.249-1.827-7.918-2.606A1.776,1.776,0,0,1,732.5,64.86c.1-1.208,1.116-.91,1.884-.952,7.683-.427,15.372-.776,23.047-1.3,2.235-.152,1.733,1.15,1.729,2.21Q759.1,84.566,759,104.31c-.023,5.9-.065,11.8,1.745,17.552,2.792,8.871,9.2,12.559,18.908,10.856,11.947-2.1,18.79-9.494,19.5-20.82.833-13.248.437-26.5.448-39.754a2,2,0,0,0-1.744-2.273c-2.889-.777-5.755-1.639-8.62-2.5-1.158-.349-2.34-.6-2.077-2.272.257-1.644,1.493-1.032,2.355-1.085,7.265-.452,14.543-.742,21.8-1.315,2.394-.189,2.92.374,2.9,2.552-.166,16.646-.2,33.292-.251,49.939-.012,3.87.142,7.743.051,11.611-.04,1.707.356,2.577,2.381,2.912,3.263.54,6.445,1.488,9.681,2.191,1.067.231,1.6.621,1.637,1.721.044,1.36-.907,1.249-1.841,1.349-7.643.816-15.29,1.6-22.918,2.515-1.682.2-1.924-.4-2.014-1.692-.19-2.675-.522-5.342-.867-8.729" transform="translate(-273.358 -27.781)" fill="#fff"></path><path id="Tracé_58" data-name="Tracé 58" d="M206.089,124.108c-5.611,9.89-14.122,13.912-25.105,13.785-10.019-.116-18.336-5.393-21.315-13.422-3.287-8.857-.409-18.038,7.636-23.928,6.575-4.813,14.285-6.958,22.459-7.861a96.916,96.916,0,0,1,14.332-.561c1.794.068,2.3-.469,2.229-2.1-.131-3.093-.039-6.194-.032-9.292.016-7.257-3.115-12.081-9.325-14.36A18.253,18.253,0,0,0,177.6,70.566c-3.06,3.1-4.949,6.869-7.073,10.921-2.558-2.981-4.8-5.732-7.214-8.341-1.136-1.226-.371-1.8.459-2.615a33.932,33.932,0,0,1,15.689-8.547,59,59,0,0,1,22.284-1.157c12.981,1.674,18.618,7.927,18.632,20.232.016,14.618.091,29.237-.083,43.853-.032,2.672.953,3.762,3.543,4.349,2.923.662,5.752,1.674,8.657,2.414,1.341.342,1.439,1.1,1.431,2.161-.01,1.392-1.056,1.166-1.948,1.234-7.258.551-14.52,1.062-21.771,1.675-1.806.153-2.807.054-2.895-2.07-.135-3.266-.726-6.515-1.22-10.567m.2-18.758c0-2.127-.1-4.26.033-6.381.1-1.614-.43-2.173-2.234-2.169a82.452,82.452,0,0,0-15.2,1.209c-13.874,2.624-20.31,15.208-13.76,26.746a12.223,12.223,0,0,0,6.834,5.627c8.6,3.031,18.982-1.79,22.4-10.43,1.868-4.724,1.635-9.693,1.928-14.6" transform="translate(-57.961 -26.808)" fill="#fff"></path><path id="Tracé_59" data-name="Tracé 59" d="M669.625,125.1c-3.544,4.965-7.766,8.8-13.573,10.977-10.463,3.928-23.351,1.424-29.5-5.741-8.8-10.239-5.167-25.188,7.687-32.072,9.155-4.9,19.169-6.061,29.458-6.177,6.035-.067,6.044-.062,6.023-5.8-.008-2.419-.046-4.839-.1-7.258C669.334,66.186,654.333,62.4,645.4,67.274a22.146,22.146,0,0,0-8.331,8.447c-1.052,1.748-1.976,3.564-3.129,5.664-2.6-2.966-5.023-5.7-7.4-8.471-1.216-1.419.321-2.107,1.1-2.832a35.23,35.23,0,0,1,17.383-8.6,60.8,60.8,0,0,1,20.174-.665c13.028,1.733,18.656,8.016,18.6,20.27-.066,14.715-.023,29.431-.166,44.146-.022,2.189.509,3.308,2.946,3.819,3.031.635,5.945,1.739,8.94,2.545,1.259.339,2.018.813,1.925,2.172-.1,1.53-1.3,1.218-2.273,1.294-6.946.545-13.9.991-20.834,1.657-2.547.245-3.8-.056-3.762-2.86a68.757,68.757,0,0,0-.943-8.758m.084-19.247c0-2.221-.092-4.447.029-6.662.09-1.681-.353-2.414-2.389-2.4a84.163,84.163,0,0,0-14.876,1.183c-13.721,2.578-20.2,14.479-14.3,26.107a12.5,12.5,0,0,0,10.022,6.963A18.337,18.337,0,0,0,668.8,116.539a94.155,94.155,0,0,0,.907-10.686" transform="translate(-231.805 -26.806)" fill="#fff"></path><path id="Tracé_60" data-name="Tracé 60" d="M539.02,95.911c-8.326,0-16.653.07-24.977-.05-2.076-.03-2.523.561-2.577,2.394a52.727,52.727,0,0,0,2.11,17.5c5.11,16.314,20.687,18.861,32.469,15.3,6.576-1.989,11.921-5.822,16.93-10.084,1.152-.981,1.823-1.236,2.967-.02,1.051,1.115,1.781,1.768.415,3.329-15.324,17.526-37.878,16.03-52.368,9.7a26.79,26.79,0,0,1-14.8-15.778c-4.547-12.46-5.01-25.077.336-37.452,8.688-20.108,32.078-24.343,47.4-18.91,10.313,3.655,15.641,11.409,18.185,21.023a42.953,42.953,0,0,1,1.267,10.35c.032,1.983-.529,2.83-3.016,2.771-8.112-.191-16.234-.072-24.351-.072m-7.332-5.333v-.01c5.823,0,11.647-.027,17.47.019,1.462.012,2.387-.172,2.264-1.858-.45-6.11-1.289-12.123-4.583-17.581-3.6-5.963-9.745-8.358-16.906-6.734a18.265,18.265,0,0,0-9.8,5.807c-4.663,5.213-6.75,11.428-8.025,17.977-.4,2.074.461,2.439,2.422,2.41,5.718-.085,11.438-.03,17.158-.03" transform="translate(-184.508 -26.554)" fill="#fff"></path><path id="Tracé_61" data-name="Tracé 61" d="M317.162,72.1c2.429-2.787,4.475-5.212,7.2-6.98,7.183-4.651,14.857-6.28,23.28-3.215,2.339.851,3.55,1.889,2.214,4.547a93.073,93.073,0,0,0-3.623,9.484c-1.264-.252-1.419-1.261-1.938-1.9-6.838-8.371-18.656-7.191-23.447,2.38-2.934,5.862-3.2,12.164-3.278,18.446-.126,10.355,0,20.712-.078,31.068a2.479,2.479,0,0,0,2.252,2.855c4.117,1.008,8.171,2.237,12.283,3.261,1.248.311,2.127.6,1.987,2.023-.163,1.671-1.513,1.011-2.355,1.014q-19.046.066-38.093.012c-.78,0-1.987.532-2.1-.966a1.831,1.831,0,0,1,1.413-2.2c2.817-.989,5.528-2.244,8.361-3.189,1.714-.572,2.372-1.358,2.365-3.123q-.108-26.858,0-53.717c.007-1.689-.585-2.387-2.3-2.751-2.931-.622-5.81-1.455-8.712-2.2-1.035-.264-1.873-.526-1.8-1.877.078-1.481,1.078-1.348,2.112-1.47,6.807-.8,13.622-1.552,20.408-2.491,1.741-.241,2.173.29,2.366,1.687.406,2.937.923,5.86,1.475,9.29" transform="translate(-107.654 -26.834)" fill="#fff"></path><path id="Tracé_62" data-name="Tracé 62" d="M454.556,76.347c-1.031-1.265-1.87-2.366-2.789-3.407a13.607,13.607,0,0,0-20.53.509c-3.135,3.945-4.233,8.584-4.664,13.343-1.055,11.681-.293,23.391-.472,35.088-.1,6.31-.015,6.306,6.637,8.086,2.592.694,5.15,1.52,7.772,2.089,1.364.3,1.977.744,1.823,2.1-.168,1.479-1.337.955-2.115.957q-19.039.044-38.079-.019c-.814,0-2.147.692-2.342-1.01-.16-1.4.689-1.827,1.815-2.246,2.893-1.077,5.743-2.255,8.655-3.285a2.385,2.385,0,0,0,1.867-2.591q-.06-27.14,0-54.279c0-1.367-.358-2.049-1.937-2.382-3.134-.661-6.2-1.616-9.3-2.407-1.1-.28-1.849-.624-1.73-1.921.119-1.283.992-1.206,1.946-1.319,6.906-.81,13.817-1.6,20.707-2.528,1.655-.223,2.166.122,2.34,1.667.331,2.934.932,5.842,1.485,9.144,1.786-1.805,3.24-3.39,4.823-4.856,6.826-6.318,18.4-8.531,25.919-5.111,2.187.994,3.178,1.987,2.009,4.422-1.516,3.155-2.54,6.515-3.838,9.955" transform="translate(-148.306 -26.846)" fill="#fff"></path><path id="Tracé_63" data-name="Tracé 63" d="M1134.155,303.467c-3.226,0-6.453-.054-9.675.019-2.151.05-3.518-.7-4.277-2.631-5.677-14.43-11.422-28.837-17.083-43.272-1.03-2.631-.269-3.48,2.888-3.5,5.826-.036,11.656.108,17.479-.057,3.434-.1,5.375,1.154,6.531,4.153,4.635,12.008,9.413,23.969,14.138,35.946.751,1.9,1.546,3.794,2.277,5.705,1.2,3.141.874,3.594-2.6,3.621-3.226.026-6.451.005-9.677.005Z" transform="translate(-412.242 -107.957)" fill="#fff"></path><path id="Tracé_64" data-name="Tracé 64" d="M437.084,271.324c-.389-7.1,1.361-13.6,6.392-19.151a24.836,24.836,0,0,1,15.152-7.919c12.693-1.879,24.176,1.274,30.627,11.852,6.888,11.294,4.418,29.719-5.08,38.114-3.893,3.441-3.909,3.464.753,6.409,4.728,2.986,9.443,5.992,14.264,8.844,1.783,1.055,1.505,1.609.042,2.636-3.733,2.618-3.649,2.614-7.241-.164-4.712-3.643-9.54-7.158-14.247-10.807a6.21,6.21,0,0,0-5.672-1.2c-8.321,1.743-16.4,1-23.6-3.588-7.636-4.867-10.421-12.234-11.367-20.389a40.413,40.413,0,0,1-.025-4.638m8.537.315c.05,5.747.727,11.369,3.589,16.6,3.459,6.323,8.676,10.02,16.591,9.669,7.493-.332,12.4-4.253,15.24-10.33a36.675,36.675,0,0,0,.87-29.946c-2.755-7.017-8.382-10.912-16.5-11.315-7.376-.366-13.483,3.429-16.887,10.338-2.342,4.756-2.965,9.816-2.906,14.984" transform="translate(-162.513 -103.652)" fill="#fff"></path><path id="Tracé_65" data-name="Tracé 65" d="M678.324,264.067c8.669-8.348,21.024-8.46,27.353-.242,4.872,6.326,5.1,13.609,2.219,20.766-3.3,8.216-10.573,12.535-20.066,12.451a58.754,58.754,0,0,1-13.525-1.832c-2.378-.584-3.493-1.605-3.465-4.224.166-15.857-.036-31.717.178-47.572.044-3.323-.837-5.076-4.464-5.441-.816-.082-2.251.1-2.277-1.041-.033-1.38,1.523-1.081,2.41-1.186,2.984-.356,6-.457,8.987-.821,2.27-.277,2.819.566,2.787,2.552-.132,7.733-.1,15.469-.136,23.2,0,.958,0,1.917,0,3.385m22.818,12.054c0-.871.021-1.742,0-2.612-.115-3.961-.908-7.759-4.149-10.6-5.31-4.648-13.621-2.433-16.712,4.48-3.357,7.508-2.312,15.372-1.837,23.171.053.865.73,1.366,1.431,1.8,4.531,2.783,12.341,3.457,16.586-1.04,4.164-4.412,4.689-9.72,4.686-15.2" transform="translate(-247.769 -99.938)" fill="#fff"></path><path id="Tracé_66" data-name="Tracé 66" d="M1081.529,308.171c-3.115,0-6.232.011-9.349,0-2.505-.008-3.388-1-2.488-3.314q7.548-19.465,15.021-38.959c.244-.635.358-1.4,1.278-1.431.935-.027,1.062.732,1.316,1.371q5.681,14.248,11.4,28.479a3.883,3.883,0,0,1-.1,3.342,68.2,68.2,0,0,0-3.024,6.979c-.91,2.7-2.85,3.582-5.646,3.537s-5.61-.01-8.416-.007" transform="translate(-399.734 -112.333)" fill="#fff"></path><path id="Tracé_67" data-name="Tracé 67" d="M565.81,289.393a47.961,47.961,0,0,1,.034-5.353c.384-3.066-.6-5.043-4.163-5.556-.74-.106-2.181-.093-1.932-1.382.2-1.02,1.386-.664,2.118-.723,2.9-.238,5.814-.267,8.705-.543,2.127-.2,2.687.584,2.64,2.452-.19,7.83-.26,15.661-.372,23.493-.01.774-.021,1.548.006,2.322.175,4.709.178,4.708,4.959,6.027.655.181,1.656-.007,1.73.9.1,1.195-1.094.983-1.807,1.072-2.984.374-5.992.591-8.97.993-1.946.262-2.7-.485-2.67-2.189.04-2.169-.764-2.3-2.458-.993-4.062,3.136-8.81,4.078-14.006,3.768-6.841-.409-11.05-4.109-11.234-10.474-.183-6.286-.227-12.583-.011-18.866.111-3.212-.541-5.475-4.37-6.035-.752-.11-1.874-.14-1.7-1.256.151-.938,1.167-.634,1.812-.677,3.211-.215,6.429-.328,9.64-.545,1.868-.126,1.984.931,1.948,2.209-.13,4.734-.266,9.469-.35,14.2a81.745,81.745,0,0,0,.364,9.85c.589,5.711,3.165,8.689,7.845,8.737,6.186.065,11.309-3.81,11.684-9.12.307-4.334.852-8.669.552-12.316" transform="translate(-198.255 -117.082)" fill="#fff"></path><path id="Tracé_68" data-name="Tracé 68" d="M768.823,292.433c-3.849,0-7.7-.012-11.547.008-.9,0-1.8-.136-2.157,1.1-1.383,4.849,1.833,13.088,6.442,15.374,5.157,2.556,10.244,1.822,15-1.158,1.289-.808,2.495-1.735,3.7-2.653.675-.516,1.233-1.047,2.1-.238.942.88.424,1.462-.259,2.194-5.65,6.057-14.923,8.176-23.4,5.31-7.536-2.548-11.453-8.491-11.6-17.158-.093-5.582.954-10.738,4.889-15.184,4.557-5.149,13.5-7.4,20.454-5.033,6.009,2.047,10.159,8.275,10.135,15.048-.006,1.7-.589,2.461-2.527,2.414-3.743-.093-7.489-.027-11.234-.027m-3.9-2.809h3.107c7.227,0,8.34-1.606,5.526-8.03a11.194,11.194,0,0,0-1.215-2.008c-2.708-3.747-7.455-4.358-11.293-1.522-3.485,2.575-4.658,6.235-5.633,10.022-.4,1.548.628,1.546,1.739,1.545q3.883,0,7.769-.007" transform="translate(-278.84 -116.349)" fill="#fff"></path><path id="Tracé_69" data-name="Tracé 69" d="M630.1,292.371c-3.746,0-7.491.027-11.237-.011-1.446-.015-2.509.3-2.446,1.88.153,3.775.349,7.577,2.548,10.906,3.609,5.465,10.753,6.912,17.239,3.548a22.971,22.971,0,0,0,5.33-3.507c.692-.654,1.613-1.052,2.423-.135.744.841-.082,1.394-.588,1.982-4.909,5.7-13.846,7.894-22.488,5.51-7.171-1.978-11.208-7.133-12.062-14.962-.789-7.245.157-13.99,6.279-19.144,5.593-4.709,12.294-5.669,19.2-3.22,6.871,2.437,9.124,7.963,9.6,14.364.155,2.086-.406,2.97-2.872,2.837-3.629-.2-7.28-.05-10.921-.049m-3.657-2.812c2.6,0,5.207-.052,7.808.019,1.6.043,2.283-.432,2.1-2.013a17.958,17.958,0,0,0-2.387-7.743c-2.122-3.35-5.457-4.385-9.364-2.957-3.888,1.42-7.834,7.3-7.7,11.229.05,1.482.961,1.472,2.054,1.47,2.5,0,5,0,7.495-.005" transform="translate(-226.874 -116.29)" fill="#fff"></path><path id="Tracé_70" data-name="Tracé 70" d="M821.065,293.942c.166,4.607.6,8.537,3.132,11.953a11.352,11.352,0,0,0,14.542,3.386c1.549-.756,2.876-1.9,4.348-2.8,1.063-.652,1.859-2.737,3.487-1.11,1.462,1.463-.616,2.173-1.376,2.956-5.929,6.1-13.206,6.4-20.852,3.649-7.613-2.743-10.514-8.708-11.173-15.774-.448-4.792.222-9.493,3.022-13.7,3.571-5.365,8.969-7.888,15.581-8.3a29.625,29.625,0,0,1,5.906.25c10.645,1.492,7.566,1.919,7.121,9.926-.033.6-.155,1.175-.988,1.23a1.292,1.292,0,0,1-1.456-.833,6.419,6.419,0,0,1-.467-1.379c-.972-8.184-11.349-8.081-15.794-3.431-3.986,4.169-4.753,9.3-5.031,13.977" transform="translate(-303.58 -116.388)" fill="#fff"></path><path id="Tracé_71" data-name="Tracé 71" d="M356.791,269.073c0-2.468.045-4.587-.012-6.7-.063-2.344,1.194-5.333-4.185-5.367,2.825-1.563,4.87-1.217,6.728-1.409,1.609-.166,1.016,1.4,1.021,2.218.055,7.051.017,14.1.048,21.154.011,2.545-1.013,5.544,3.714,6.32-5.34,1.631-6.589,1.45-7.826-.805-4.586,2.939-9.807,2.852-12.682-.213-3.251-3.466-3.338-10.733-.171-14.363,2.957-3.391,8.2-3.842,13.364-.832m-11.463,7.8a8.933,8.933,0,0,0,1.434,6.014,4.933,4.933,0,0,0,8.241.036A11.868,11.868,0,0,0,355.589,271a4.492,4.492,0,0,0-4.444-2.591,4.8,4.8,0,0,0-4.517,2.517,10.516,10.516,0,0,0-1.3,5.948" transform="translate(-126.528 -108.612)" fill="#fff"></path><path id="Tracé_72" data-name="Tracé 72" d="M378.489,276.846c2.377-1.118,4.352-.747,6.239-.739,1.224,0,.912,1.079.917,1.8.024,3.285-.042,6.572.033,9.856.092,3.988,1.363,5.7,4.109,5.759,3.241.072,5.274-1.9,5.651-5.649.194-1.919.251-3.855.269-5.784.021-2.167.532-4.622-3.648-5.033,2.574-1.38,4.618-1,6.556-.9,1.177.058.824,1.172.827,1.877.015,3.479-.035,6.957-.04,10.435-.006,3.661,0,3.661,3.008,5.489-2.214.085-4.519,2-6.6-.477-.81-.961-1.255-.017-1.763.238a11.756,11.756,0,0,1-5.641,1.4c-4.314-.1-6.239-1.774-6.445-5.816a65.337,65.337,0,0,1-.172-6.944c.131-2.369.585-4.713-3.3-5.5" transform="translate(-140.554 -117.175)" fill="#fff"></path><path id="Tracé_73" data-name="Tracé 73" d="M647.6,240.328c.028.911-.565,1.229-.99,1.621q-6.2,5.705-12.425,11.379c-.713.648-1.5,1.694-2.606.849-1.216-.93.051-1.741.57-2.447,3.222-4.375,6.611-8.647,9.714-13.093,1.353-1.938,2.333-2.091,3.8-.288.614.754,1.368,1.407,1.932,1.979" transform="translate(-235.312 -100.864)" fill="#fff"></path></g></svg> 