<?xml version="1.0" encoding="utf-8"?>
<!-- Generator: Adobe Illustrator 24.3.0, SVG Export Plug-In . SVG Version: 6.00 Build 0)  -->
<svg version="1.1" id="Layer_1" xmlns="http://www.w3.org/2000/svg" xmlns:xlink="http://www.w3.org/1999/xlink" x="0px" y="0px"
	 viewBox="0 0 37 37" style="enable-background:new 0 0 37 37;" xml:space="preserve">
<style type="text/css">
	.st0{fill:none;stroke:#010202;stroke-width:0.8;stroke-linecap:round;stroke-miterlimit:10;}
</style>
<g>
	<path class="st0" d="M202,51.4h-7.4c-4,0-7.3-3.3-7.3-7.3v-9c0-5.1,4.2-9.3,9.3-9.3h0c5.1,0,9.3,4.2,9.3,9.3v7l-3.8,0V51.4z"/>
	<path class="st0" d="M180.1,57.7h7.4c4,0,7.3-3.3,7.3-7.3v-9c0-5.1-4.2-9.3-9.3-9.3h0c-5.1,0-9.3,4.2-9.3,9.3v7l3.8,0V57.7z"/>
</g>
<g>
	<path class="st0" d="M29.1,27.8h-7.2c-3.9,0-7.1-3.2-7.1-7.1V12c0-5,4-9,9-9h0c5,0,9,4,9,9v6.8l-3.7,0V27.8z"/>
	<path class="st0" d="M7.9,34h7.2c3.9,0,7.1-3.2,7.1-7.1v-8.8c0-5-4-9-9-9h0c-5,0-9,4-9,9v6.8l3.7,0V34z"/>
</g>
</svg>
